G04 #@! TF.GenerationSoftware,KiCad,Pcbnew,(6.0.4)*
G04 #@! TF.CreationDate,2022-06-06T22:41:23+02:00*
G04 #@! TF.ProjectId,XIAO2040,5849414f-3230-4343-902e-6b696361645f,rev?*
G04 #@! TF.SameCoordinates,Original*
G04 #@! TF.FileFunction,Soldermask,Bot*
G04 #@! TF.FilePolarity,Negative*
%FSLAX46Y46*%
G04 Gerber Fmt 4.6, Leading zero omitted, Abs format (unit mm)*
G04 Created by KiCad (PCBNEW (6.0.4)) date 2022-06-06 22:41:23*
%MOMM*%
%LPD*%
G01*
G04 APERTURE LIST*
G04 Aperture macros list*
%AMRoundRect*
0 Rectangle with rounded corners*
0 $1 Rounding radius*
0 $2 $3 $4 $5 $6 $7 $8 $9 X,Y pos of 4 corners*
0 Add a 4 corners polygon primitive as box body*
4,1,4,$2,$3,$4,$5,$6,$7,$8,$9,$2,$3,0*
0 Add four circle primitives for the rounded corners*
1,1,$1+$1,$2,$3*
1,1,$1+$1,$4,$5*
1,1,$1+$1,$6,$7*
1,1,$1+$1,$8,$9*
0 Add four rect primitives between the rounded corners*
20,1,$1+$1,$2,$3,$4,$5,0*
20,1,$1+$1,$4,$5,$6,$7,0*
20,1,$1+$1,$6,$7,$8,$9,0*
20,1,$1+$1,$8,$9,$2,$3,0*%
G04 Aperture macros list end*
%ADD10C,7.000240*%
%ADD11C,7.001300*%
%ADD12C,3.180000*%
%ADD13C,2.250000*%
%ADD14C,1.600000*%
%ADD15R,1.200000X0.900000*%
%ADD16RoundRect,0.400000X1.100000X0.400000X-1.100000X0.400000X-1.100000X-0.400000X1.100000X-0.400000X0*%
%ADD17R,0.900000X1.200000*%
G04 APERTURE END LIST*
D10*
G04 #@! TO.C,REF\u002A\u002A*
X203575000Y9725000D03*
X141275000Y47925000D03*
D11*
X38275000Y67025000D03*
D10*
X273125000Y67025000D03*
G04 #@! TD*
D12*
G04 #@! TO.C,MX40*
X247525000Y86365000D03*
X247525000Y80645000D03*
X254125000Y80645000D03*
X254125000Y86365000D03*
G04 #@! TD*
G04 #@! TO.C,MX32*
X142750000Y61595000D03*
X142750000Y67315000D03*
X149350000Y61595000D03*
X149350000Y67315000D03*
G04 #@! TD*
G04 #@! TO.C,MX3*
X26068750Y48265000D03*
X26068750Y42545000D03*
X32668750Y42545000D03*
X32668750Y48265000D03*
G04 #@! TD*
G04 #@! TO.C,MX5*
X30287500Y10165000D03*
X30287500Y4445000D03*
X23687500Y4445000D03*
X23687500Y10165000D03*
G04 #@! TD*
G04 #@! TO.C,MX20*
X152275000Y4445000D03*
X152275000Y10165000D03*
X158875000Y4445000D03*
X158875000Y10165000D03*
G04 #@! TD*
G04 #@! TO.C,MX4*
X30831250Y29215000D03*
X30831250Y23495000D03*
X37431250Y23495000D03*
X37431250Y29215000D03*
G04 #@! TD*
D13*
G04 #@! TO.C,MX50*
X284480000Y53850000D03*
X278760000Y53850000D03*
X291623750Y53850000D03*
X285903750Y53850000D03*
X278760000Y60450000D03*
X291623750Y60450000D03*
D14*
X285903750Y60450000D03*
X284480000Y60450000D03*
G04 #@! TD*
D12*
G04 #@! TO.C,MX21*
X95125000Y80645000D03*
X95125000Y86365000D03*
X101725000Y80645000D03*
X101725000Y86365000D03*
G04 #@! TD*
G04 #@! TO.C,MX27*
X123700000Y61595000D03*
X123700000Y67315000D03*
X130300000Y61595000D03*
X130300000Y67315000D03*
G04 #@! TD*
G04 #@! TO.C,MX18*
X90362500Y42545000D03*
X90362500Y48265000D03*
X96962500Y48265000D03*
X96962500Y42545000D03*
G04 #@! TD*
G04 #@! TO.C,MX59*
X268956250Y23495000D03*
X268956250Y29215000D03*
X275556250Y23495000D03*
X275556250Y29215000D03*
G04 #@! TD*
G04 #@! TO.C,MX38*
X166562500Y48265000D03*
X166562500Y42545000D03*
X173162500Y48265000D03*
X173162500Y42545000D03*
G04 #@! TD*
G04 #@! TO.C,MX25*
X233237500Y10165000D03*
X233237500Y4445000D03*
X239837500Y4445000D03*
X239837500Y10165000D03*
G04 #@! TD*
G04 #@! TO.C,MX52*
X218950000Y67315000D03*
X218950000Y61595000D03*
X225550000Y67315000D03*
X225550000Y61595000D03*
G04 #@! TD*
G04 #@! TO.C,MX35*
X280862500Y10165000D03*
X280862500Y4445000D03*
X287462500Y10165000D03*
X287462500Y4445000D03*
G04 #@! TD*
G04 #@! TO.C,MX33*
X147512500Y42545000D03*
X147512500Y48265000D03*
X154112500Y42545000D03*
X154112500Y48265000D03*
G04 #@! TD*
G04 #@! TO.C,MX8*
X52262500Y48265000D03*
X52262500Y42545000D03*
X58862500Y48265000D03*
X58862500Y42545000D03*
G04 #@! TD*
G04 #@! TO.C,MX19*
X99887500Y23495000D03*
X99887500Y29215000D03*
X106487500Y29215000D03*
X106487500Y23495000D03*
G04 #@! TD*
G04 #@! TO.C,MX26*
X114175000Y86365000D03*
X114175000Y80645000D03*
X120775000Y86365000D03*
X120775000Y80645000D03*
G04 #@! TD*
G04 #@! TO.C,MX22*
X104650000Y61595000D03*
X104650000Y67315000D03*
X111250000Y67315000D03*
X111250000Y61595000D03*
G04 #@! TD*
G04 #@! TO.C,MX29*
X137987500Y23495000D03*
X137987500Y29215000D03*
X144587500Y23495000D03*
X144587500Y29215000D03*
G04 #@! TD*
G04 #@! TO.C,MX37*
X161800000Y61595000D03*
X161800000Y67315000D03*
X168400000Y61595000D03*
X168400000Y67315000D03*
G04 #@! TD*
G04 #@! TO.C,MX30*
X257050000Y4445000D03*
X257050000Y10165000D03*
X263650000Y10165000D03*
X263650000Y4445000D03*
G04 #@! TD*
G04 #@! TO.C,MX56*
X228475000Y86365000D03*
X228475000Y80645000D03*
X235075000Y80645000D03*
X235075000Y86365000D03*
G04 #@! TD*
G04 #@! TO.C,MX31*
X133225000Y80645000D03*
X133225000Y86365000D03*
X139825000Y80645000D03*
X139825000Y86365000D03*
G04 #@! TD*
G04 #@! TO.C,MX41*
X171325000Y80645000D03*
X171325000Y86365000D03*
X177925000Y86365000D03*
X177925000Y80645000D03*
G04 #@! TD*
G04 #@! TO.C,MX45*
X276100000Y86365000D03*
X276100000Y80645000D03*
X282700000Y80645000D03*
X282700000Y86365000D03*
G04 #@! TD*
G04 #@! TO.C,MX24*
X118937500Y23495000D03*
X118937500Y29215000D03*
X125537500Y23495000D03*
X125537500Y29215000D03*
G04 #@! TD*
G04 #@! TO.C,MX54*
X233237500Y23495000D03*
X233237500Y29215000D03*
X239837500Y29215000D03*
X239837500Y23495000D03*
G04 #@! TD*
G04 #@! TO.C,MX15*
X71312500Y4445000D03*
X71312500Y10165000D03*
X77912500Y4445000D03*
X77912500Y10165000D03*
G04 #@! TD*
G04 #@! TO.C,MX47*
X199900000Y67315000D03*
X199900000Y61595000D03*
X206500000Y67315000D03*
X206500000Y61595000D03*
G04 #@! TD*
G04 #@! TO.C,MX1*
X18925000Y86365000D03*
X18925000Y80645000D03*
X25525000Y80645000D03*
X25525000Y86365000D03*
G04 #@! TD*
G04 #@! TO.C,MX14*
X80837500Y23495000D03*
X80837500Y29215000D03*
X87437500Y23495000D03*
X87437500Y29215000D03*
G04 #@! TD*
G04 #@! TO.C,MX7*
X47500000Y61595000D03*
X47500000Y67315000D03*
X54100000Y61595000D03*
X54100000Y67315000D03*
G04 #@! TD*
G04 #@! TO.C,MX49*
X214187500Y23495000D03*
X214187500Y29215000D03*
X220787500Y23495000D03*
X220787500Y29215000D03*
G04 #@! TD*
G04 #@! TO.C,MX53*
X223712500Y48265000D03*
X223712500Y42545000D03*
X230312500Y48265000D03*
X230312500Y42545000D03*
G04 #@! TD*
G04 #@! TO.C,MX48*
X204662500Y42545000D03*
X204662500Y48265000D03*
X211262500Y42545000D03*
X211262500Y48265000D03*
G04 #@! TD*
G04 #@! TO.C,MX17*
X85600000Y67315000D03*
X85600000Y61595000D03*
X92200000Y67315000D03*
X92200000Y61595000D03*
G04 #@! TD*
G04 #@! TO.C,MX2*
X23687500Y67315000D03*
X23687500Y61595000D03*
X30287500Y67315000D03*
X30287500Y61595000D03*
G04 #@! TD*
G04 #@! TO.C,MX34*
X157037500Y23495000D03*
X157037500Y29215000D03*
X163637500Y23495000D03*
X163637500Y29215000D03*
G04 #@! TD*
G04 #@! TO.C,MX46*
X190375000Y80645000D03*
X190375000Y86365000D03*
X196975000Y86365000D03*
X196975000Y80645000D03*
G04 #@! TD*
G04 #@! TO.C,MX60*
X261812500Y42545000D03*
X261812500Y48265000D03*
X268412500Y48265000D03*
X268412500Y42545000D03*
G04 #@! TD*
G04 #@! TO.C,MX10*
X47500000Y4445000D03*
X47500000Y10165000D03*
X54100000Y4445000D03*
X54100000Y10165000D03*
G04 #@! TD*
G04 #@! TO.C,MX12*
X66550000Y67315000D03*
X66550000Y61595000D03*
X73150000Y67315000D03*
X73150000Y61595000D03*
G04 #@! TD*
G04 #@! TO.C,MX23*
X109412500Y42545000D03*
X109412500Y48265000D03*
X116012500Y42545000D03*
X116012500Y48265000D03*
G04 #@! TD*
G04 #@! TO.C,MX13*
X71312500Y42545000D03*
X71312500Y48265000D03*
X77912500Y48265000D03*
X77912500Y42545000D03*
G04 #@! TD*
G04 #@! TO.C,MX6*
X37975000Y80645000D03*
X37975000Y86365000D03*
X44575000Y80645000D03*
X44575000Y86365000D03*
G04 #@! TD*
G04 #@! TO.C,MX57*
X238000000Y67315000D03*
X238000000Y61595000D03*
X244600000Y67315000D03*
X244600000Y61595000D03*
G04 #@! TD*
G04 #@! TO.C,MX28*
X128462500Y42545000D03*
X128462500Y48265000D03*
X135062500Y48265000D03*
X135062500Y42545000D03*
G04 #@! TD*
G04 #@! TO.C,MX39*
X176087500Y23495000D03*
X176087500Y29215000D03*
X182687500Y23495000D03*
X182687500Y29215000D03*
G04 #@! TD*
G04 #@! TO.C,MX16*
X76075000Y86365000D03*
X76075000Y80645000D03*
X82675000Y86365000D03*
X82675000Y80645000D03*
G04 #@! TD*
G04 #@! TO.C,MX36*
X152275000Y86365000D03*
X152275000Y80645000D03*
X158875000Y86365000D03*
X158875000Y80645000D03*
G04 #@! TD*
G04 #@! TO.C,MX55*
X263650000Y61595000D03*
X263650000Y67315000D03*
X257050000Y61595000D03*
X257050000Y67315000D03*
G04 #@! TD*
G04 #@! TO.C,MX11*
X57025000Y86365000D03*
X57025000Y80645000D03*
X63625000Y86365000D03*
X63625000Y80645000D03*
G04 #@! TD*
G04 #@! TO.C,MX58*
X242762500Y42545000D03*
X242762500Y48265000D03*
X249362500Y48265000D03*
X249362500Y42545000D03*
G04 #@! TD*
G04 #@! TO.C,MX42*
X180850000Y61595000D03*
X180850000Y67315000D03*
X187450000Y61595000D03*
X187450000Y67315000D03*
G04 #@! TD*
G04 #@! TO.C,MX44*
X195137500Y23495000D03*
X195137500Y29215000D03*
X201737500Y29215000D03*
X201737500Y23495000D03*
G04 #@! TD*
G04 #@! TO.C,MX9*
X61787500Y23495000D03*
X61787500Y29215000D03*
X68387500Y29215000D03*
X68387500Y23495000D03*
G04 #@! TD*
G04 #@! TO.C,MX51*
X209425000Y86365000D03*
X209425000Y80645000D03*
X216025000Y86365000D03*
X216025000Y80645000D03*
G04 #@! TD*
G04 #@! TO.C,MX43*
X185612500Y48265000D03*
X185612500Y42545000D03*
X192212500Y48265000D03*
X192212500Y42545000D03*
G04 #@! TD*
D15*
G04 #@! TO.C,D21*
X106362500Y80231250D03*
X106362500Y76931250D03*
G04 #@! TD*
G04 #@! TO.C,D55*
X239712500Y76931250D03*
X239712500Y80231250D03*
G04 #@! TD*
G04 #@! TO.C,D20*
X173831250Y2318750D03*
X173831250Y5618750D03*
G04 #@! TD*
G04 #@! TO.C,D33*
X158750000Y42131250D03*
X158750000Y38831250D03*
G04 #@! TD*
G04 #@! TO.C,D26*
X125412500Y76931250D03*
X125412500Y80231250D03*
G04 #@! TD*
G04 #@! TO.C,D23*
X120650000Y42131250D03*
X120650000Y38831250D03*
G04 #@! TD*
G04 #@! TO.C,D43*
X196850000Y42131250D03*
X196850000Y38831250D03*
G04 #@! TD*
G04 #@! TO.C,D60*
X268287500Y57881250D03*
X268287500Y61181250D03*
G04 #@! TD*
G04 #@! TO.C,D5*
X39687500Y5618750D03*
X39687500Y2318750D03*
G04 #@! TD*
G04 #@! TO.C,D8*
X63500000Y38831250D03*
X63500000Y42131250D03*
G04 #@! TD*
G04 #@! TO.C,D2*
X39687500Y61181250D03*
X39687500Y57881250D03*
G04 #@! TD*
G04 #@! TO.C,D37*
X173037500Y57881250D03*
X173037500Y61181250D03*
G04 #@! TD*
G04 #@! TO.C,D52*
X230187500Y61181250D03*
X230187500Y57881250D03*
G04 #@! TD*
D16*
G04 #@! TO.C,M1*
X32657500Y91894250D03*
D14*
X33657500Y91894250D03*
D16*
X32657500Y89354250D03*
D14*
X33657500Y89354250D03*
D16*
X32657500Y86814250D03*
D14*
X33657500Y86814250D03*
D16*
X32657500Y84274250D03*
D14*
X33657500Y84274250D03*
X33657500Y81734250D03*
D16*
X32657500Y81734250D03*
D14*
X33657500Y79194250D03*
D16*
X32657500Y79194250D03*
D14*
X33657500Y76654250D03*
D16*
X32657500Y76654250D03*
D14*
X48892500Y76654250D03*
D16*
X49892500Y76654250D03*
X49892500Y79194250D03*
D14*
X48892500Y79194250D03*
X48892500Y81734250D03*
D16*
X49892500Y81734250D03*
X49892500Y84274250D03*
D14*
X48892500Y84274250D03*
D16*
X49892500Y86814250D03*
D14*
X48892500Y86814250D03*
X48892500Y89354250D03*
D16*
X49892500Y89354250D03*
D14*
X48892500Y91894250D03*
D16*
X49892500Y91894250D03*
G04 #@! TD*
D15*
G04 #@! TO.C,D29*
X149225000Y19781250D03*
X149225000Y23081250D03*
G04 #@! TD*
G04 #@! TO.C,D22*
X115887500Y61181250D03*
X115887500Y57881250D03*
G04 #@! TD*
G04 #@! TO.C,D57*
X254000000Y38831250D03*
X254000000Y42131250D03*
G04 #@! TD*
G04 #@! TO.C,D19*
X111125000Y19781250D03*
X111125000Y23081250D03*
G04 #@! TD*
G04 #@! TO.C,D28*
X139700000Y38831250D03*
X139700000Y42131250D03*
G04 #@! TD*
G04 #@! TO.C,D16*
X87312500Y76931250D03*
X87312500Y80231250D03*
G04 #@! TD*
G04 #@! TO.C,D39*
X187325000Y19781250D03*
X187325000Y23081250D03*
G04 #@! TD*
G04 #@! TO.C,D31*
X144462500Y80231250D03*
X144462500Y76931250D03*
G04 #@! TD*
G04 #@! TO.C,D42*
X192087500Y61181250D03*
X192087500Y57881250D03*
G04 #@! TD*
G04 #@! TO.C,D30*
X268287500Y2318750D03*
X268287500Y5618750D03*
G04 #@! TD*
G04 #@! TO.C,D54*
X244475000Y23081250D03*
X244475000Y19781250D03*
G04 #@! TD*
G04 #@! TO.C,D35*
X271462500Y5618750D03*
X271462500Y2318750D03*
G04 #@! TD*
G04 #@! TO.C,D25*
X249237500Y5618750D03*
X249237500Y2318750D03*
G04 #@! TD*
D17*
G04 #@! TO.C,D1*
X24543750Y74612500D03*
X27843750Y74612500D03*
G04 #@! TD*
D15*
G04 #@! TO.C,D50*
X295275000Y57212500D03*
X295275000Y53912500D03*
G04 #@! TD*
G04 #@! TO.C,D41*
X182562500Y80231250D03*
X182562500Y76931250D03*
G04 #@! TD*
G04 #@! TO.C,D51*
X220662500Y80231250D03*
X220662500Y76931250D03*
G04 #@! TD*
G04 #@! TO.C,D27*
X134937500Y57881250D03*
X134937500Y61181250D03*
G04 #@! TD*
G04 #@! TO.C,D10*
X58737500Y2318750D03*
X58737500Y5618750D03*
G04 #@! TD*
G04 #@! TO.C,D53*
X234950000Y42131250D03*
X234950000Y38831250D03*
G04 #@! TD*
D17*
G04 #@! TO.C,D6*
X43593750Y72231250D03*
X46893750Y72231250D03*
G04 #@! TD*
D15*
G04 #@! TO.C,D38*
X177800000Y38831250D03*
X177800000Y42131250D03*
G04 #@! TD*
G04 #@! TO.C,D17*
X96837500Y57881250D03*
X96837500Y61181250D03*
G04 #@! TD*
G04 #@! TO.C,D12*
X77787500Y61181250D03*
X77787500Y57881250D03*
G04 #@! TD*
G04 #@! TO.C,D44*
X206375000Y23081250D03*
X206375000Y19781250D03*
G04 #@! TD*
G04 #@! TO.C,D45*
X292100000Y80231250D03*
X292100000Y76931250D03*
G04 #@! TD*
G04 #@! TO.C,D9*
X73025000Y19781250D03*
X73025000Y23081250D03*
G04 #@! TD*
G04 #@! TO.C,D47*
X211137500Y57881250D03*
X211137500Y61181250D03*
G04 #@! TD*
G04 #@! TO.C,D3*
X44450000Y42131250D03*
X44450000Y38831250D03*
G04 #@! TD*
G04 #@! TO.C,D24*
X130175000Y23081250D03*
X130175000Y19781250D03*
G04 #@! TD*
G04 #@! TO.C,D13*
X82550000Y42131250D03*
X82550000Y38831250D03*
G04 #@! TD*
G04 #@! TO.C,D49*
X225425000Y19781250D03*
X225425000Y23081250D03*
G04 #@! TD*
G04 #@! TO.C,D36*
X163512500Y76931250D03*
X163512500Y80231250D03*
G04 #@! TD*
G04 #@! TO.C,D59*
X273050000Y38831250D03*
X273050000Y42131250D03*
G04 #@! TD*
G04 #@! TO.C,D14*
X92075000Y23081250D03*
X92075000Y19781250D03*
G04 #@! TD*
G04 #@! TO.C,D46*
X201612500Y76931250D03*
X201612500Y80231250D03*
G04 #@! TD*
G04 #@! TO.C,D56*
X249237500Y57881250D03*
X249237500Y61181250D03*
G04 #@! TD*
G04 #@! TO.C,D18*
X101600000Y38831250D03*
X101600000Y42131250D03*
G04 #@! TD*
G04 #@! TO.C,D34*
X168275000Y23081250D03*
X168275000Y19781250D03*
G04 #@! TD*
G04 #@! TO.C,D40*
X258762500Y76931250D03*
X258762500Y80231250D03*
G04 #@! TD*
G04 #@! TO.C,D7*
X58737500Y57881250D03*
X58737500Y61181250D03*
G04 #@! TD*
G04 #@! TO.C,D4*
X46037500Y23081250D03*
X46037500Y19781250D03*
G04 #@! TD*
G04 #@! TO.C,D15*
X87312500Y5618750D03*
X87312500Y2318750D03*
G04 #@! TD*
G04 #@! TO.C,D32*
X153987500Y61181250D03*
X153987500Y57881250D03*
G04 #@! TD*
G04 #@! TO.C,D48*
X215900000Y38831250D03*
X215900000Y42131250D03*
G04 #@! TD*
G04 #@! TO.C,D58*
X248443750Y19781250D03*
X248443750Y23081250D03*
G04 #@! TD*
G04 #@! TO.C,D11*
X68262500Y80231250D03*
X68262500Y76931250D03*
G04 #@! TD*
M02*
