M48
; DRILL file {KiCad (6.0.4)} date Mon Jun  6 22:41:26 2022
; FORMAT={3:3/ absolute / metric / suppress leading zeros}
; #@! TF.CreationDate,2022-06-06T22:41:26+02:00
; #@! TF.GenerationSoftware,Kicad,Pcbnew,(6.0.4)
; #@! TF.FileFunction,MixedPlating,1,2
FMAT,2
METRIC,TZ
; #@! TA.AperFunction,Plated,PTH,ViaDrill
T1C0.400
; #@! TA.AperFunction,Plated,PTH,ComponentDrill
T2C0.800
; #@! TA.AperFunction,Plated,PTH,ComponentDrill
T3C1.400
; #@! TA.AperFunction,Plated,PTH,ComponentDrill
T4C2.499
; #@! TA.AperFunction,Plated,PTH,ComponentDrill
T5C2.499
; #@! TA.AperFunction,NonPlated,NPTH,ComponentDrill
T6C1.600
%
G90
G05
T1
X42800Y57881
X43381Y37306
X43656Y19844
X44450Y13494
X251619Y20638
X258763Y74613
X258763Y57944
X268287Y55563
X270669Y38894
X273050Y9525
X273113Y2319
X292100Y73819
X295275Y58738
T2
X33658Y91894
X33658Y89354
X33658Y86814
X33658Y84274
X33658Y81734
X33658Y79194
X33658Y76654
X48893Y91894
X48893Y89354
X48893Y86814
X48893Y84274
X48893Y81734
X48893Y79194
X48893Y76654
T3
X18925Y86365
X18925Y80645
X23688Y67315
X23688Y61595
X23688Y10165
X23688Y4445
X25525Y86365
X25525Y80645
X26069Y48265
X26069Y42545
X30288Y67315
X30288Y61595
X30288Y10165
X30288Y4445
X30831Y29215
X30831Y23495
X32669Y48265
X32669Y42545
X37431Y29215
X37431Y23495
X37975Y86365
X37975Y80645
X44575Y86365
X44575Y80645
X47500Y67315
X47500Y61595
X47500Y10165
X47500Y4445
X52263Y48265
X52263Y42545
X54100Y67315
X54100Y61595
X54100Y10165
X54100Y4445
X57025Y86365
X57025Y80645
X58863Y48265
X58863Y42545
X61788Y29215
X61788Y23495
X63625Y86365
X63625Y80645
X66550Y67315
X66550Y61595
X68388Y29215
X68388Y23495
X71313Y48265
X71313Y42545
X71313Y10165
X71313Y4445
X73150Y67315
X73150Y61595
X76075Y86365
X76075Y80645
X77913Y48265
X77913Y42545
X77913Y10165
X77913Y4445
X80837Y29215
X80837Y23495
X82675Y86365
X82675Y80645
X85600Y67315
X85600Y61595
X87438Y29215
X87438Y23495
X90363Y48265
X90363Y42545
X92200Y67315
X92200Y61595
X95125Y86365
X95125Y80645
X96962Y48265
X96962Y42545
X99887Y29215
X99887Y23495
X101725Y86365
X101725Y80645
X104650Y67315
X104650Y61595
X106488Y29215
X106488Y23495
X109413Y48265
X109413Y42545
X111250Y67315
X111250Y61595
X114175Y86365
X114175Y80645
X116013Y48265
X116013Y42545
X118938Y29215
X118938Y23495
X120775Y86365
X120775Y80645
X123700Y67315
X123700Y61595
X125538Y29215
X125538Y23495
X128463Y48265
X128463Y42545
X130300Y67315
X130300Y61595
X133225Y86365
X133225Y80645
X135063Y48265
X135063Y42545
X137987Y29215
X137987Y23495
X139825Y86365
X139825Y80645
X142750Y67315
X142750Y61595
X144588Y29215
X144588Y23495
X147513Y48265
X147513Y42545
X149350Y67315
X149350Y61595
X152275Y86365
X152275Y80645
X152275Y10165
X152275Y4445
X154112Y48265
X154112Y42545
X157038Y29215
X157038Y23495
X158875Y86365
X158875Y80645
X158875Y10165
X158875Y4445
X161800Y67315
X161800Y61595
X163638Y29215
X163638Y23495
X166563Y48265
X166563Y42545
X168400Y67315
X168400Y61595
X171325Y86365
X171325Y80645
X173163Y48265
X173163Y42545
X176088Y29215
X176088Y23495
X177925Y86365
X177925Y80645
X180850Y67315
X180850Y61595
X182688Y29215
X182688Y23495
X185612Y48265
X185612Y42545
X187450Y67315
X187450Y61595
X190375Y86365
X190375Y80645
X192212Y48265
X192212Y42545
X195138Y29215
X195138Y23495
X196975Y86365
X196975Y80645
X199900Y67315
X199900Y61595
X201737Y29215
X201737Y23495
X204663Y48265
X204663Y42545
X206500Y67315
X206500Y61595
X209425Y86365
X209425Y80645
X211263Y48265
X211263Y42545
X214188Y29215
X214188Y23495
X216025Y86365
X216025Y80645
X218950Y67315
X218950Y61595
X220788Y29215
X220788Y23495
X223713Y48265
X223713Y42545
X225550Y67315
X225550Y61595
X228475Y86365
X228475Y80645
X230313Y48265
X230313Y42545
X233238Y29215
X233238Y23495
X233238Y10165
X233238Y4445
X235075Y86365
X235075Y80645
X238000Y67315
X238000Y61595
X239838Y29215
X239838Y23495
X239838Y10165
X239838Y4445
X242763Y48265
X242763Y42545
X244600Y67315
X244600Y61595
X247525Y86365
X247525Y80645
X249363Y48265
X249363Y42545
X254125Y86365
X254125Y80645
X257050Y67315
X257050Y61595
X257050Y10165
X257050Y4445
X261813Y48265
X261813Y42545
X263650Y67315
X263650Y61595
X263650Y10165
X263650Y4445
X268412Y48265
X268412Y42545
X268956Y29215
X268956Y23495
X275556Y29215
X275556Y23495
X276100Y86365
X276100Y80645
X278760Y60450
X278760Y53850
X280863Y10165
X280863Y4445
X282700Y86365
X282700Y80645
X284480Y53850
X285904Y53850
X287463Y10165
X287463Y4445
X291624Y60450
X291624Y53850
T5
X38275Y67025
T6
X284480Y60450
X285904Y60450
T4
G00X140024Y47925
M15
G01X142526Y47925
M16
G05
G00X202324Y9725
M15
G01X204826Y9725
M16
G05
G00X271874Y67025
M15
G01X274376Y67025
M16
G05
T0
M30
