%FSLAX45Y45*%
G04 Gerber Fmt 4.5, Leading zero omitted, Abs format (unit mm)*
G04 Created by KiCad (PCBNEW (6.0.4)) date 2022-08-29 03:31:14*
%MOMM*%
%LPD*%
G01*
G04 APERTURE LIST*
%ADD10C,0.200000*%
%ADD11C,0.040000*%
%ADD12C,0.140000*%
%ADD13C,0.249936*%
%ADD14C,0.249940*%
G04 APERTURE END LIST*
D10*
D11*
X2621600Y8960800D02*
X2661600Y8920800D01*
X2661600Y8960800D02*
X2621600Y8920800D01*
X2675146Y7719375D02*
X2715146Y7679375D01*
X2715146Y7719375D02*
X2675146Y7679375D01*
X2678523Y8228398D02*
X2718523Y8188398D01*
X2718523Y8228398D02*
X2678523Y8188398D01*
X2678750Y8433750D02*
X2718750Y8393750D01*
X2718750Y8433750D02*
X2678750Y8393750D01*
X2678750Y7878125D02*
X2718750Y7838125D01*
X2718750Y7878125D02*
X2678750Y7838125D01*
X4186875Y3909375D02*
X4226875Y3869375D01*
X4226875Y3909375D02*
X4186875Y3869375D01*
X4273175Y5808125D02*
X4313175Y5768125D01*
X4313175Y5808125D02*
X4273175Y5768125D01*
X4345625Y2004375D02*
X4385625Y1964375D01*
X4385625Y2004375D02*
X4345625Y1964375D01*
X4425000Y1766250D02*
X4465000Y1726250D01*
X4465000Y1766250D02*
X4425000Y1726250D01*
X21490625Y2639375D02*
X21530625Y2599375D01*
X21530625Y2639375D02*
X21490625Y2599375D01*
X27608075Y2639375D02*
X27648075Y2599375D01*
X27648075Y2639375D02*
X27608075Y2599375D01*
D12*
X1962500Y8636500D02*
G75*
G03*
X1962500Y8636500I-70000J0D01*
G01*
X1962500Y8064500D02*
G75*
G03*
X1962500Y8064500I-70000J0D01*
G01*
X2438750Y6731500D02*
G75*
G03*
X2438750Y6731500I-70000J0D01*
G01*
X2438750Y6159500D02*
G75*
G03*
X2438750Y6159500I-70000J0D01*
G01*
X2438750Y1016500D02*
G75*
G03*
X2438750Y1016500I-70000J0D01*
G01*
X2438750Y444500D02*
G75*
G03*
X2438750Y444500I-70000J0D01*
G01*
X2622500Y8636500D02*
G75*
G03*
X2622500Y8636500I-70000J0D01*
G01*
X2622500Y8064500D02*
G75*
G03*
X2622500Y8064500I-70000J0D01*
G01*
X2676875Y4826500D02*
G75*
G03*
X2676875Y4826500I-70000J0D01*
G01*
X2676875Y4254500D02*
G75*
G03*
X2676875Y4254500I-70000J0D01*
G01*
X3098750Y6731500D02*
G75*
G03*
X3098750Y6731500I-70000J0D01*
G01*
X3098750Y6159500D02*
G75*
G03*
X3098750Y6159500I-70000J0D01*
G01*
X3098750Y1016500D02*
G75*
G03*
X3098750Y1016500I-70000J0D01*
G01*
X3098750Y444500D02*
G75*
G03*
X3098750Y444500I-70000J0D01*
G01*
X3153125Y2921500D02*
G75*
G03*
X3153125Y2921500I-70000J0D01*
G01*
X3153125Y2349500D02*
G75*
G03*
X3153125Y2349500I-70000J0D01*
G01*
X3336875Y4826500D02*
G75*
G03*
X3336875Y4826500I-70000J0D01*
G01*
X3336875Y4254500D02*
G75*
G03*
X3336875Y4254500I-70000J0D01*
G01*
X3813125Y2921500D02*
G75*
G03*
X3813125Y2921500I-70000J0D01*
G01*
X3813125Y2349500D02*
G75*
G03*
X3813125Y2349500I-70000J0D01*
G01*
X3867500Y8636500D02*
G75*
G03*
X3867500Y8636500I-70000J0D01*
G01*
X3867500Y8064500D02*
G75*
G03*
X3867500Y8064500I-70000J0D01*
G01*
X4527500Y8636500D02*
G75*
G03*
X4527500Y8636500I-70000J0D01*
G01*
X4527500Y8064500D02*
G75*
G03*
X4527500Y8064500I-70000J0D01*
G01*
X4820000Y6731500D02*
G75*
G03*
X4820000Y6731500I-70000J0D01*
G01*
X4820000Y6159500D02*
G75*
G03*
X4820000Y6159500I-70000J0D01*
G01*
X4820000Y1016500D02*
G75*
G03*
X4820000Y1016500I-70000J0D01*
G01*
X4820000Y444500D02*
G75*
G03*
X4820000Y444500I-70000J0D01*
G01*
X5296250Y4826500D02*
G75*
G03*
X5296250Y4826500I-70000J0D01*
G01*
X5296250Y4254500D02*
G75*
G03*
X5296250Y4254500I-70000J0D01*
G01*
X5480000Y6731500D02*
G75*
G03*
X5480000Y6731500I-70000J0D01*
G01*
X5480000Y6159500D02*
G75*
G03*
X5480000Y6159500I-70000J0D01*
G01*
X5480000Y1016500D02*
G75*
G03*
X5480000Y1016500I-70000J0D01*
G01*
X5480000Y444500D02*
G75*
G03*
X5480000Y444500I-70000J0D01*
G01*
X5772500Y8636500D02*
G75*
G03*
X5772500Y8636500I-70000J0D01*
G01*
X5772500Y8064500D02*
G75*
G03*
X5772500Y8064500I-70000J0D01*
G01*
X5956250Y4826500D02*
G75*
G03*
X5956250Y4826500I-70000J0D01*
G01*
X5956250Y4254500D02*
G75*
G03*
X5956250Y4254500I-70000J0D01*
G01*
X6248750Y2921500D02*
G75*
G03*
X6248750Y2921500I-70000J0D01*
G01*
X6248750Y2349500D02*
G75*
G03*
X6248750Y2349500I-70000J0D01*
G01*
X6432500Y8636500D02*
G75*
G03*
X6432500Y8636500I-70000J0D01*
G01*
X6432500Y8064500D02*
G75*
G03*
X6432500Y8064500I-70000J0D01*
G01*
X6725000Y6731500D02*
G75*
G03*
X6725000Y6731500I-70000J0D01*
G01*
X6725000Y6159500D02*
G75*
G03*
X6725000Y6159500I-70000J0D01*
G01*
X6908750Y2921500D02*
G75*
G03*
X6908750Y2921500I-70000J0D01*
G01*
X6908750Y2349500D02*
G75*
G03*
X6908750Y2349500I-70000J0D01*
G01*
X7201250Y4826500D02*
G75*
G03*
X7201250Y4826500I-70000J0D01*
G01*
X7201250Y4254500D02*
G75*
G03*
X7201250Y4254500I-70000J0D01*
G01*
X7201250Y1016500D02*
G75*
G03*
X7201250Y1016500I-70000J0D01*
G01*
X7201250Y444500D02*
G75*
G03*
X7201250Y444500I-70000J0D01*
G01*
X7385000Y6731500D02*
G75*
G03*
X7385000Y6731500I-70000J0D01*
G01*
X7385000Y6159500D02*
G75*
G03*
X7385000Y6159500I-70000J0D01*
G01*
X7677500Y8636500D02*
G75*
G03*
X7677500Y8636500I-70000J0D01*
G01*
X7677500Y8064500D02*
G75*
G03*
X7677500Y8064500I-70000J0D01*
G01*
X7861250Y4826500D02*
G75*
G03*
X7861250Y4826500I-70000J0D01*
G01*
X7861250Y4254500D02*
G75*
G03*
X7861250Y4254500I-70000J0D01*
G01*
X7861250Y1016500D02*
G75*
G03*
X7861250Y1016500I-70000J0D01*
G01*
X7861250Y444500D02*
G75*
G03*
X7861250Y444500I-70000J0D01*
G01*
X8153750Y2921500D02*
G75*
G03*
X8153750Y2921500I-70000J0D01*
G01*
X8153750Y2349500D02*
G75*
G03*
X8153750Y2349500I-70000J0D01*
G01*
X8337500Y8636500D02*
G75*
G03*
X8337500Y8636500I-70000J0D01*
G01*
X8337500Y8064500D02*
G75*
G03*
X8337500Y8064500I-70000J0D01*
G01*
X8630000Y6731500D02*
G75*
G03*
X8630000Y6731500I-70000J0D01*
G01*
X8630000Y6159500D02*
G75*
G03*
X8630000Y6159500I-70000J0D01*
G01*
X8813750Y2921500D02*
G75*
G03*
X8813750Y2921500I-70000J0D01*
G01*
X8813750Y2349500D02*
G75*
G03*
X8813750Y2349500I-70000J0D01*
G01*
X9106250Y4826500D02*
G75*
G03*
X9106250Y4826500I-70000J0D01*
G01*
X9106250Y4254500D02*
G75*
G03*
X9106250Y4254500I-70000J0D01*
G01*
X9290000Y6731500D02*
G75*
G03*
X9290000Y6731500I-70000J0D01*
G01*
X9290000Y6159500D02*
G75*
G03*
X9290000Y6159500I-70000J0D01*
G01*
X9582500Y8636500D02*
G75*
G03*
X9582500Y8636500I-70000J0D01*
G01*
X9582500Y8064500D02*
G75*
G03*
X9582500Y8064500I-70000J0D01*
G01*
X9766250Y4826500D02*
G75*
G03*
X9766250Y4826500I-70000J0D01*
G01*
X9766250Y4254500D02*
G75*
G03*
X9766250Y4254500I-70000J0D01*
G01*
X10058750Y2921500D02*
G75*
G03*
X10058750Y2921500I-70000J0D01*
G01*
X10058750Y2349500D02*
G75*
G03*
X10058750Y2349500I-70000J0D01*
G01*
X10242500Y8636500D02*
G75*
G03*
X10242500Y8636500I-70000J0D01*
G01*
X10242500Y8064500D02*
G75*
G03*
X10242500Y8064500I-70000J0D01*
G01*
X10535000Y6731500D02*
G75*
G03*
X10535000Y6731500I-70000J0D01*
G01*
X10535000Y6159500D02*
G75*
G03*
X10535000Y6159500I-70000J0D01*
G01*
X10718750Y2921500D02*
G75*
G03*
X10718750Y2921500I-70000J0D01*
G01*
X10718750Y2349500D02*
G75*
G03*
X10718750Y2349500I-70000J0D01*
G01*
X11011250Y4826500D02*
G75*
G03*
X11011250Y4826500I-70000J0D01*
G01*
X11011250Y4254500D02*
G75*
G03*
X11011250Y4254500I-70000J0D01*
G01*
X11195000Y6731500D02*
G75*
G03*
X11195000Y6731500I-70000J0D01*
G01*
X11195000Y6159500D02*
G75*
G03*
X11195000Y6159500I-70000J0D01*
G01*
X11487500Y8636500D02*
G75*
G03*
X11487500Y8636500I-70000J0D01*
G01*
X11487500Y8064500D02*
G75*
G03*
X11487500Y8064500I-70000J0D01*
G01*
X11671250Y4826500D02*
G75*
G03*
X11671250Y4826500I-70000J0D01*
G01*
X11671250Y4254500D02*
G75*
G03*
X11671250Y4254500I-70000J0D01*
G01*
X11963750Y2921500D02*
G75*
G03*
X11963750Y2921500I-70000J0D01*
G01*
X11963750Y2349500D02*
G75*
G03*
X11963750Y2349500I-70000J0D01*
G01*
X12147500Y8636500D02*
G75*
G03*
X12147500Y8636500I-70000J0D01*
G01*
X12147500Y8064500D02*
G75*
G03*
X12147500Y8064500I-70000J0D01*
G01*
X12440000Y6731500D02*
G75*
G03*
X12440000Y6731500I-70000J0D01*
G01*
X12440000Y6159500D02*
G75*
G03*
X12440000Y6159500I-70000J0D01*
G01*
X12623750Y2921500D02*
G75*
G03*
X12623750Y2921500I-70000J0D01*
G01*
X12623750Y2349500D02*
G75*
G03*
X12623750Y2349500I-70000J0D01*
G01*
X12916250Y4826500D02*
G75*
G03*
X12916250Y4826500I-70000J0D01*
G01*
X12916250Y4254500D02*
G75*
G03*
X12916250Y4254500I-70000J0D01*
G01*
X13100000Y6731500D02*
G75*
G03*
X13100000Y6731500I-70000J0D01*
G01*
X13100000Y6159500D02*
G75*
G03*
X13100000Y6159500I-70000J0D01*
G01*
X13392500Y8636500D02*
G75*
G03*
X13392500Y8636500I-70000J0D01*
G01*
X13392500Y8064500D02*
G75*
G03*
X13392500Y8064500I-70000J0D01*
G01*
X13576250Y4826500D02*
G75*
G03*
X13576250Y4826500I-70000J0D01*
G01*
X13576250Y4254500D02*
G75*
G03*
X13576250Y4254500I-70000J0D01*
G01*
X13868750Y2921500D02*
G75*
G03*
X13868750Y2921500I-70000J0D01*
G01*
X13868750Y2349500D02*
G75*
G03*
X13868750Y2349500I-70000J0D01*
G01*
X14052500Y8636500D02*
G75*
G03*
X14052500Y8636500I-70000J0D01*
G01*
X14052500Y8064500D02*
G75*
G03*
X14052500Y8064500I-70000J0D01*
G01*
X14345000Y6731500D02*
G75*
G03*
X14345000Y6731500I-70000J0D01*
G01*
X14345000Y6159500D02*
G75*
G03*
X14345000Y6159500I-70000J0D01*
G01*
X14528750Y2921500D02*
G75*
G03*
X14528750Y2921500I-70000J0D01*
G01*
X14528750Y2349500D02*
G75*
G03*
X14528750Y2349500I-70000J0D01*
G01*
X14821250Y4826500D02*
G75*
G03*
X14821250Y4826500I-70000J0D01*
G01*
X14821250Y4254500D02*
G75*
G03*
X14821250Y4254500I-70000J0D01*
G01*
X15005000Y6731500D02*
G75*
G03*
X15005000Y6731500I-70000J0D01*
G01*
X15005000Y6159500D02*
G75*
G03*
X15005000Y6159500I-70000J0D01*
G01*
X15297500Y8636500D02*
G75*
G03*
X15297500Y8636500I-70000J0D01*
G01*
X15297500Y8064500D02*
G75*
G03*
X15297500Y8064500I-70000J0D01*
G01*
X15297500Y1016500D02*
G75*
G03*
X15297500Y1016500I-70000J0D01*
G01*
X15297500Y444500D02*
G75*
G03*
X15297500Y444500I-70000J0D01*
G01*
X15481250Y4826500D02*
G75*
G03*
X15481250Y4826500I-70000J0D01*
G01*
X15481250Y4254500D02*
G75*
G03*
X15481250Y4254500I-70000J0D01*
G01*
X15773750Y2921500D02*
G75*
G03*
X15773750Y2921500I-70000J0D01*
G01*
X15773750Y2349500D02*
G75*
G03*
X15773750Y2349500I-70000J0D01*
G01*
X15957500Y8636500D02*
G75*
G03*
X15957500Y8636500I-70000J0D01*
G01*
X15957500Y8064500D02*
G75*
G03*
X15957500Y8064500I-70000J0D01*
G01*
X15957500Y1016500D02*
G75*
G03*
X15957500Y1016500I-70000J0D01*
G01*
X15957500Y444500D02*
G75*
G03*
X15957500Y444500I-70000J0D01*
G01*
X16250000Y6731500D02*
G75*
G03*
X16250000Y6731500I-70000J0D01*
G01*
X16250000Y6159500D02*
G75*
G03*
X16250000Y6159500I-70000J0D01*
G01*
X16433750Y2921500D02*
G75*
G03*
X16433750Y2921500I-70000J0D01*
G01*
X16433750Y2349500D02*
G75*
G03*
X16433750Y2349500I-70000J0D01*
G01*
X16726250Y4826500D02*
G75*
G03*
X16726250Y4826500I-70000J0D01*
G01*
X16726250Y4254500D02*
G75*
G03*
X16726250Y4254500I-70000J0D01*
G01*
X16910000Y6731500D02*
G75*
G03*
X16910000Y6731500I-70000J0D01*
G01*
X16910000Y6159500D02*
G75*
G03*
X16910000Y6159500I-70000J0D01*
G01*
X17202500Y8636500D02*
G75*
G03*
X17202500Y8636500I-70000J0D01*
G01*
X17202500Y8064500D02*
G75*
G03*
X17202500Y8064500I-70000J0D01*
G01*
X17386250Y4826500D02*
G75*
G03*
X17386250Y4826500I-70000J0D01*
G01*
X17386250Y4254500D02*
G75*
G03*
X17386250Y4254500I-70000J0D01*
G01*
X17678750Y2921500D02*
G75*
G03*
X17678750Y2921500I-70000J0D01*
G01*
X17678750Y2349500D02*
G75*
G03*
X17678750Y2349500I-70000J0D01*
G01*
X17862500Y8636500D02*
G75*
G03*
X17862500Y8636500I-70000J0D01*
G01*
X17862500Y8064500D02*
G75*
G03*
X17862500Y8064500I-70000J0D01*
G01*
X18155000Y6731500D02*
G75*
G03*
X18155000Y6731500I-70000J0D01*
G01*
X18155000Y6159500D02*
G75*
G03*
X18155000Y6159500I-70000J0D01*
G01*
X18338750Y2921500D02*
G75*
G03*
X18338750Y2921500I-70000J0D01*
G01*
X18338750Y2349500D02*
G75*
G03*
X18338750Y2349500I-70000J0D01*
G01*
X18631250Y4826500D02*
G75*
G03*
X18631250Y4826500I-70000J0D01*
G01*
X18631250Y4254500D02*
G75*
G03*
X18631250Y4254500I-70000J0D01*
G01*
X18815000Y6731500D02*
G75*
G03*
X18815000Y6731500I-70000J0D01*
G01*
X18815000Y6159500D02*
G75*
G03*
X18815000Y6159500I-70000J0D01*
G01*
X19107500Y8636500D02*
G75*
G03*
X19107500Y8636500I-70000J0D01*
G01*
X19107500Y8064500D02*
G75*
G03*
X19107500Y8064500I-70000J0D01*
G01*
X19291250Y4826500D02*
G75*
G03*
X19291250Y4826500I-70000J0D01*
G01*
X19291250Y4254500D02*
G75*
G03*
X19291250Y4254500I-70000J0D01*
G01*
X19583750Y2921500D02*
G75*
G03*
X19583750Y2921500I-70000J0D01*
G01*
X19583750Y2349500D02*
G75*
G03*
X19583750Y2349500I-70000J0D01*
G01*
X19767500Y8636500D02*
G75*
G03*
X19767500Y8636500I-70000J0D01*
G01*
X19767500Y8064500D02*
G75*
G03*
X19767500Y8064500I-70000J0D01*
G01*
X20060000Y6731500D02*
G75*
G03*
X20060000Y6731500I-70000J0D01*
G01*
X20060000Y6159500D02*
G75*
G03*
X20060000Y6159500I-70000J0D01*
G01*
X20243750Y2921500D02*
G75*
G03*
X20243750Y2921500I-70000J0D01*
G01*
X20243750Y2349500D02*
G75*
G03*
X20243750Y2349500I-70000J0D01*
G01*
X20536250Y4826500D02*
G75*
G03*
X20536250Y4826500I-70000J0D01*
G01*
X20536250Y4254500D02*
G75*
G03*
X20536250Y4254500I-70000J0D01*
G01*
X20720000Y6731500D02*
G75*
G03*
X20720000Y6731500I-70000J0D01*
G01*
X20720000Y6159500D02*
G75*
G03*
X20720000Y6159500I-70000J0D01*
G01*
X21012500Y8636500D02*
G75*
G03*
X21012500Y8636500I-70000J0D01*
G01*
X21012500Y8064500D02*
G75*
G03*
X21012500Y8064500I-70000J0D01*
G01*
X21196250Y4826500D02*
G75*
G03*
X21196250Y4826500I-70000J0D01*
G01*
X21196250Y4254500D02*
G75*
G03*
X21196250Y4254500I-70000J0D01*
G01*
X21488750Y2921500D02*
G75*
G03*
X21488750Y2921500I-70000J0D01*
G01*
X21488750Y2349500D02*
G75*
G03*
X21488750Y2349500I-70000J0D01*
G01*
X21672500Y8636500D02*
G75*
G03*
X21672500Y8636500I-70000J0D01*
G01*
X21672500Y8064500D02*
G75*
G03*
X21672500Y8064500I-70000J0D01*
G01*
X21965000Y6731500D02*
G75*
G03*
X21965000Y6731500I-70000J0D01*
G01*
X21965000Y6159500D02*
G75*
G03*
X21965000Y6159500I-70000J0D01*
G01*
X22148750Y2921500D02*
G75*
G03*
X22148750Y2921500I-70000J0D01*
G01*
X22148750Y2349500D02*
G75*
G03*
X22148750Y2349500I-70000J0D01*
G01*
X22441250Y4826500D02*
G75*
G03*
X22441250Y4826500I-70000J0D01*
G01*
X22441250Y4254500D02*
G75*
G03*
X22441250Y4254500I-70000J0D01*
G01*
X22625000Y6731500D02*
G75*
G03*
X22625000Y6731500I-70000J0D01*
G01*
X22625000Y6159500D02*
G75*
G03*
X22625000Y6159500I-70000J0D01*
G01*
X22917500Y8636500D02*
G75*
G03*
X22917500Y8636500I-70000J0D01*
G01*
X22917500Y8064500D02*
G75*
G03*
X22917500Y8064500I-70000J0D01*
G01*
X23101250Y4826500D02*
G75*
G03*
X23101250Y4826500I-70000J0D01*
G01*
X23101250Y4254500D02*
G75*
G03*
X23101250Y4254500I-70000J0D01*
G01*
X23393750Y2921500D02*
G75*
G03*
X23393750Y2921500I-70000J0D01*
G01*
X23393750Y2349500D02*
G75*
G03*
X23393750Y2349500I-70000J0D01*
G01*
X23393750Y1016500D02*
G75*
G03*
X23393750Y1016500I-70000J0D01*
G01*
X23393750Y444500D02*
G75*
G03*
X23393750Y444500I-70000J0D01*
G01*
X23577500Y8636500D02*
G75*
G03*
X23577500Y8636500I-70000J0D01*
G01*
X23577500Y8064500D02*
G75*
G03*
X23577500Y8064500I-70000J0D01*
G01*
X23870000Y6731500D02*
G75*
G03*
X23870000Y6731500I-70000J0D01*
G01*
X23870000Y6159500D02*
G75*
G03*
X23870000Y6159500I-70000J0D01*
G01*
X24053750Y2921500D02*
G75*
G03*
X24053750Y2921500I-70000J0D01*
G01*
X24053750Y2349500D02*
G75*
G03*
X24053750Y2349500I-70000J0D01*
G01*
X24053750Y1016500D02*
G75*
G03*
X24053750Y1016500I-70000J0D01*
G01*
X24053750Y444500D02*
G75*
G03*
X24053750Y444500I-70000J0D01*
G01*
X24346250Y4826500D02*
G75*
G03*
X24346250Y4826500I-70000J0D01*
G01*
X24346250Y4254500D02*
G75*
G03*
X24346250Y4254500I-70000J0D01*
G01*
X24530000Y6731500D02*
G75*
G03*
X24530000Y6731500I-70000J0D01*
G01*
X24530000Y6159500D02*
G75*
G03*
X24530000Y6159500I-70000J0D01*
G01*
X24822500Y8636500D02*
G75*
G03*
X24822500Y8636500I-70000J0D01*
G01*
X24822500Y8064500D02*
G75*
G03*
X24822500Y8064500I-70000J0D01*
G01*
X25006250Y4826500D02*
G75*
G03*
X25006250Y4826500I-70000J0D01*
G01*
X25006250Y4254500D02*
G75*
G03*
X25006250Y4254500I-70000J0D01*
G01*
X25482500Y8636500D02*
G75*
G03*
X25482500Y8636500I-70000J0D01*
G01*
X25482500Y8064500D02*
G75*
G03*
X25482500Y8064500I-70000J0D01*
G01*
X25775000Y6731500D02*
G75*
G03*
X25775000Y6731500I-70000J0D01*
G01*
X25775000Y6159500D02*
G75*
G03*
X25775000Y6159500I-70000J0D01*
G01*
X25775000Y1016500D02*
G75*
G03*
X25775000Y1016500I-70000J0D01*
G01*
X25775000Y444500D02*
G75*
G03*
X25775000Y444500I-70000J0D01*
G01*
X26251250Y4826500D02*
G75*
G03*
X26251250Y4826500I-70000J0D01*
G01*
X26251250Y4254500D02*
G75*
G03*
X26251250Y4254500I-70000J0D01*
G01*
X26435000Y6731500D02*
G75*
G03*
X26435000Y6731500I-70000J0D01*
G01*
X26435000Y6159500D02*
G75*
G03*
X26435000Y6159500I-70000J0D01*
G01*
X26435000Y1016500D02*
G75*
G03*
X26435000Y1016500I-70000J0D01*
G01*
X26435000Y444500D02*
G75*
G03*
X26435000Y444500I-70000J0D01*
G01*
X26911250Y4826500D02*
G75*
G03*
X26911250Y4826500I-70000J0D01*
G01*
X26911250Y4254500D02*
G75*
G03*
X26911250Y4254500I-70000J0D01*
G01*
X26965625Y2921500D02*
G75*
G03*
X26965625Y2921500I-70000J0D01*
G01*
X26965625Y2349500D02*
G75*
G03*
X26965625Y2349500I-70000J0D01*
G01*
X27625625Y2921500D02*
G75*
G03*
X27625625Y2921500I-70000J0D01*
G01*
X27625625Y2349500D02*
G75*
G03*
X27625625Y2349500I-70000J0D01*
G01*
X27680000Y8636500D02*
G75*
G03*
X27680000Y8636500I-70000J0D01*
G01*
X27680000Y8064500D02*
G75*
G03*
X27680000Y8064500I-70000J0D01*
G01*
X27946000Y6045000D02*
G75*
G03*
X27946000Y6045000I-70000J0D01*
G01*
X27946000Y5385000D02*
G75*
G03*
X27946000Y5385000I-70000J0D01*
G01*
X28156250Y1016500D02*
G75*
G03*
X28156250Y1016500I-70000J0D01*
G01*
X28156250Y444500D02*
G75*
G03*
X28156250Y444500I-70000J0D01*
G01*
X28340000Y8636500D02*
G75*
G03*
X28340000Y8636500I-70000J0D01*
G01*
X28340000Y8064500D02*
G75*
G03*
X28340000Y8064500I-70000J0D01*
G01*
X28518000Y6045000D02*
G75*
G03*
X28518000Y6045000I-70000J0D01*
G01*
X28518000Y5385000D02*
G75*
G03*
X28518000Y5385000I-70000J0D01*
G01*
X28660375Y6045000D02*
G75*
G03*
X28660375Y6045000I-70000J0D01*
G01*
X28660375Y5385000D02*
G75*
G03*
X28660375Y5385000I-70000J0D01*
G01*
X28816250Y1016500D02*
G75*
G03*
X28816250Y1016500I-70000J0D01*
G01*
X28816250Y444500D02*
G75*
G03*
X28816250Y444500I-70000J0D01*
G01*
X29232375Y6045000D02*
G75*
G03*
X29232375Y6045000I-70000J0D01*
G01*
X29232375Y5385000D02*
G75*
G03*
X29232375Y5385000I-70000J0D01*
G01*
D13*
X14127500Y4917468D02*
X14127500Y4667532D01*
X14002532Y4792500D02*
X14252468Y4792500D01*
D10*
X14002405Y4677532D02*
X14252595Y4677532D01*
X14002405Y4907468D02*
X14252595Y4907468D01*
X14252595Y4677532D02*
G75*
G03*
X14252595Y4907468I0J114968D01*
G01*
X14002405Y4907468D02*
G75*
G03*
X14002405Y4677532I0J-114968D01*
G01*
D13*
X20357500Y1097468D02*
X20357500Y847532D01*
X20232532Y972500D02*
X20482468Y972500D01*
D10*
X20232405Y857532D02*
X20482595Y857532D01*
X20232405Y1087468D02*
X20482595Y1087468D01*
X20482595Y857532D02*
G75*
G03*
X20482595Y1087468I0J114968D01*
G01*
X20232405Y1087468D02*
G75*
G03*
X20232405Y857532I0J-114968D01*
G01*
D13*
X27312500Y6827468D02*
X27312500Y6577532D01*
X27187532Y6702500D02*
X27437468Y6702500D01*
D10*
X27187405Y6587532D02*
X27437595Y6587532D01*
X27187405Y6817468D02*
X27437595Y6817468D01*
X27437595Y6587532D02*
G75*
G03*
X27437595Y6817468I0J114968D01*
G01*
X27187405Y6817468D02*
G75*
G03*
X27187405Y6587532I0J-114968D01*
G01*
D14*
X3915868Y6614132D02*
X3915868Y6790868D01*
X3739132Y6790868D01*
X3739132Y6614132D01*
X3915868Y6614132D01*
D10*
X1550119Y-292976D02*
X1550119Y-92976D01*
X1597738Y-92976D01*
X1626309Y-102500D01*
X1645357Y-121548D01*
X1654881Y-140595D01*
X1664405Y-178690D01*
X1664405Y-207262D01*
X1654881Y-245357D01*
X1645357Y-264405D01*
X1626309Y-283452D01*
X1597738Y-292976D01*
X1550119Y-292976D01*
X1750119Y-292976D02*
X1750119Y-159643D01*
X1750119Y-197738D02*
X1759643Y-178690D01*
X1769167Y-169167D01*
X1788214Y-159643D01*
X1807262Y-159643D01*
X1873928Y-292976D02*
X1873928Y-159643D01*
X1873928Y-92976D02*
X1864405Y-102500D01*
X1873928Y-112024D01*
X1883452Y-102500D01*
X1873928Y-92976D01*
X1873928Y-112024D01*
X1997738Y-292976D02*
X1978690Y-283452D01*
X1969167Y-264405D01*
X1969167Y-92976D01*
X2102500Y-292976D02*
X2083452Y-283452D01*
X2073928Y-264405D01*
X2073928Y-92976D01*
X2331071Y-292976D02*
X2331071Y-92976D01*
X2397738Y-235833D01*
X2464405Y-92976D01*
X2464405Y-292976D01*
X2645357Y-292976D02*
X2645357Y-188214D01*
X2635833Y-169167D01*
X2616786Y-159643D01*
X2578690Y-159643D01*
X2559643Y-169167D01*
X2645357Y-283452D02*
X2626310Y-292976D01*
X2578690Y-292976D01*
X2559643Y-283452D01*
X2550119Y-264405D01*
X2550119Y-245357D01*
X2559643Y-226309D01*
X2578690Y-216786D01*
X2626310Y-216786D01*
X2645357Y-207262D01*
X2740595Y-159643D02*
X2740595Y-359643D01*
X2740595Y-169167D02*
X2759643Y-159643D01*
X2797738Y-159643D01*
X2816786Y-169167D01*
X2826309Y-178690D01*
X2835833Y-197738D01*
X2835833Y-254881D01*
X2826309Y-273929D01*
X2816786Y-283452D01*
X2797738Y-292976D01*
X2759643Y-292976D01*
X2740595Y-283452D01*
X2921548Y-273929D02*
X2931071Y-283452D01*
X2921548Y-292976D01*
X2912024Y-283452D01*
X2921548Y-273929D01*
X2921548Y-292976D01*
X2921548Y-169167D02*
X2931071Y-178690D01*
X2921548Y-188214D01*
X2912024Y-178690D01*
X2921548Y-169167D01*
X2921548Y-188214D01*
D11*
X1252500Y-602500D02*
X1292500Y-642500D01*
X1292500Y-602500D02*
X1252500Y-642500D01*
D10*
X1588214Y-512976D02*
X1607262Y-512976D01*
X1626309Y-522500D01*
X1635833Y-532024D01*
X1645357Y-551071D01*
X1654881Y-589167D01*
X1654881Y-636786D01*
X1645357Y-674881D01*
X1635833Y-693929D01*
X1626309Y-703452D01*
X1607262Y-712976D01*
X1588214Y-712976D01*
X1569167Y-703452D01*
X1559643Y-693929D01*
X1550119Y-674881D01*
X1540595Y-636786D01*
X1540595Y-589167D01*
X1550119Y-551071D01*
X1559643Y-532024D01*
X1569167Y-522500D01*
X1588214Y-512976D01*
X1740595Y-693929D02*
X1750119Y-703452D01*
X1740595Y-712976D01*
X1731071Y-703452D01*
X1740595Y-693929D01*
X1740595Y-712976D01*
X1921548Y-579643D02*
X1921548Y-712976D01*
X1873928Y-503452D02*
X1826309Y-646310D01*
X1950119Y-646310D01*
X2064405Y-512976D02*
X2083452Y-512976D01*
X2102500Y-522500D01*
X2112024Y-532024D01*
X2121548Y-551071D01*
X2131071Y-589167D01*
X2131071Y-636786D01*
X2121548Y-674881D01*
X2112024Y-693929D01*
X2102500Y-703452D01*
X2083452Y-712976D01*
X2064405Y-712976D01*
X2045357Y-703452D01*
X2035833Y-693929D01*
X2026309Y-674881D01*
X2016786Y-636786D01*
X2016786Y-589167D01*
X2026309Y-551071D01*
X2035833Y-532024D01*
X2045357Y-522500D01*
X2064405Y-512976D01*
X2254881Y-512976D02*
X2273929Y-512976D01*
X2292976Y-522500D01*
X2302500Y-532024D01*
X2312024Y-551071D01*
X2321548Y-589167D01*
X2321548Y-636786D01*
X2312024Y-674881D01*
X2302500Y-693929D01*
X2292976Y-703452D01*
X2273929Y-712976D01*
X2254881Y-712976D01*
X2235833Y-703452D01*
X2226310Y-693929D01*
X2216786Y-674881D01*
X2207262Y-636786D01*
X2207262Y-589167D01*
X2216786Y-551071D01*
X2226310Y-532024D01*
X2235833Y-522500D01*
X2254881Y-512976D01*
X2407262Y-712976D02*
X2407262Y-579643D01*
X2407262Y-598690D02*
X2416786Y-589167D01*
X2435833Y-579643D01*
X2464405Y-579643D01*
X2483452Y-589167D01*
X2492976Y-608214D01*
X2492976Y-712976D01*
X2492976Y-608214D02*
X2502500Y-589167D01*
X2521548Y-579643D01*
X2550119Y-579643D01*
X2569167Y-589167D01*
X2578690Y-608214D01*
X2578690Y-712976D01*
X2673929Y-712976D02*
X2673929Y-579643D01*
X2673929Y-598690D02*
X2683452Y-589167D01*
X2702500Y-579643D01*
X2731071Y-579643D01*
X2750119Y-589167D01*
X2759643Y-608214D01*
X2759643Y-712976D01*
X2759643Y-608214D02*
X2769167Y-589167D01*
X2788214Y-579643D01*
X2816786Y-579643D01*
X2835833Y-589167D01*
X2845357Y-608214D01*
X2845357Y-712976D01*
X3235833Y-503452D02*
X3064405Y-760595D01*
X3492976Y-512976D02*
X3512024Y-512976D01*
X3531071Y-522500D01*
X3540595Y-532024D01*
X3550119Y-551071D01*
X3559643Y-589167D01*
X3559643Y-636786D01*
X3550119Y-674881D01*
X3540595Y-693929D01*
X3531071Y-703452D01*
X3512024Y-712976D01*
X3492976Y-712976D01*
X3473928Y-703452D01*
X3464405Y-693929D01*
X3454881Y-674881D01*
X3445357Y-636786D01*
X3445357Y-589167D01*
X3454881Y-551071D01*
X3464405Y-532024D01*
X3473928Y-522500D01*
X3492976Y-512976D01*
X3645357Y-693929D02*
X3654881Y-703452D01*
X3645357Y-712976D01*
X3635833Y-703452D01*
X3645357Y-693929D01*
X3645357Y-712976D01*
X3778690Y-512976D02*
X3797738Y-512976D01*
X3816786Y-522500D01*
X3826309Y-532024D01*
X3835833Y-551071D01*
X3845357Y-589167D01*
X3845357Y-636786D01*
X3835833Y-674881D01*
X3826309Y-693929D01*
X3816786Y-703452D01*
X3797738Y-712976D01*
X3778690Y-712976D01*
X3759643Y-703452D01*
X3750119Y-693929D01*
X3740595Y-674881D01*
X3731071Y-636786D01*
X3731071Y-589167D01*
X3740595Y-551071D01*
X3750119Y-532024D01*
X3759643Y-522500D01*
X3778690Y-512976D01*
X4035833Y-712976D02*
X3921548Y-712976D01*
X3978690Y-712976D02*
X3978690Y-512976D01*
X3959643Y-541548D01*
X3940595Y-560595D01*
X3921548Y-570119D01*
X4216786Y-512976D02*
X4121548Y-512976D01*
X4112024Y-608214D01*
X4121548Y-598690D01*
X4140595Y-589167D01*
X4188214Y-589167D01*
X4207262Y-598690D01*
X4216786Y-608214D01*
X4226310Y-627262D01*
X4226310Y-674881D01*
X4216786Y-693929D01*
X4207262Y-703452D01*
X4188214Y-712976D01*
X4140595Y-712976D01*
X4121548Y-703452D01*
X4112024Y-693929D01*
X4292976Y-512976D02*
X4426310Y-512976D01*
X4340595Y-712976D01*
X4492976Y-512976D02*
X4492976Y-551071D01*
X4569167Y-512976D02*
X4569167Y-551071D01*
X4864405Y-789167D02*
X4854881Y-779643D01*
X4835833Y-751071D01*
X4826310Y-732024D01*
X4816786Y-703452D01*
X4807262Y-655833D01*
X4807262Y-617738D01*
X4816786Y-570119D01*
X4826310Y-541548D01*
X4835833Y-522500D01*
X4854881Y-493928D01*
X4864405Y-484405D01*
X5045357Y-712976D02*
X4931071Y-712976D01*
X4988214Y-712976D02*
X4988214Y-512976D01*
X4969167Y-541548D01*
X4950119Y-560595D01*
X4931071Y-570119D01*
X5235833Y-712976D02*
X5121548Y-712976D01*
X5178690Y-712976D02*
X5178690Y-512976D01*
X5159643Y-541548D01*
X5140595Y-560595D01*
X5121548Y-570119D01*
X5473929Y-712976D02*
X5473929Y-512976D01*
X5559643Y-712976D02*
X5559643Y-608214D01*
X5550119Y-589167D01*
X5531071Y-579643D01*
X5502500Y-579643D01*
X5483452Y-589167D01*
X5473929Y-598690D01*
X5683452Y-712976D02*
X5664405Y-703452D01*
X5654881Y-693929D01*
X5645357Y-674881D01*
X5645357Y-617738D01*
X5654881Y-598690D01*
X5664405Y-589167D01*
X5683452Y-579643D01*
X5712024Y-579643D01*
X5731071Y-589167D01*
X5740595Y-598690D01*
X5750119Y-617738D01*
X5750119Y-674881D01*
X5740595Y-693929D01*
X5731071Y-703452D01*
X5712024Y-712976D01*
X5683452Y-712976D01*
X5864405Y-712976D02*
X5845357Y-703452D01*
X5835833Y-684405D01*
X5835833Y-512976D01*
X6016786Y-703452D02*
X5997738Y-712976D01*
X5959643Y-712976D01*
X5940595Y-703452D01*
X5931071Y-684405D01*
X5931071Y-608214D01*
X5940595Y-589167D01*
X5959643Y-579643D01*
X5997738Y-579643D01*
X6016786Y-589167D01*
X6026309Y-608214D01*
X6026309Y-627262D01*
X5931071Y-646310D01*
X6102500Y-703452D02*
X6121548Y-712976D01*
X6159643Y-712976D01*
X6178690Y-703452D01*
X6188214Y-684405D01*
X6188214Y-674881D01*
X6178690Y-655833D01*
X6159643Y-646310D01*
X6131071Y-646310D01*
X6112024Y-636786D01*
X6102500Y-617738D01*
X6102500Y-608214D01*
X6112024Y-589167D01*
X6131071Y-579643D01*
X6159643Y-579643D01*
X6178690Y-589167D01*
X6254881Y-789167D02*
X6264405Y-779643D01*
X6283452Y-751071D01*
X6292976Y-732024D01*
X6302500Y-703452D01*
X6312024Y-655833D01*
X6312024Y-617738D01*
X6302500Y-570119D01*
X6292976Y-541548D01*
X6283452Y-522500D01*
X6264405Y-493928D01*
X6254881Y-484405D01*
D12*
X1292500Y-886500D02*
G75*
G03*
X1292500Y-886500I-70000J0D01*
G01*
D10*
X1654881Y-976976D02*
X1540595Y-976976D01*
X1597738Y-976976D02*
X1597738Y-776976D01*
X1578690Y-805548D01*
X1559643Y-824595D01*
X1540595Y-834119D01*
X1740595Y-957928D02*
X1750119Y-967452D01*
X1740595Y-976976D01*
X1731071Y-967452D01*
X1740595Y-957928D01*
X1740595Y-976976D01*
X1921548Y-843643D02*
X1921548Y-976976D01*
X1873928Y-767452D02*
X1826309Y-910309D01*
X1950119Y-910309D01*
X2064405Y-776976D02*
X2083452Y-776976D01*
X2102500Y-786500D01*
X2112024Y-796024D01*
X2121548Y-815071D01*
X2131071Y-853167D01*
X2131071Y-900786D01*
X2121548Y-938881D01*
X2112024Y-957928D01*
X2102500Y-967452D01*
X2083452Y-976976D01*
X2064405Y-976976D01*
X2045357Y-967452D01*
X2035833Y-957928D01*
X2026309Y-938881D01*
X2016786Y-900786D01*
X2016786Y-853167D01*
X2026309Y-815071D01*
X2035833Y-796024D01*
X2045357Y-786500D01*
X2064405Y-776976D01*
X2254881Y-776976D02*
X2273929Y-776976D01*
X2292976Y-786500D01*
X2302500Y-796024D01*
X2312024Y-815071D01*
X2321548Y-853167D01*
X2321548Y-900786D01*
X2312024Y-938881D01*
X2302500Y-957928D01*
X2292976Y-967452D01*
X2273929Y-976976D01*
X2254881Y-976976D01*
X2235833Y-967452D01*
X2226310Y-957928D01*
X2216786Y-938881D01*
X2207262Y-900786D01*
X2207262Y-853167D01*
X2216786Y-815071D01*
X2226310Y-796024D01*
X2235833Y-786500D01*
X2254881Y-776976D01*
X2407262Y-976976D02*
X2407262Y-843643D01*
X2407262Y-862690D02*
X2416786Y-853167D01*
X2435833Y-843643D01*
X2464405Y-843643D01*
X2483452Y-853167D01*
X2492976Y-872214D01*
X2492976Y-976976D01*
X2492976Y-872214D02*
X2502500Y-853167D01*
X2521548Y-843643D01*
X2550119Y-843643D01*
X2569167Y-853167D01*
X2578690Y-872214D01*
X2578690Y-976976D01*
X2673929Y-976976D02*
X2673929Y-843643D01*
X2673929Y-862690D02*
X2683452Y-853167D01*
X2702500Y-843643D01*
X2731071Y-843643D01*
X2750119Y-853167D01*
X2759643Y-872214D01*
X2759643Y-976976D01*
X2759643Y-872214D02*
X2769167Y-853167D01*
X2788214Y-843643D01*
X2816786Y-843643D01*
X2835833Y-853167D01*
X2845357Y-872214D01*
X2845357Y-976976D01*
X3235833Y-767452D02*
X3064405Y-1024595D01*
X3492976Y-776976D02*
X3512024Y-776976D01*
X3531071Y-786500D01*
X3540595Y-796024D01*
X3550119Y-815071D01*
X3559643Y-853167D01*
X3559643Y-900786D01*
X3550119Y-938881D01*
X3540595Y-957928D01*
X3531071Y-967452D01*
X3512024Y-976976D01*
X3492976Y-976976D01*
X3473928Y-967452D01*
X3464405Y-957928D01*
X3454881Y-938881D01*
X3445357Y-900786D01*
X3445357Y-853167D01*
X3454881Y-815071D01*
X3464405Y-796024D01*
X3473928Y-786500D01*
X3492976Y-776976D01*
X3645357Y-957928D02*
X3654881Y-967452D01*
X3645357Y-976976D01*
X3635833Y-967452D01*
X3645357Y-957928D01*
X3645357Y-976976D01*
X3778690Y-776976D02*
X3797738Y-776976D01*
X3816786Y-786500D01*
X3826309Y-796024D01*
X3835833Y-815071D01*
X3845357Y-853167D01*
X3845357Y-900786D01*
X3835833Y-938881D01*
X3826309Y-957928D01*
X3816786Y-967452D01*
X3797738Y-976976D01*
X3778690Y-976976D01*
X3759643Y-967452D01*
X3750119Y-957928D01*
X3740595Y-938881D01*
X3731071Y-900786D01*
X3731071Y-853167D01*
X3740595Y-815071D01*
X3750119Y-796024D01*
X3759643Y-786500D01*
X3778690Y-776976D01*
X4026309Y-776976D02*
X3931071Y-776976D01*
X3921548Y-872214D01*
X3931071Y-862690D01*
X3950119Y-853167D01*
X3997738Y-853167D01*
X4016786Y-862690D01*
X4026309Y-872214D01*
X4035833Y-891262D01*
X4035833Y-938881D01*
X4026309Y-957928D01*
X4016786Y-967452D01*
X3997738Y-976976D01*
X3950119Y-976976D01*
X3931071Y-967452D01*
X3921548Y-957928D01*
X4216786Y-776976D02*
X4121548Y-776976D01*
X4112024Y-872214D01*
X4121548Y-862690D01*
X4140595Y-853167D01*
X4188214Y-853167D01*
X4207262Y-862690D01*
X4216786Y-872214D01*
X4226310Y-891262D01*
X4226310Y-938881D01*
X4216786Y-957928D01*
X4207262Y-967452D01*
X4188214Y-976976D01*
X4140595Y-976976D01*
X4121548Y-967452D01*
X4112024Y-957928D01*
X4416786Y-976976D02*
X4302500Y-976976D01*
X4359643Y-976976D02*
X4359643Y-776976D01*
X4340595Y-805548D01*
X4321548Y-824595D01*
X4302500Y-834119D01*
X4492976Y-776976D02*
X4492976Y-815071D01*
X4569167Y-776976D02*
X4569167Y-815071D01*
X4864405Y-1053167D02*
X4854881Y-1043643D01*
X4835833Y-1015071D01*
X4826310Y-996024D01*
X4816786Y-967452D01*
X4807262Y-919833D01*
X4807262Y-881738D01*
X4816786Y-834119D01*
X4826310Y-805548D01*
X4835833Y-786500D01*
X4854881Y-757928D01*
X4864405Y-748405D01*
X4931071Y-796024D02*
X4940595Y-786500D01*
X4959643Y-776976D01*
X5007262Y-776976D01*
X5026310Y-786500D01*
X5035833Y-796024D01*
X5045357Y-815071D01*
X5045357Y-834119D01*
X5035833Y-862690D01*
X4921548Y-976976D01*
X5045357Y-976976D01*
X5216786Y-843643D02*
X5216786Y-976976D01*
X5169167Y-767452D02*
X5121548Y-910309D01*
X5245357Y-910309D01*
X5407262Y-843643D02*
X5407262Y-976976D01*
X5359643Y-767452D02*
X5312024Y-910309D01*
X5435833Y-910309D01*
X5664405Y-976976D02*
X5664405Y-776976D01*
X5750119Y-976976D02*
X5750119Y-872214D01*
X5740595Y-853167D01*
X5721548Y-843643D01*
X5692976Y-843643D01*
X5673928Y-853167D01*
X5664405Y-862690D01*
X5873928Y-976976D02*
X5854881Y-967452D01*
X5845357Y-957928D01*
X5835833Y-938881D01*
X5835833Y-881738D01*
X5845357Y-862690D01*
X5854881Y-853167D01*
X5873928Y-843643D01*
X5902500Y-843643D01*
X5921548Y-853167D01*
X5931071Y-862690D01*
X5940595Y-881738D01*
X5940595Y-938881D01*
X5931071Y-957928D01*
X5921548Y-967452D01*
X5902500Y-976976D01*
X5873928Y-976976D01*
X6054881Y-976976D02*
X6035833Y-967452D01*
X6026309Y-948405D01*
X6026309Y-776976D01*
X6207262Y-967452D02*
X6188214Y-976976D01*
X6150119Y-976976D01*
X6131071Y-967452D01*
X6121548Y-948405D01*
X6121548Y-872214D01*
X6131071Y-853167D01*
X6150119Y-843643D01*
X6188214Y-843643D01*
X6207262Y-853167D01*
X6216786Y-872214D01*
X6216786Y-891262D01*
X6121548Y-910309D01*
X6292976Y-967452D02*
X6312024Y-976976D01*
X6350119Y-976976D01*
X6369167Y-967452D01*
X6378690Y-948405D01*
X6378690Y-938881D01*
X6369167Y-919833D01*
X6350119Y-910309D01*
X6321548Y-910309D01*
X6302500Y-900786D01*
X6292976Y-881738D01*
X6292976Y-872214D01*
X6302500Y-853167D01*
X6321548Y-843643D01*
X6350119Y-843643D01*
X6369167Y-853167D01*
X6445357Y-1053167D02*
X6454881Y-1043643D01*
X6473928Y-1015071D01*
X6483452Y-996024D01*
X6492976Y-967452D01*
X6502500Y-919833D01*
X6502500Y-881738D01*
X6492976Y-834119D01*
X6483452Y-805548D01*
X6473928Y-786500D01*
X6454881Y-757928D01*
X6445357Y-748405D01*
X1192500Y-1050500D02*
X1192500Y-1250500D01*
X1092500Y-1150500D02*
X1292500Y-1150500D01*
X1540595Y-1060024D02*
X1550119Y-1050500D01*
X1569167Y-1040976D01*
X1616786Y-1040976D01*
X1635833Y-1050500D01*
X1645357Y-1060024D01*
X1654881Y-1079071D01*
X1654881Y-1098119D01*
X1645357Y-1126690D01*
X1531071Y-1240976D01*
X1654881Y-1240976D01*
X1740595Y-1221929D02*
X1750119Y-1231452D01*
X1740595Y-1240976D01*
X1731071Y-1231452D01*
X1740595Y-1221929D01*
X1740595Y-1240976D01*
X1921548Y-1107643D02*
X1921548Y-1240976D01*
X1873928Y-1031452D02*
X1826309Y-1174310D01*
X1950119Y-1174310D01*
X2035833Y-1240976D02*
X2073928Y-1240976D01*
X2092976Y-1231452D01*
X2102500Y-1221929D01*
X2121548Y-1193357D01*
X2131071Y-1155262D01*
X2131071Y-1079071D01*
X2121548Y-1060024D01*
X2112024Y-1050500D01*
X2092976Y-1040976D01*
X2054881Y-1040976D01*
X2035833Y-1050500D01*
X2026309Y-1060024D01*
X2016786Y-1079071D01*
X2016786Y-1126690D01*
X2026309Y-1145738D01*
X2035833Y-1155262D01*
X2054881Y-1164786D01*
X2092976Y-1164786D01*
X2112024Y-1155262D01*
X2121548Y-1145738D01*
X2131071Y-1126690D01*
X2226310Y-1240976D02*
X2264405Y-1240976D01*
X2283452Y-1231452D01*
X2292976Y-1221929D01*
X2312024Y-1193357D01*
X2321548Y-1155262D01*
X2321548Y-1079071D01*
X2312024Y-1060024D01*
X2302500Y-1050500D01*
X2283452Y-1040976D01*
X2245357Y-1040976D01*
X2226310Y-1050500D01*
X2216786Y-1060024D01*
X2207262Y-1079071D01*
X2207262Y-1126690D01*
X2216786Y-1145738D01*
X2226310Y-1155262D01*
X2245357Y-1164786D01*
X2283452Y-1164786D01*
X2302500Y-1155262D01*
X2312024Y-1145738D01*
X2321548Y-1126690D01*
X2407262Y-1240976D02*
X2407262Y-1107643D01*
X2407262Y-1126690D02*
X2416786Y-1117167D01*
X2435833Y-1107643D01*
X2464405Y-1107643D01*
X2483452Y-1117167D01*
X2492976Y-1136214D01*
X2492976Y-1240976D01*
X2492976Y-1136214D02*
X2502500Y-1117167D01*
X2521548Y-1107643D01*
X2550119Y-1107643D01*
X2569167Y-1117167D01*
X2578690Y-1136214D01*
X2578690Y-1240976D01*
X2673929Y-1240976D02*
X2673929Y-1107643D01*
X2673929Y-1126690D02*
X2683452Y-1117167D01*
X2702500Y-1107643D01*
X2731071Y-1107643D01*
X2750119Y-1117167D01*
X2759643Y-1136214D01*
X2759643Y-1240976D01*
X2759643Y-1136214D02*
X2769167Y-1117167D01*
X2788214Y-1107643D01*
X2816786Y-1107643D01*
X2835833Y-1117167D01*
X2845357Y-1136214D01*
X2845357Y-1240976D01*
X3235833Y-1031452D02*
X3064405Y-1288595D01*
X3492976Y-1040976D02*
X3512024Y-1040976D01*
X3531071Y-1050500D01*
X3540595Y-1060024D01*
X3550119Y-1079071D01*
X3559643Y-1117167D01*
X3559643Y-1164786D01*
X3550119Y-1202881D01*
X3540595Y-1221929D01*
X3531071Y-1231452D01*
X3512024Y-1240976D01*
X3492976Y-1240976D01*
X3473928Y-1231452D01*
X3464405Y-1221929D01*
X3454881Y-1202881D01*
X3445357Y-1164786D01*
X3445357Y-1117167D01*
X3454881Y-1079071D01*
X3464405Y-1060024D01*
X3473928Y-1050500D01*
X3492976Y-1040976D01*
X3645357Y-1221929D02*
X3654881Y-1231452D01*
X3645357Y-1240976D01*
X3635833Y-1231452D01*
X3645357Y-1221929D01*
X3645357Y-1240976D01*
X3778690Y-1040976D02*
X3797738Y-1040976D01*
X3816786Y-1050500D01*
X3826309Y-1060024D01*
X3835833Y-1079071D01*
X3845357Y-1117167D01*
X3845357Y-1164786D01*
X3835833Y-1202881D01*
X3826309Y-1221929D01*
X3816786Y-1231452D01*
X3797738Y-1240976D01*
X3778690Y-1240976D01*
X3759643Y-1231452D01*
X3750119Y-1221929D01*
X3740595Y-1202881D01*
X3731071Y-1164786D01*
X3731071Y-1117167D01*
X3740595Y-1079071D01*
X3750119Y-1060024D01*
X3759643Y-1050500D01*
X3778690Y-1040976D01*
X3940595Y-1240976D02*
X3978690Y-1240976D01*
X3997738Y-1231452D01*
X4007262Y-1221929D01*
X4026309Y-1193357D01*
X4035833Y-1155262D01*
X4035833Y-1079071D01*
X4026309Y-1060024D01*
X4016786Y-1050500D01*
X3997738Y-1040976D01*
X3959643Y-1040976D01*
X3940595Y-1050500D01*
X3931071Y-1060024D01*
X3921548Y-1079071D01*
X3921548Y-1126690D01*
X3931071Y-1145738D01*
X3940595Y-1155262D01*
X3959643Y-1164786D01*
X3997738Y-1164786D01*
X4016786Y-1155262D01*
X4026309Y-1145738D01*
X4035833Y-1126690D01*
X4150119Y-1126690D02*
X4131071Y-1117167D01*
X4121548Y-1107643D01*
X4112024Y-1088595D01*
X4112024Y-1079071D01*
X4121548Y-1060024D01*
X4131071Y-1050500D01*
X4150119Y-1040976D01*
X4188214Y-1040976D01*
X4207262Y-1050500D01*
X4216786Y-1060024D01*
X4226310Y-1079071D01*
X4226310Y-1088595D01*
X4216786Y-1107643D01*
X4207262Y-1117167D01*
X4188214Y-1126690D01*
X4150119Y-1126690D01*
X4131071Y-1136214D01*
X4121548Y-1145738D01*
X4112024Y-1164786D01*
X4112024Y-1202881D01*
X4121548Y-1221929D01*
X4131071Y-1231452D01*
X4150119Y-1240976D01*
X4188214Y-1240976D01*
X4207262Y-1231452D01*
X4216786Y-1221929D01*
X4226310Y-1202881D01*
X4226310Y-1164786D01*
X4216786Y-1145738D01*
X4207262Y-1136214D01*
X4188214Y-1126690D01*
X4397738Y-1107643D02*
X4397738Y-1240976D01*
X4350119Y-1031452D02*
X4302500Y-1174310D01*
X4426310Y-1174310D01*
X4492976Y-1040976D02*
X4492976Y-1079071D01*
X4569167Y-1040976D02*
X4569167Y-1079071D01*
X4864405Y-1317167D02*
X4854881Y-1307643D01*
X4835833Y-1279071D01*
X4826310Y-1260024D01*
X4816786Y-1231452D01*
X4807262Y-1183833D01*
X4807262Y-1145738D01*
X4816786Y-1098119D01*
X4826310Y-1069548D01*
X4835833Y-1050500D01*
X4854881Y-1021928D01*
X4864405Y-1012405D01*
X4978690Y-1040976D02*
X4997738Y-1040976D01*
X5016786Y-1050500D01*
X5026310Y-1060024D01*
X5035833Y-1079071D01*
X5045357Y-1117167D01*
X5045357Y-1164786D01*
X5035833Y-1202881D01*
X5026310Y-1221929D01*
X5016786Y-1231452D01*
X4997738Y-1240976D01*
X4978690Y-1240976D01*
X4959643Y-1231452D01*
X4950119Y-1221929D01*
X4940595Y-1202881D01*
X4931071Y-1164786D01*
X4931071Y-1117167D01*
X4940595Y-1079071D01*
X4950119Y-1060024D01*
X4959643Y-1050500D01*
X4978690Y-1040976D01*
X5283452Y-1240976D02*
X5283452Y-1040976D01*
X5369167Y-1240976D02*
X5369167Y-1136214D01*
X5359643Y-1117167D01*
X5340595Y-1107643D01*
X5312024Y-1107643D01*
X5292976Y-1117167D01*
X5283452Y-1126690D01*
X5492976Y-1240976D02*
X5473929Y-1231452D01*
X5464405Y-1221929D01*
X5454881Y-1202881D01*
X5454881Y-1145738D01*
X5464405Y-1126690D01*
X5473929Y-1117167D01*
X5492976Y-1107643D01*
X5521548Y-1107643D01*
X5540595Y-1117167D01*
X5550119Y-1126690D01*
X5559643Y-1145738D01*
X5559643Y-1202881D01*
X5550119Y-1221929D01*
X5540595Y-1231452D01*
X5521548Y-1240976D01*
X5492976Y-1240976D01*
X5673928Y-1240976D02*
X5654881Y-1231452D01*
X5645357Y-1212405D01*
X5645357Y-1040976D01*
X5826309Y-1231452D02*
X5807262Y-1240976D01*
X5769167Y-1240976D01*
X5750119Y-1231452D01*
X5740595Y-1212405D01*
X5740595Y-1136214D01*
X5750119Y-1117167D01*
X5769167Y-1107643D01*
X5807262Y-1107643D01*
X5826309Y-1117167D01*
X5835833Y-1136214D01*
X5835833Y-1155262D01*
X5740595Y-1174310D01*
X5912024Y-1231452D02*
X5931071Y-1240976D01*
X5969167Y-1240976D01*
X5988214Y-1231452D01*
X5997738Y-1212405D01*
X5997738Y-1202881D01*
X5988214Y-1183833D01*
X5969167Y-1174310D01*
X5940595Y-1174310D01*
X5921548Y-1164786D01*
X5912024Y-1145738D01*
X5912024Y-1136214D01*
X5921548Y-1117167D01*
X5940595Y-1107643D01*
X5969167Y-1107643D01*
X5988214Y-1117167D01*
X6235833Y-1164786D02*
X6388214Y-1164786D01*
X6312024Y-1240976D02*
X6312024Y-1088595D01*
X6616786Y-1040976D02*
X6740595Y-1040976D01*
X6673928Y-1117167D01*
X6702500Y-1117167D01*
X6721548Y-1126690D01*
X6731071Y-1136214D01*
X6740595Y-1155262D01*
X6740595Y-1202881D01*
X6731071Y-1221929D01*
X6721548Y-1231452D01*
X6702500Y-1240976D01*
X6645357Y-1240976D01*
X6626309Y-1231452D01*
X6616786Y-1221929D01*
X6969167Y-1231452D02*
X6988214Y-1240976D01*
X7026309Y-1240976D01*
X7045357Y-1231452D01*
X7054881Y-1212405D01*
X7054881Y-1202881D01*
X7045357Y-1183833D01*
X7026309Y-1174310D01*
X6997738Y-1174310D01*
X6978690Y-1164786D01*
X6969167Y-1145738D01*
X6969167Y-1136214D01*
X6978690Y-1117167D01*
X6997738Y-1107643D01*
X7026309Y-1107643D01*
X7045357Y-1117167D01*
X7169167Y-1240976D02*
X7150119Y-1231452D01*
X7140595Y-1212405D01*
X7140595Y-1040976D01*
X7273928Y-1240976D02*
X7254881Y-1231452D01*
X7245357Y-1221929D01*
X7235833Y-1202881D01*
X7235833Y-1145738D01*
X7245357Y-1126690D01*
X7254881Y-1117167D01*
X7273928Y-1107643D01*
X7302500Y-1107643D01*
X7321548Y-1117167D01*
X7331071Y-1126690D01*
X7340595Y-1145738D01*
X7340595Y-1202881D01*
X7331071Y-1221929D01*
X7321548Y-1231452D01*
X7302500Y-1240976D01*
X7273928Y-1240976D01*
X7397738Y-1107643D02*
X7473928Y-1107643D01*
X7426309Y-1040976D02*
X7426309Y-1212405D01*
X7435833Y-1231452D01*
X7454881Y-1240976D01*
X7473928Y-1240976D01*
X7531071Y-1231452D02*
X7550119Y-1240976D01*
X7588214Y-1240976D01*
X7607262Y-1231452D01*
X7616786Y-1212405D01*
X7616786Y-1202881D01*
X7607262Y-1183833D01*
X7588214Y-1174310D01*
X7559643Y-1174310D01*
X7540595Y-1164786D01*
X7531071Y-1145738D01*
X7531071Y-1136214D01*
X7540595Y-1117167D01*
X7559643Y-1107643D01*
X7588214Y-1107643D01*
X7607262Y-1117167D01*
X7683452Y-1317167D02*
X7692976Y-1307643D01*
X7712024Y-1279071D01*
X7721548Y-1260024D01*
X7731071Y-1231452D01*
X7740595Y-1183833D01*
X7740595Y-1145738D01*
X7731071Y-1098119D01*
X7721548Y-1069548D01*
X7712024Y-1050500D01*
X7692976Y-1021928D01*
X7683452Y-1012405D01*
X1263211Y-1541211D02*
X1263211Y-1399789D01*
X1121789Y-1399789D01*
X1121789Y-1541211D01*
X1263211Y-1541211D01*
X1540595Y-1380024D02*
X1550119Y-1370500D01*
X1569167Y-1360976D01*
X1616786Y-1360976D01*
X1635833Y-1370500D01*
X1645357Y-1380024D01*
X1654881Y-1399071D01*
X1654881Y-1418119D01*
X1645357Y-1446690D01*
X1531071Y-1560976D01*
X1654881Y-1560976D01*
X1740595Y-1541928D02*
X1750119Y-1551452D01*
X1740595Y-1560976D01*
X1731071Y-1551452D01*
X1740595Y-1541928D01*
X1740595Y-1560976D01*
X1921548Y-1427643D02*
X1921548Y-1560976D01*
X1873928Y-1351452D02*
X1826309Y-1494309D01*
X1950119Y-1494309D01*
X2035833Y-1560976D02*
X2073928Y-1560976D01*
X2092976Y-1551452D01*
X2102500Y-1541928D01*
X2121548Y-1513357D01*
X2131071Y-1475262D01*
X2131071Y-1399071D01*
X2121548Y-1380024D01*
X2112024Y-1370500D01*
X2092976Y-1360976D01*
X2054881Y-1360976D01*
X2035833Y-1370500D01*
X2026309Y-1380024D01*
X2016786Y-1399071D01*
X2016786Y-1446690D01*
X2026309Y-1465738D01*
X2035833Y-1475262D01*
X2054881Y-1484786D01*
X2092976Y-1484786D01*
X2112024Y-1475262D01*
X2121548Y-1465738D01*
X2131071Y-1446690D01*
X2226310Y-1560976D02*
X2264405Y-1560976D01*
X2283452Y-1551452D01*
X2292976Y-1541928D01*
X2312024Y-1513357D01*
X2321548Y-1475262D01*
X2321548Y-1399071D01*
X2312024Y-1380024D01*
X2302500Y-1370500D01*
X2283452Y-1360976D01*
X2245357Y-1360976D01*
X2226310Y-1370500D01*
X2216786Y-1380024D01*
X2207262Y-1399071D01*
X2207262Y-1446690D01*
X2216786Y-1465738D01*
X2226310Y-1475262D01*
X2245357Y-1484786D01*
X2283452Y-1484786D01*
X2302500Y-1475262D01*
X2312024Y-1465738D01*
X2321548Y-1446690D01*
X2407262Y-1560976D02*
X2407262Y-1427643D01*
X2407262Y-1446690D02*
X2416786Y-1437167D01*
X2435833Y-1427643D01*
X2464405Y-1427643D01*
X2483452Y-1437167D01*
X2492976Y-1456214D01*
X2492976Y-1560976D01*
X2492976Y-1456214D02*
X2502500Y-1437167D01*
X2521548Y-1427643D01*
X2550119Y-1427643D01*
X2569167Y-1437167D01*
X2578690Y-1456214D01*
X2578690Y-1560976D01*
X2673929Y-1560976D02*
X2673929Y-1427643D01*
X2673929Y-1446690D02*
X2683452Y-1437167D01*
X2702500Y-1427643D01*
X2731071Y-1427643D01*
X2750119Y-1437167D01*
X2759643Y-1456214D01*
X2759643Y-1560976D01*
X2759643Y-1456214D02*
X2769167Y-1437167D01*
X2788214Y-1427643D01*
X2816786Y-1427643D01*
X2835833Y-1437167D01*
X2845357Y-1456214D01*
X2845357Y-1560976D01*
X3235833Y-1351452D02*
X3064405Y-1608595D01*
X3492976Y-1360976D02*
X3512024Y-1360976D01*
X3531071Y-1370500D01*
X3540595Y-1380024D01*
X3550119Y-1399071D01*
X3559643Y-1437167D01*
X3559643Y-1484786D01*
X3550119Y-1522881D01*
X3540595Y-1541928D01*
X3531071Y-1551452D01*
X3512024Y-1560976D01*
X3492976Y-1560976D01*
X3473928Y-1551452D01*
X3464405Y-1541928D01*
X3454881Y-1522881D01*
X3445357Y-1484786D01*
X3445357Y-1437167D01*
X3454881Y-1399071D01*
X3464405Y-1380024D01*
X3473928Y-1370500D01*
X3492976Y-1360976D01*
X3645357Y-1541928D02*
X3654881Y-1551452D01*
X3645357Y-1560976D01*
X3635833Y-1551452D01*
X3645357Y-1541928D01*
X3645357Y-1560976D01*
X3778690Y-1360976D02*
X3797738Y-1360976D01*
X3816786Y-1370500D01*
X3826309Y-1380024D01*
X3835833Y-1399071D01*
X3845357Y-1437167D01*
X3845357Y-1484786D01*
X3835833Y-1522881D01*
X3826309Y-1541928D01*
X3816786Y-1551452D01*
X3797738Y-1560976D01*
X3778690Y-1560976D01*
X3759643Y-1551452D01*
X3750119Y-1541928D01*
X3740595Y-1522881D01*
X3731071Y-1484786D01*
X3731071Y-1437167D01*
X3740595Y-1399071D01*
X3750119Y-1380024D01*
X3759643Y-1370500D01*
X3778690Y-1360976D01*
X3940595Y-1560976D02*
X3978690Y-1560976D01*
X3997738Y-1551452D01*
X4007262Y-1541928D01*
X4026309Y-1513357D01*
X4035833Y-1475262D01*
X4035833Y-1399071D01*
X4026309Y-1380024D01*
X4016786Y-1370500D01*
X3997738Y-1360976D01*
X3959643Y-1360976D01*
X3940595Y-1370500D01*
X3931071Y-1380024D01*
X3921548Y-1399071D01*
X3921548Y-1446690D01*
X3931071Y-1465738D01*
X3940595Y-1475262D01*
X3959643Y-1484786D01*
X3997738Y-1484786D01*
X4016786Y-1475262D01*
X4026309Y-1465738D01*
X4035833Y-1446690D01*
X4150119Y-1446690D02*
X4131071Y-1437167D01*
X4121548Y-1427643D01*
X4112024Y-1408595D01*
X4112024Y-1399071D01*
X4121548Y-1380024D01*
X4131071Y-1370500D01*
X4150119Y-1360976D01*
X4188214Y-1360976D01*
X4207262Y-1370500D01*
X4216786Y-1380024D01*
X4226310Y-1399071D01*
X4226310Y-1408595D01*
X4216786Y-1427643D01*
X4207262Y-1437167D01*
X4188214Y-1446690D01*
X4150119Y-1446690D01*
X4131071Y-1456214D01*
X4121548Y-1465738D01*
X4112024Y-1484786D01*
X4112024Y-1522881D01*
X4121548Y-1541928D01*
X4131071Y-1551452D01*
X4150119Y-1560976D01*
X4188214Y-1560976D01*
X4207262Y-1551452D01*
X4216786Y-1541928D01*
X4226310Y-1522881D01*
X4226310Y-1484786D01*
X4216786Y-1465738D01*
X4207262Y-1456214D01*
X4188214Y-1446690D01*
X4397738Y-1427643D02*
X4397738Y-1560976D01*
X4350119Y-1351452D02*
X4302500Y-1494309D01*
X4426310Y-1494309D01*
X4492976Y-1360976D02*
X4492976Y-1399071D01*
X4569167Y-1360976D02*
X4569167Y-1399071D01*
X4864405Y-1637167D02*
X4854881Y-1627643D01*
X4835833Y-1599071D01*
X4826310Y-1580024D01*
X4816786Y-1551452D01*
X4807262Y-1503833D01*
X4807262Y-1465738D01*
X4816786Y-1418119D01*
X4826310Y-1389548D01*
X4835833Y-1370500D01*
X4854881Y-1341929D01*
X4864405Y-1332405D01*
X5045357Y-1560976D02*
X4931071Y-1560976D01*
X4988214Y-1560976D02*
X4988214Y-1360976D01*
X4969167Y-1389548D01*
X4950119Y-1408595D01*
X4931071Y-1418119D01*
X5283452Y-1560976D02*
X5283452Y-1360976D01*
X5369167Y-1560976D02*
X5369167Y-1456214D01*
X5359643Y-1437167D01*
X5340595Y-1427643D01*
X5312024Y-1427643D01*
X5292976Y-1437167D01*
X5283452Y-1446690D01*
X5492976Y-1560976D02*
X5473929Y-1551452D01*
X5464405Y-1541928D01*
X5454881Y-1522881D01*
X5454881Y-1465738D01*
X5464405Y-1446690D01*
X5473929Y-1437167D01*
X5492976Y-1427643D01*
X5521548Y-1427643D01*
X5540595Y-1437167D01*
X5550119Y-1446690D01*
X5559643Y-1465738D01*
X5559643Y-1522881D01*
X5550119Y-1541928D01*
X5540595Y-1551452D01*
X5521548Y-1560976D01*
X5492976Y-1560976D01*
X5673928Y-1560976D02*
X5654881Y-1551452D01*
X5645357Y-1532405D01*
X5645357Y-1360976D01*
X5826309Y-1551452D02*
X5807262Y-1560976D01*
X5769167Y-1560976D01*
X5750119Y-1551452D01*
X5740595Y-1532405D01*
X5740595Y-1456214D01*
X5750119Y-1437167D01*
X5769167Y-1427643D01*
X5807262Y-1427643D01*
X5826309Y-1437167D01*
X5835833Y-1456214D01*
X5835833Y-1475262D01*
X5740595Y-1494309D01*
X5902500Y-1637167D02*
X5912024Y-1627643D01*
X5931071Y-1599071D01*
X5940595Y-1580024D01*
X5950119Y-1551452D01*
X5959643Y-1503833D01*
X5959643Y-1465738D01*
X5950119Y-1418119D01*
X5940595Y-1389548D01*
X5931071Y-1370500D01*
X5912024Y-1341929D01*
X5902500Y-1332405D01*
M02*
