M48
; DRILL file {KiCad (6.0.4)} date Mon Aug 29 03:31:04 2022
; FORMAT={-:-/ absolute / metric / decimal}
; #@! TF.CreationDate,2022-08-29T03:31:04+02:00
; #@! TF.GenerationSoftware,Kicad,Pcbnew,(6.0.4)
; #@! TF.FileFunction,Plated,1,2,PTH
FMAT,2
METRIC
; #@! TA.AperFunction,Plated,PTH,ViaDrill
T1C0.400
; #@! TA.AperFunction,Plated,PTH,ComponentDrill
T2C1.400
; #@! TA.AperFunction,Plated,PTH,ComponentDrill
T3C2.499
; #@! TA.AperFunction,Plated,PTH,ComponentDrill
T4C2.499
%
G90
G05
T1
X26.416Y89.408
X26.951Y76.994
X26.985Y82.084
X26.987Y84.138
X26.987Y78.581
X42.069Y38.894
X42.932Y57.881
X43.656Y19.844
X44.45Y17.462
X215.106Y26.194
X276.281Y26.194
T2
X18.925Y86.365
X18.925Y80.645
X23.688Y67.315
X23.688Y61.595
X23.688Y10.165
X23.688Y4.445
X25.525Y86.365
X25.525Y80.645
X26.069Y48.265
X26.069Y42.545
X30.287Y67.315
X30.287Y61.595
X30.287Y10.165
X30.287Y4.445
X30.831Y29.215
X30.831Y23.495
X32.669Y48.265
X32.669Y42.545
X37.431Y29.215
X37.431Y23.495
X37.975Y86.365
X37.975Y80.645
X44.575Y86.365
X44.575Y80.645
X47.5Y67.315
X47.5Y61.595
X47.5Y10.165
X47.5Y4.445
X52.262Y48.265
X52.262Y42.545
X54.1Y67.315
X54.1Y61.595
X54.1Y10.165
X54.1Y4.445
X57.025Y86.365
X57.025Y80.645
X58.862Y48.265
X58.862Y42.545
X61.787Y29.215
X61.787Y23.495
X63.625Y86.365
X63.625Y80.645
X66.55Y67.315
X66.55Y61.595
X68.388Y29.215
X68.388Y23.495
X71.312Y48.265
X71.312Y42.545
X71.312Y10.165
X71.312Y4.445
X73.15Y67.315
X73.15Y61.595
X76.075Y86.365
X76.075Y80.645
X77.912Y48.265
X77.912Y42.545
X77.912Y10.165
X77.912Y4.445
X80.837Y29.215
X80.837Y23.495
X82.675Y86.365
X82.675Y80.645
X85.6Y67.315
X85.6Y61.595
X87.438Y29.215
X87.438Y23.495
X90.362Y48.265
X90.362Y42.545
X92.2Y67.315
X92.2Y61.595
X95.125Y86.365
X95.125Y80.645
X96.962Y48.265
X96.962Y42.545
X99.887Y29.215
X99.887Y23.495
X101.725Y86.365
X101.725Y80.645
X104.65Y67.315
X104.65Y61.595
X106.487Y29.215
X106.487Y23.495
X109.412Y48.265
X109.412Y42.545
X111.25Y67.315
X111.25Y61.595
X114.175Y86.365
X114.175Y80.645
X116.012Y48.265
X116.012Y42.545
X118.938Y29.215
X118.938Y23.495
X120.775Y86.365
X120.775Y80.645
X123.7Y67.315
X123.7Y61.595
X125.537Y29.215
X125.537Y23.495
X128.463Y48.265
X128.463Y42.545
X130.3Y67.315
X130.3Y61.595
X133.225Y86.365
X133.225Y80.645
X135.062Y48.265
X135.062Y42.545
X137.987Y29.215
X137.987Y23.495
X139.825Y86.365
X139.825Y80.645
X142.75Y67.315
X142.75Y61.595
X144.588Y29.215
X144.588Y23.495
X147.512Y48.265
X147.512Y42.545
X149.35Y67.315
X149.35Y61.595
X152.275Y86.365
X152.275Y80.645
X152.275Y10.165
X152.275Y4.445
X154.112Y48.265
X154.112Y42.545
X157.037Y29.215
X157.037Y23.495
X158.875Y86.365
X158.875Y80.645
X158.875Y10.165
X158.875Y4.445
X161.8Y67.315
X161.8Y61.595
X163.637Y29.215
X163.637Y23.495
X166.562Y48.265
X166.562Y42.545
X168.4Y67.315
X168.4Y61.595
X171.325Y86.365
X171.325Y80.645
X173.162Y48.265
X173.162Y42.545
X176.088Y29.215
X176.088Y23.495
X177.925Y86.365
X177.925Y80.645
X180.85Y67.315
X180.85Y61.595
X182.688Y29.215
X182.688Y23.495
X185.612Y48.265
X185.612Y42.545
X187.45Y67.315
X187.45Y61.595
X190.375Y86.365
X190.375Y80.645
X192.212Y48.265
X192.212Y42.545
X195.137Y29.215
X195.137Y23.495
X196.975Y86.365
X196.975Y80.645
X199.9Y67.315
X199.9Y61.595
X201.737Y29.215
X201.737Y23.495
X204.662Y48.265
X204.662Y42.545
X206.5Y67.315
X206.5Y61.595
X209.425Y86.365
X209.425Y80.645
X211.262Y48.265
X211.262Y42.545
X214.188Y29.215
X214.188Y23.495
X216.025Y86.365
X216.025Y80.645
X218.95Y67.315
X218.95Y61.595
X220.787Y29.215
X220.787Y23.495
X223.712Y48.265
X223.712Y42.545
X225.55Y67.315
X225.55Y61.595
X228.475Y86.365
X228.475Y80.645
X230.312Y48.265
X230.312Y42.545
X233.237Y29.215
X233.237Y23.495
X233.237Y10.165
X233.237Y4.445
X235.075Y86.365
X235.075Y80.645
X238.0Y67.315
X238.0Y61.595
X239.837Y29.215
X239.837Y23.495
X239.837Y10.165
X239.837Y4.445
X242.762Y48.265
X242.762Y42.545
X244.6Y67.315
X244.6Y61.595
X247.525Y86.365
X247.525Y80.645
X249.362Y48.265
X249.362Y42.545
X254.125Y86.365
X254.125Y80.645
X257.05Y67.315
X257.05Y61.595
X257.05Y10.165
X257.05Y4.445
X261.812Y48.265
X261.812Y42.545
X263.65Y67.315
X263.65Y61.595
X263.65Y10.165
X263.65Y4.445
X268.412Y48.265
X268.412Y42.545
X268.956Y29.215
X268.956Y23.495
X275.556Y29.215
X275.556Y23.495
X276.1Y86.365
X276.1Y80.645
X278.76Y60.45
X278.76Y53.85
X280.863Y10.165
X280.863Y4.445
X282.7Y86.365
X282.7Y80.645
X284.48Y60.45
X284.48Y53.85
X285.904Y60.45
X285.904Y53.85
X287.462Y10.165
X287.462Y4.445
X291.624Y60.45
X291.624Y53.85
T4
X38.275Y67.025
T3
X140.024Y47.925G85X142.526Y47.925
G05
X202.324Y9.725G85X204.826Y9.725
G05
X271.874Y67.025G85X274.376Y67.025
G05
T0
M30
