G04 #@! TF.GenerationSoftware,KiCad,Pcbnew,(6.0.4)*
G04 #@! TF.CreationDate,2022-08-29T03:28:43+02:00*
G04 #@! TF.ProjectId,PLUTO60,504c5554-4f36-4302-9e6b-696361645f70,rev?*
G04 #@! TF.SameCoordinates,Original*
G04 #@! TF.FileFunction,Legend,Bot*
G04 #@! TF.FilePolarity,Positive*
%FSLAX46Y46*%
G04 Gerber Fmt 4.6, Leading zero omitted, Abs format (unit mm)*
G04 Created by KiCad (PCBNEW (6.0.4)) date 2022-08-29 03:28:43*
%MOMM*%
%LPD*%
G01*
G04 APERTURE LIST*
G04 Aperture macros list*
%AMRoundRect*
0 Rectangle with rounded corners*
0 $1 Rounding radius*
0 $2 $3 $4 $5 $6 $7 $8 $9 X,Y pos of 4 corners*
0 Add a 4 corners polygon primitive as box body*
4,1,4,$2,$3,$4,$5,$6,$7,$8,$9,$2,$3,0*
0 Add four circle primitives for the rounded corners*
1,1,$1+$1,$2,$3*
1,1,$1+$1,$4,$5*
1,1,$1+$1,$6,$7*
1,1,$1+$1,$8,$9*
0 Add four rect primitives between the rounded corners*
20,1,$1+$1,$2,$3,$4,$5,0*
20,1,$1+$1,$4,$5,$6,$7,0*
20,1,$1+$1,$6,$7,$8,$9,0*
20,1,$1+$1,$8,$9,$2,$3,0*%
G04 Aperture macros list end*
%ADD10C,0.150000*%
%ADD11C,0.120000*%
%ADD12C,2.501900*%
%ADD13C,2.250000*%
%ADD14C,7.000240*%
%ADD15C,7.001300*%
%ADD16R,1.200000X0.900000*%
%ADD17RoundRect,0.407250X0.956500X0.407250X-0.956500X0.407250X-0.956500X-0.407250X0.956500X-0.407250X0*%
%ADD18RoundRect,0.400000X0.963750X0.400000X-0.963750X0.400000X-0.963750X-0.400000X0.963750X-0.400000X0*%
%ADD19RoundRect,0.400000X0.853750X0.400000X-0.853750X0.400000X-0.853750X-0.400000X0.853750X-0.400000X0*%
%ADD20R,0.900000X1.200000*%
G04 APERTURE END LIST*
D10*
X104814880Y79795535D02*
X103814880Y79795535D01*
X103814880Y79557440D01*
X103862500Y79414583D01*
X103957738Y79319345D01*
X104052976Y79271726D01*
X104243452Y79224107D01*
X104386309Y79224107D01*
X104576785Y79271726D01*
X104672023Y79319345D01*
X104767261Y79414583D01*
X104814880Y79557440D01*
X104814880Y79795535D01*
X103910119Y78843154D02*
X103862500Y78795535D01*
X103814880Y78700297D01*
X103814880Y78462202D01*
X103862500Y78366964D01*
X103910119Y78319345D01*
X104005357Y78271726D01*
X104100595Y78271726D01*
X104243452Y78319345D01*
X104814880Y78890773D01*
X104814880Y78271726D01*
X104814880Y77319345D02*
X104814880Y77890773D01*
X104814880Y77605059D02*
X103814880Y77605059D01*
X103957738Y77700297D01*
X104052976Y77795535D01*
X104100595Y77890773D01*
X242164880Y79795535D02*
X241164880Y79795535D01*
X241164880Y79557440D01*
X241212500Y79414583D01*
X241307738Y79319345D01*
X241402976Y79271726D01*
X241593452Y79224107D01*
X241736309Y79224107D01*
X241926785Y79271726D01*
X242022023Y79319345D01*
X242117261Y79414583D01*
X242164880Y79557440D01*
X242164880Y79795535D01*
X241164880Y78319345D02*
X241164880Y78795535D01*
X241641071Y78843154D01*
X241593452Y78795535D01*
X241545833Y78700297D01*
X241545833Y78462202D01*
X241593452Y78366964D01*
X241641071Y78319345D01*
X241736309Y78271726D01*
X241974404Y78271726D01*
X242069642Y78319345D01*
X242117261Y78366964D01*
X242164880Y78462202D01*
X242164880Y78700297D01*
X242117261Y78795535D01*
X242069642Y78843154D01*
X241164880Y77366964D02*
X241164880Y77843154D01*
X241641071Y77890773D01*
X241593452Y77843154D01*
X241545833Y77747916D01*
X241545833Y77509821D01*
X241593452Y77414583D01*
X241641071Y77366964D01*
X241736309Y77319345D01*
X241974404Y77319345D01*
X242069642Y77366964D01*
X242117261Y77414583D01*
X242164880Y77509821D01*
X242164880Y77747916D01*
X242117261Y77843154D01*
X242069642Y77890773D01*
X176283630Y5183035D02*
X175283630Y5183035D01*
X175283630Y4944940D01*
X175331250Y4802083D01*
X175426488Y4706845D01*
X175521726Y4659226D01*
X175712202Y4611607D01*
X175855059Y4611607D01*
X176045535Y4659226D01*
X176140773Y4706845D01*
X176236011Y4802083D01*
X176283630Y4944940D01*
X176283630Y5183035D01*
X175378869Y4230654D02*
X175331250Y4183035D01*
X175283630Y4087797D01*
X175283630Y3849702D01*
X175331250Y3754464D01*
X175378869Y3706845D01*
X175474107Y3659226D01*
X175569345Y3659226D01*
X175712202Y3706845D01*
X176283630Y4278273D01*
X176283630Y3659226D01*
X175283630Y3040178D02*
X175283630Y2944940D01*
X175331250Y2849702D01*
X175378869Y2802083D01*
X175474107Y2754464D01*
X175664583Y2706845D01*
X175902678Y2706845D01*
X176093154Y2754464D01*
X176188392Y2802083D01*
X176236011Y2849702D01*
X176283630Y2944940D01*
X176283630Y3040178D01*
X176236011Y3135416D01*
X176188392Y3183035D01*
X176093154Y3230654D01*
X175902678Y3278273D01*
X175664583Y3278273D01*
X175474107Y3230654D01*
X175378869Y3183035D01*
X175331250Y3135416D01*
X175283630Y3040178D01*
X157202380Y41695535D02*
X156202380Y41695535D01*
X156202380Y41457440D01*
X156250000Y41314583D01*
X156345238Y41219345D01*
X156440476Y41171726D01*
X156630952Y41124107D01*
X156773809Y41124107D01*
X156964285Y41171726D01*
X157059523Y41219345D01*
X157154761Y41314583D01*
X157202380Y41457440D01*
X157202380Y41695535D01*
X156202380Y40790773D02*
X156202380Y40171726D01*
X156583333Y40505059D01*
X156583333Y40362202D01*
X156630952Y40266964D01*
X156678571Y40219345D01*
X156773809Y40171726D01*
X157011904Y40171726D01*
X157107142Y40219345D01*
X157154761Y40266964D01*
X157202380Y40362202D01*
X157202380Y40647916D01*
X157154761Y40743154D01*
X157107142Y40790773D01*
X156202380Y39838392D02*
X156202380Y39219345D01*
X156583333Y39552678D01*
X156583333Y39409821D01*
X156630952Y39314583D01*
X156678571Y39266964D01*
X156773809Y39219345D01*
X157011904Y39219345D01*
X157107142Y39266964D01*
X157154761Y39314583D01*
X157202380Y39409821D01*
X157202380Y39695535D01*
X157154761Y39790773D01*
X157107142Y39838392D01*
X127864880Y79795535D02*
X126864880Y79795535D01*
X126864880Y79557440D01*
X126912500Y79414583D01*
X127007738Y79319345D01*
X127102976Y79271726D01*
X127293452Y79224107D01*
X127436309Y79224107D01*
X127626785Y79271726D01*
X127722023Y79319345D01*
X127817261Y79414583D01*
X127864880Y79557440D01*
X127864880Y79795535D01*
X126960119Y78843154D02*
X126912500Y78795535D01*
X126864880Y78700297D01*
X126864880Y78462202D01*
X126912500Y78366964D01*
X126960119Y78319345D01*
X127055357Y78271726D01*
X127150595Y78271726D01*
X127293452Y78319345D01*
X127864880Y78890773D01*
X127864880Y78271726D01*
X126864880Y77414583D02*
X126864880Y77605059D01*
X126912500Y77700297D01*
X126960119Y77747916D01*
X127102976Y77843154D01*
X127293452Y77890773D01*
X127674404Y77890773D01*
X127769642Y77843154D01*
X127817261Y77795535D01*
X127864880Y77700297D01*
X127864880Y77509821D01*
X127817261Y77414583D01*
X127769642Y77366964D01*
X127674404Y77319345D01*
X127436309Y77319345D01*
X127341071Y77366964D01*
X127293452Y77414583D01*
X127245833Y77509821D01*
X127245833Y77700297D01*
X127293452Y77795535D01*
X127341071Y77843154D01*
X127436309Y77890773D01*
X119102380Y41695535D02*
X118102380Y41695535D01*
X118102380Y41457440D01*
X118150000Y41314583D01*
X118245238Y41219345D01*
X118340476Y41171726D01*
X118530952Y41124107D01*
X118673809Y41124107D01*
X118864285Y41171726D01*
X118959523Y41219345D01*
X119054761Y41314583D01*
X119102380Y41457440D01*
X119102380Y41695535D01*
X118197619Y40743154D02*
X118150000Y40695535D01*
X118102380Y40600297D01*
X118102380Y40362202D01*
X118150000Y40266964D01*
X118197619Y40219345D01*
X118292857Y40171726D01*
X118388095Y40171726D01*
X118530952Y40219345D01*
X119102380Y40790773D01*
X119102380Y40171726D01*
X118102380Y39838392D02*
X118102380Y39219345D01*
X118483333Y39552678D01*
X118483333Y39409821D01*
X118530952Y39314583D01*
X118578571Y39266964D01*
X118673809Y39219345D01*
X118911904Y39219345D01*
X119007142Y39266964D01*
X119054761Y39314583D01*
X119102380Y39409821D01*
X119102380Y39695535D01*
X119054761Y39790773D01*
X119007142Y39838392D01*
X195302380Y41695535D02*
X194302380Y41695535D01*
X194302380Y41457440D01*
X194350000Y41314583D01*
X194445238Y41219345D01*
X194540476Y41171726D01*
X194730952Y41124107D01*
X194873809Y41124107D01*
X195064285Y41171726D01*
X195159523Y41219345D01*
X195254761Y41314583D01*
X195302380Y41457440D01*
X195302380Y41695535D01*
X194635714Y40266964D02*
X195302380Y40266964D01*
X194254761Y40505059D02*
X194969047Y40743154D01*
X194969047Y40124107D01*
X194302380Y39838392D02*
X194302380Y39219345D01*
X194683333Y39552678D01*
X194683333Y39409821D01*
X194730952Y39314583D01*
X194778571Y39266964D01*
X194873809Y39219345D01*
X195111904Y39219345D01*
X195207142Y39266964D01*
X195254761Y39314583D01*
X195302380Y39409821D01*
X195302380Y39695535D01*
X195254761Y39790773D01*
X195207142Y39838392D01*
X266739880Y60745535D02*
X265739880Y60745535D01*
X265739880Y60507440D01*
X265787500Y60364583D01*
X265882738Y60269345D01*
X265977976Y60221726D01*
X266168452Y60174107D01*
X266311309Y60174107D01*
X266501785Y60221726D01*
X266597023Y60269345D01*
X266692261Y60364583D01*
X266739880Y60507440D01*
X266739880Y60745535D01*
X265739880Y59316964D02*
X265739880Y59507440D01*
X265787500Y59602678D01*
X265835119Y59650297D01*
X265977976Y59745535D01*
X266168452Y59793154D01*
X266549404Y59793154D01*
X266644642Y59745535D01*
X266692261Y59697916D01*
X266739880Y59602678D01*
X266739880Y59412202D01*
X266692261Y59316964D01*
X266644642Y59269345D01*
X266549404Y59221726D01*
X266311309Y59221726D01*
X266216071Y59269345D01*
X266168452Y59316964D01*
X266120833Y59412202D01*
X266120833Y59602678D01*
X266168452Y59697916D01*
X266216071Y59745535D01*
X266311309Y59793154D01*
X265739880Y58602678D02*
X265739880Y58507440D01*
X265787500Y58412202D01*
X265835119Y58364583D01*
X265930357Y58316964D01*
X266120833Y58269345D01*
X266358928Y58269345D01*
X266549404Y58316964D01*
X266644642Y58364583D01*
X266692261Y58412202D01*
X266739880Y58507440D01*
X266739880Y58602678D01*
X266692261Y58697916D01*
X266644642Y58745535D01*
X266549404Y58793154D01*
X266358928Y58840773D01*
X266120833Y58840773D01*
X265930357Y58793154D01*
X265835119Y58745535D01*
X265787500Y58697916D01*
X265739880Y58602678D01*
X38139880Y4706845D02*
X37139880Y4706845D01*
X37139880Y4468750D01*
X37187500Y4325892D01*
X37282738Y4230654D01*
X37377976Y4183035D01*
X37568452Y4135416D01*
X37711309Y4135416D01*
X37901785Y4183035D01*
X37997023Y4230654D01*
X38092261Y4325892D01*
X38139880Y4468750D01*
X38139880Y4706845D01*
X37139880Y3230654D02*
X37139880Y3706845D01*
X37616071Y3754464D01*
X37568452Y3706845D01*
X37520833Y3611607D01*
X37520833Y3373511D01*
X37568452Y3278273D01*
X37616071Y3230654D01*
X37711309Y3183035D01*
X37949404Y3183035D01*
X38044642Y3230654D01*
X38092261Y3278273D01*
X38139880Y3373511D01*
X38139880Y3611607D01*
X38092261Y3706845D01*
X38044642Y3754464D01*
X65952380Y41219345D02*
X64952380Y41219345D01*
X64952380Y40981250D01*
X65000000Y40838392D01*
X65095238Y40743154D01*
X65190476Y40695535D01*
X65380952Y40647916D01*
X65523809Y40647916D01*
X65714285Y40695535D01*
X65809523Y40743154D01*
X65904761Y40838392D01*
X65952380Y40981250D01*
X65952380Y41219345D01*
X65380952Y40076488D02*
X65333333Y40171726D01*
X65285714Y40219345D01*
X65190476Y40266964D01*
X65142857Y40266964D01*
X65047619Y40219345D01*
X65000000Y40171726D01*
X64952380Y40076488D01*
X64952380Y39886011D01*
X65000000Y39790773D01*
X65047619Y39743154D01*
X65142857Y39695535D01*
X65190476Y39695535D01*
X65285714Y39743154D01*
X65333333Y39790773D01*
X65380952Y39886011D01*
X65380952Y40076488D01*
X65428571Y40171726D01*
X65476190Y40219345D01*
X65571428Y40266964D01*
X65761904Y40266964D01*
X65857142Y40219345D01*
X65904761Y40171726D01*
X65952380Y40076488D01*
X65952380Y39886011D01*
X65904761Y39790773D01*
X65857142Y39743154D01*
X65761904Y39695535D01*
X65571428Y39695535D01*
X65476190Y39743154D01*
X65428571Y39790773D01*
X65380952Y39886011D01*
X38139880Y60269345D02*
X37139880Y60269345D01*
X37139880Y60031250D01*
X37187500Y59888392D01*
X37282738Y59793154D01*
X37377976Y59745535D01*
X37568452Y59697916D01*
X37711309Y59697916D01*
X37901785Y59745535D01*
X37997023Y59793154D01*
X38092261Y59888392D01*
X38139880Y60031250D01*
X38139880Y60269345D01*
X37235119Y59316964D02*
X37187500Y59269345D01*
X37139880Y59174107D01*
X37139880Y58936011D01*
X37187500Y58840773D01*
X37235119Y58793154D01*
X37330357Y58745535D01*
X37425595Y58745535D01*
X37568452Y58793154D01*
X38139880Y59364583D01*
X38139880Y58745535D01*
X175489880Y60745535D02*
X174489880Y60745535D01*
X174489880Y60507440D01*
X174537500Y60364583D01*
X174632738Y60269345D01*
X174727976Y60221726D01*
X174918452Y60174107D01*
X175061309Y60174107D01*
X175251785Y60221726D01*
X175347023Y60269345D01*
X175442261Y60364583D01*
X175489880Y60507440D01*
X175489880Y60745535D01*
X174489880Y59840773D02*
X174489880Y59221726D01*
X174870833Y59555059D01*
X174870833Y59412202D01*
X174918452Y59316964D01*
X174966071Y59269345D01*
X175061309Y59221726D01*
X175299404Y59221726D01*
X175394642Y59269345D01*
X175442261Y59316964D01*
X175489880Y59412202D01*
X175489880Y59697916D01*
X175442261Y59793154D01*
X175394642Y59840773D01*
X174489880Y58888392D02*
X174489880Y58221726D01*
X175489880Y58650297D01*
X228639880Y60745535D02*
X227639880Y60745535D01*
X227639880Y60507440D01*
X227687500Y60364583D01*
X227782738Y60269345D01*
X227877976Y60221726D01*
X228068452Y60174107D01*
X228211309Y60174107D01*
X228401785Y60221726D01*
X228497023Y60269345D01*
X228592261Y60364583D01*
X228639880Y60507440D01*
X228639880Y60745535D01*
X227639880Y59269345D02*
X227639880Y59745535D01*
X228116071Y59793154D01*
X228068452Y59745535D01*
X228020833Y59650297D01*
X228020833Y59412202D01*
X228068452Y59316964D01*
X228116071Y59269345D01*
X228211309Y59221726D01*
X228449404Y59221726D01*
X228544642Y59269345D01*
X228592261Y59316964D01*
X228639880Y59412202D01*
X228639880Y59650297D01*
X228592261Y59745535D01*
X228544642Y59793154D01*
X227735119Y58840773D02*
X227687500Y58793154D01*
X227639880Y58697916D01*
X227639880Y58459821D01*
X227687500Y58364583D01*
X227735119Y58316964D01*
X227830357Y58269345D01*
X227925595Y58269345D01*
X228068452Y58316964D01*
X228639880Y58888392D01*
X228639880Y58269345D01*
X151677380Y22645535D02*
X150677380Y22645535D01*
X150677380Y22407440D01*
X150725000Y22264583D01*
X150820238Y22169345D01*
X150915476Y22121726D01*
X151105952Y22074107D01*
X151248809Y22074107D01*
X151439285Y22121726D01*
X151534523Y22169345D01*
X151629761Y22264583D01*
X151677380Y22407440D01*
X151677380Y22645535D01*
X150772619Y21693154D02*
X150725000Y21645535D01*
X150677380Y21550297D01*
X150677380Y21312202D01*
X150725000Y21216964D01*
X150772619Y21169345D01*
X150867857Y21121726D01*
X150963095Y21121726D01*
X151105952Y21169345D01*
X151677380Y21740773D01*
X151677380Y21121726D01*
X151677380Y20645535D02*
X151677380Y20455059D01*
X151629761Y20359821D01*
X151582142Y20312202D01*
X151439285Y20216964D01*
X151248809Y20169345D01*
X150867857Y20169345D01*
X150772619Y20216964D01*
X150725000Y20264583D01*
X150677380Y20359821D01*
X150677380Y20550297D01*
X150725000Y20645535D01*
X150772619Y20693154D01*
X150867857Y20740773D01*
X151105952Y20740773D01*
X151201190Y20693154D01*
X151248809Y20645535D01*
X151296428Y20550297D01*
X151296428Y20359821D01*
X151248809Y20264583D01*
X151201190Y20216964D01*
X151105952Y20169345D01*
X114339880Y60745535D02*
X113339880Y60745535D01*
X113339880Y60507440D01*
X113387500Y60364583D01*
X113482738Y60269345D01*
X113577976Y60221726D01*
X113768452Y60174107D01*
X113911309Y60174107D01*
X114101785Y60221726D01*
X114197023Y60269345D01*
X114292261Y60364583D01*
X114339880Y60507440D01*
X114339880Y60745535D01*
X113435119Y59793154D02*
X113387500Y59745535D01*
X113339880Y59650297D01*
X113339880Y59412202D01*
X113387500Y59316964D01*
X113435119Y59269345D01*
X113530357Y59221726D01*
X113625595Y59221726D01*
X113768452Y59269345D01*
X114339880Y59840773D01*
X114339880Y59221726D01*
X113435119Y58840773D02*
X113387500Y58793154D01*
X113339880Y58697916D01*
X113339880Y58459821D01*
X113387500Y58364583D01*
X113435119Y58316964D01*
X113530357Y58269345D01*
X113625595Y58269345D01*
X113768452Y58316964D01*
X114339880Y58888392D01*
X114339880Y58269345D01*
X256452380Y41695535D02*
X255452380Y41695535D01*
X255452380Y41457440D01*
X255500000Y41314583D01*
X255595238Y41219345D01*
X255690476Y41171726D01*
X255880952Y41124107D01*
X256023809Y41124107D01*
X256214285Y41171726D01*
X256309523Y41219345D01*
X256404761Y41314583D01*
X256452380Y41457440D01*
X256452380Y41695535D01*
X255452380Y40219345D02*
X255452380Y40695535D01*
X255928571Y40743154D01*
X255880952Y40695535D01*
X255833333Y40600297D01*
X255833333Y40362202D01*
X255880952Y40266964D01*
X255928571Y40219345D01*
X256023809Y40171726D01*
X256261904Y40171726D01*
X256357142Y40219345D01*
X256404761Y40266964D01*
X256452380Y40362202D01*
X256452380Y40600297D01*
X256404761Y40695535D01*
X256357142Y40743154D01*
X255452380Y39838392D02*
X255452380Y39171726D01*
X256452380Y39600297D01*
X113577380Y22645535D02*
X112577380Y22645535D01*
X112577380Y22407440D01*
X112625000Y22264583D01*
X112720238Y22169345D01*
X112815476Y22121726D01*
X113005952Y22074107D01*
X113148809Y22074107D01*
X113339285Y22121726D01*
X113434523Y22169345D01*
X113529761Y22264583D01*
X113577380Y22407440D01*
X113577380Y22645535D01*
X113577380Y21121726D02*
X113577380Y21693154D01*
X113577380Y21407440D02*
X112577380Y21407440D01*
X112720238Y21502678D01*
X112815476Y21597916D01*
X112863095Y21693154D01*
X113577380Y20645535D02*
X113577380Y20455059D01*
X113529761Y20359821D01*
X113482142Y20312202D01*
X113339285Y20216964D01*
X113148809Y20169345D01*
X112767857Y20169345D01*
X112672619Y20216964D01*
X112625000Y20264583D01*
X112577380Y20359821D01*
X112577380Y20550297D01*
X112625000Y20645535D01*
X112672619Y20693154D01*
X112767857Y20740773D01*
X113005952Y20740773D01*
X113101190Y20693154D01*
X113148809Y20645535D01*
X113196428Y20550297D01*
X113196428Y20359821D01*
X113148809Y20264583D01*
X113101190Y20216964D01*
X113005952Y20169345D01*
X142152380Y41695535D02*
X141152380Y41695535D01*
X141152380Y41457440D01*
X141200000Y41314583D01*
X141295238Y41219345D01*
X141390476Y41171726D01*
X141580952Y41124107D01*
X141723809Y41124107D01*
X141914285Y41171726D01*
X142009523Y41219345D01*
X142104761Y41314583D01*
X142152380Y41457440D01*
X142152380Y41695535D01*
X141247619Y40743154D02*
X141200000Y40695535D01*
X141152380Y40600297D01*
X141152380Y40362202D01*
X141200000Y40266964D01*
X141247619Y40219345D01*
X141342857Y40171726D01*
X141438095Y40171726D01*
X141580952Y40219345D01*
X142152380Y40790773D01*
X142152380Y40171726D01*
X141580952Y39600297D02*
X141533333Y39695535D01*
X141485714Y39743154D01*
X141390476Y39790773D01*
X141342857Y39790773D01*
X141247619Y39743154D01*
X141200000Y39695535D01*
X141152380Y39600297D01*
X141152380Y39409821D01*
X141200000Y39314583D01*
X141247619Y39266964D01*
X141342857Y39219345D01*
X141390476Y39219345D01*
X141485714Y39266964D01*
X141533333Y39314583D01*
X141580952Y39409821D01*
X141580952Y39600297D01*
X141628571Y39695535D01*
X141676190Y39743154D01*
X141771428Y39790773D01*
X141961904Y39790773D01*
X142057142Y39743154D01*
X142104761Y39695535D01*
X142152380Y39600297D01*
X142152380Y39409821D01*
X142104761Y39314583D01*
X142057142Y39266964D01*
X141961904Y39219345D01*
X141771428Y39219345D01*
X141676190Y39266964D01*
X141628571Y39314583D01*
X141580952Y39409821D01*
X89764880Y79795535D02*
X88764880Y79795535D01*
X88764880Y79557440D01*
X88812500Y79414583D01*
X88907738Y79319345D01*
X89002976Y79271726D01*
X89193452Y79224107D01*
X89336309Y79224107D01*
X89526785Y79271726D01*
X89622023Y79319345D01*
X89717261Y79414583D01*
X89764880Y79557440D01*
X89764880Y79795535D01*
X89764880Y78271726D02*
X89764880Y78843154D01*
X89764880Y78557440D02*
X88764880Y78557440D01*
X88907738Y78652678D01*
X89002976Y78747916D01*
X89050595Y78843154D01*
X88764880Y77414583D02*
X88764880Y77605059D01*
X88812500Y77700297D01*
X88860119Y77747916D01*
X89002976Y77843154D01*
X89193452Y77890773D01*
X89574404Y77890773D01*
X89669642Y77843154D01*
X89717261Y77795535D01*
X89764880Y77700297D01*
X89764880Y77509821D01*
X89717261Y77414583D01*
X89669642Y77366964D01*
X89574404Y77319345D01*
X89336309Y77319345D01*
X89241071Y77366964D01*
X89193452Y77414583D01*
X89145833Y77509821D01*
X89145833Y77700297D01*
X89193452Y77795535D01*
X89241071Y77843154D01*
X89336309Y77890773D01*
X189777380Y22645535D02*
X188777380Y22645535D01*
X188777380Y22407440D01*
X188825000Y22264583D01*
X188920238Y22169345D01*
X189015476Y22121726D01*
X189205952Y22074107D01*
X189348809Y22074107D01*
X189539285Y22121726D01*
X189634523Y22169345D01*
X189729761Y22264583D01*
X189777380Y22407440D01*
X189777380Y22645535D01*
X188777380Y21740773D02*
X188777380Y21121726D01*
X189158333Y21455059D01*
X189158333Y21312202D01*
X189205952Y21216964D01*
X189253571Y21169345D01*
X189348809Y21121726D01*
X189586904Y21121726D01*
X189682142Y21169345D01*
X189729761Y21216964D01*
X189777380Y21312202D01*
X189777380Y21597916D01*
X189729761Y21693154D01*
X189682142Y21740773D01*
X189777380Y20645535D02*
X189777380Y20455059D01*
X189729761Y20359821D01*
X189682142Y20312202D01*
X189539285Y20216964D01*
X189348809Y20169345D01*
X188967857Y20169345D01*
X188872619Y20216964D01*
X188825000Y20264583D01*
X188777380Y20359821D01*
X188777380Y20550297D01*
X188825000Y20645535D01*
X188872619Y20693154D01*
X188967857Y20740773D01*
X189205952Y20740773D01*
X189301190Y20693154D01*
X189348809Y20645535D01*
X189396428Y20550297D01*
X189396428Y20359821D01*
X189348809Y20264583D01*
X189301190Y20216964D01*
X189205952Y20169345D01*
X142914880Y79795535D02*
X141914880Y79795535D01*
X141914880Y79557440D01*
X141962500Y79414583D01*
X142057738Y79319345D01*
X142152976Y79271726D01*
X142343452Y79224107D01*
X142486309Y79224107D01*
X142676785Y79271726D01*
X142772023Y79319345D01*
X142867261Y79414583D01*
X142914880Y79557440D01*
X142914880Y79795535D01*
X141914880Y78890773D02*
X141914880Y78271726D01*
X142295833Y78605059D01*
X142295833Y78462202D01*
X142343452Y78366964D01*
X142391071Y78319345D01*
X142486309Y78271726D01*
X142724404Y78271726D01*
X142819642Y78319345D01*
X142867261Y78366964D01*
X142914880Y78462202D01*
X142914880Y78747916D01*
X142867261Y78843154D01*
X142819642Y78890773D01*
X142914880Y77319345D02*
X142914880Y77890773D01*
X142914880Y77605059D02*
X141914880Y77605059D01*
X142057738Y77700297D01*
X142152976Y77795535D01*
X142200595Y77890773D01*
X190539880Y60745535D02*
X189539880Y60745535D01*
X189539880Y60507440D01*
X189587500Y60364583D01*
X189682738Y60269345D01*
X189777976Y60221726D01*
X189968452Y60174107D01*
X190111309Y60174107D01*
X190301785Y60221726D01*
X190397023Y60269345D01*
X190492261Y60364583D01*
X190539880Y60507440D01*
X190539880Y60745535D01*
X189873214Y59316964D02*
X190539880Y59316964D01*
X189492261Y59555059D02*
X190206547Y59793154D01*
X190206547Y59174107D01*
X189635119Y58840773D02*
X189587500Y58793154D01*
X189539880Y58697916D01*
X189539880Y58459821D01*
X189587500Y58364583D01*
X189635119Y58316964D01*
X189730357Y58269345D01*
X189825595Y58269345D01*
X189968452Y58316964D01*
X190539880Y58888392D01*
X190539880Y58269345D01*
X270739880Y5183035D02*
X269739880Y5183035D01*
X269739880Y4944940D01*
X269787500Y4802083D01*
X269882738Y4706845D01*
X269977976Y4659226D01*
X270168452Y4611607D01*
X270311309Y4611607D01*
X270501785Y4659226D01*
X270597023Y4706845D01*
X270692261Y4802083D01*
X270739880Y4944940D01*
X270739880Y5183035D01*
X269739880Y4278273D02*
X269739880Y3659226D01*
X270120833Y3992559D01*
X270120833Y3849702D01*
X270168452Y3754464D01*
X270216071Y3706845D01*
X270311309Y3659226D01*
X270549404Y3659226D01*
X270644642Y3706845D01*
X270692261Y3754464D01*
X270739880Y3849702D01*
X270739880Y4135416D01*
X270692261Y4230654D01*
X270644642Y4278273D01*
X269739880Y3040178D02*
X269739880Y2944940D01*
X269787500Y2849702D01*
X269835119Y2802083D01*
X269930357Y2754464D01*
X270120833Y2706845D01*
X270358928Y2706845D01*
X270549404Y2754464D01*
X270644642Y2802083D01*
X270692261Y2849702D01*
X270739880Y2944940D01*
X270739880Y3040178D01*
X270692261Y3135416D01*
X270644642Y3183035D01*
X270549404Y3230654D01*
X270358928Y3278273D01*
X270120833Y3278273D01*
X269930357Y3230654D01*
X269835119Y3183035D01*
X269787500Y3135416D01*
X269739880Y3040178D01*
X242927380Y22645535D02*
X241927380Y22645535D01*
X241927380Y22407440D01*
X241975000Y22264583D01*
X242070238Y22169345D01*
X242165476Y22121726D01*
X242355952Y22074107D01*
X242498809Y22074107D01*
X242689285Y22121726D01*
X242784523Y22169345D01*
X242879761Y22264583D01*
X242927380Y22407440D01*
X242927380Y22645535D01*
X241927380Y21169345D02*
X241927380Y21645535D01*
X242403571Y21693154D01*
X242355952Y21645535D01*
X242308333Y21550297D01*
X242308333Y21312202D01*
X242355952Y21216964D01*
X242403571Y21169345D01*
X242498809Y21121726D01*
X242736904Y21121726D01*
X242832142Y21169345D01*
X242879761Y21216964D01*
X242927380Y21312202D01*
X242927380Y21550297D01*
X242879761Y21645535D01*
X242832142Y21693154D01*
X242260714Y20264583D02*
X242927380Y20264583D01*
X241879761Y20502678D02*
X242594047Y20740773D01*
X242594047Y20121726D01*
X269914880Y5183035D02*
X268914880Y5183035D01*
X268914880Y4944940D01*
X268962500Y4802083D01*
X269057738Y4706845D01*
X269152976Y4659226D01*
X269343452Y4611607D01*
X269486309Y4611607D01*
X269676785Y4659226D01*
X269772023Y4706845D01*
X269867261Y4802083D01*
X269914880Y4944940D01*
X269914880Y5183035D01*
X268914880Y4278273D02*
X268914880Y3659226D01*
X269295833Y3992559D01*
X269295833Y3849702D01*
X269343452Y3754464D01*
X269391071Y3706845D01*
X269486309Y3659226D01*
X269724404Y3659226D01*
X269819642Y3706845D01*
X269867261Y3754464D01*
X269914880Y3849702D01*
X269914880Y4135416D01*
X269867261Y4230654D01*
X269819642Y4278273D01*
X268914880Y2754464D02*
X268914880Y3230654D01*
X269391071Y3278273D01*
X269343452Y3230654D01*
X269295833Y3135416D01*
X269295833Y2897321D01*
X269343452Y2802083D01*
X269391071Y2754464D01*
X269486309Y2706845D01*
X269724404Y2706845D01*
X269819642Y2754464D01*
X269867261Y2802083D01*
X269914880Y2897321D01*
X269914880Y3135416D01*
X269867261Y3230654D01*
X269819642Y3278273D01*
X247689880Y5183035D02*
X246689880Y5183035D01*
X246689880Y4944940D01*
X246737500Y4802083D01*
X246832738Y4706845D01*
X246927976Y4659226D01*
X247118452Y4611607D01*
X247261309Y4611607D01*
X247451785Y4659226D01*
X247547023Y4706845D01*
X247642261Y4802083D01*
X247689880Y4944940D01*
X247689880Y5183035D01*
X246785119Y4230654D02*
X246737500Y4183035D01*
X246689880Y4087797D01*
X246689880Y3849702D01*
X246737500Y3754464D01*
X246785119Y3706845D01*
X246880357Y3659226D01*
X246975595Y3659226D01*
X247118452Y3706845D01*
X247689880Y4278273D01*
X247689880Y3659226D01*
X246689880Y2754464D02*
X246689880Y3230654D01*
X247166071Y3278273D01*
X247118452Y3230654D01*
X247070833Y3135416D01*
X247070833Y2897321D01*
X247118452Y2802083D01*
X247166071Y2754464D01*
X247261309Y2706845D01*
X247499404Y2706845D01*
X247594642Y2754464D01*
X247642261Y2802083D01*
X247689880Y2897321D01*
X247689880Y3135416D01*
X247642261Y3230654D01*
X247594642Y3278273D01*
X13533630Y79256845D02*
X12533630Y79256845D01*
X12533630Y79018750D01*
X12581250Y78875892D01*
X12676488Y78780654D01*
X12771726Y78733035D01*
X12962202Y78685416D01*
X13105059Y78685416D01*
X13295535Y78733035D01*
X13390773Y78780654D01*
X13486011Y78875892D01*
X13533630Y79018750D01*
X13533630Y79256845D01*
X13533630Y77733035D02*
X13533630Y78304464D01*
X13533630Y78018750D02*
X12533630Y78018750D01*
X12676488Y78113988D01*
X12771726Y78209226D01*
X12819345Y78304464D01*
X293727380Y56776785D02*
X292727380Y56776785D01*
X292727380Y56538690D01*
X292775000Y56395833D01*
X292870238Y56300595D01*
X292965476Y56252976D01*
X293155952Y56205357D01*
X293298809Y56205357D01*
X293489285Y56252976D01*
X293584523Y56300595D01*
X293679761Y56395833D01*
X293727380Y56538690D01*
X293727380Y56776785D01*
X292727380Y55300595D02*
X292727380Y55776785D01*
X293203571Y55824404D01*
X293155952Y55776785D01*
X293108333Y55681547D01*
X293108333Y55443452D01*
X293155952Y55348214D01*
X293203571Y55300595D01*
X293298809Y55252976D01*
X293536904Y55252976D01*
X293632142Y55300595D01*
X293679761Y55348214D01*
X293727380Y55443452D01*
X293727380Y55681547D01*
X293679761Y55776785D01*
X293632142Y55824404D01*
X292727380Y54633928D02*
X292727380Y54538690D01*
X292775000Y54443452D01*
X292822619Y54395833D01*
X292917857Y54348214D01*
X293108333Y54300595D01*
X293346428Y54300595D01*
X293536904Y54348214D01*
X293632142Y54395833D01*
X293679761Y54443452D01*
X293727380Y54538690D01*
X293727380Y54633928D01*
X293679761Y54729166D01*
X293632142Y54776785D01*
X293536904Y54824404D01*
X293346428Y54872023D01*
X293108333Y54872023D01*
X292917857Y54824404D01*
X292822619Y54776785D01*
X292775000Y54729166D01*
X292727380Y54633928D01*
X181014880Y79795535D02*
X180014880Y79795535D01*
X180014880Y79557440D01*
X180062500Y79414583D01*
X180157738Y79319345D01*
X180252976Y79271726D01*
X180443452Y79224107D01*
X180586309Y79224107D01*
X180776785Y79271726D01*
X180872023Y79319345D01*
X180967261Y79414583D01*
X181014880Y79557440D01*
X181014880Y79795535D01*
X180348214Y78366964D02*
X181014880Y78366964D01*
X179967261Y78605059D02*
X180681547Y78843154D01*
X180681547Y78224107D01*
X181014880Y77319345D02*
X181014880Y77890773D01*
X181014880Y77605059D02*
X180014880Y77605059D01*
X180157738Y77700297D01*
X180252976Y77795535D01*
X180300595Y77890773D01*
X219114880Y79795535D02*
X218114880Y79795535D01*
X218114880Y79557440D01*
X218162500Y79414583D01*
X218257738Y79319345D01*
X218352976Y79271726D01*
X218543452Y79224107D01*
X218686309Y79224107D01*
X218876785Y79271726D01*
X218972023Y79319345D01*
X219067261Y79414583D01*
X219114880Y79557440D01*
X219114880Y79795535D01*
X218114880Y78319345D02*
X218114880Y78795535D01*
X218591071Y78843154D01*
X218543452Y78795535D01*
X218495833Y78700297D01*
X218495833Y78462202D01*
X218543452Y78366964D01*
X218591071Y78319345D01*
X218686309Y78271726D01*
X218924404Y78271726D01*
X219019642Y78319345D01*
X219067261Y78366964D01*
X219114880Y78462202D01*
X219114880Y78700297D01*
X219067261Y78795535D01*
X219019642Y78843154D01*
X219114880Y77319345D02*
X219114880Y77890773D01*
X219114880Y77605059D02*
X218114880Y77605059D01*
X218257738Y77700297D01*
X218352976Y77795535D01*
X218400595Y77890773D01*
X137389880Y60745535D02*
X136389880Y60745535D01*
X136389880Y60507440D01*
X136437500Y60364583D01*
X136532738Y60269345D01*
X136627976Y60221726D01*
X136818452Y60174107D01*
X136961309Y60174107D01*
X137151785Y60221726D01*
X137247023Y60269345D01*
X137342261Y60364583D01*
X137389880Y60507440D01*
X137389880Y60745535D01*
X136485119Y59793154D02*
X136437500Y59745535D01*
X136389880Y59650297D01*
X136389880Y59412202D01*
X136437500Y59316964D01*
X136485119Y59269345D01*
X136580357Y59221726D01*
X136675595Y59221726D01*
X136818452Y59269345D01*
X137389880Y59840773D01*
X137389880Y59221726D01*
X136389880Y58888392D02*
X136389880Y58221726D01*
X137389880Y58650297D01*
X61189880Y5183035D02*
X60189880Y5183035D01*
X60189880Y4944940D01*
X60237500Y4802083D01*
X60332738Y4706845D01*
X60427976Y4659226D01*
X60618452Y4611607D01*
X60761309Y4611607D01*
X60951785Y4659226D01*
X61047023Y4706845D01*
X61142261Y4802083D01*
X61189880Y4944940D01*
X61189880Y5183035D01*
X61189880Y3659226D02*
X61189880Y4230654D01*
X61189880Y3944940D02*
X60189880Y3944940D01*
X60332738Y4040178D01*
X60427976Y4135416D01*
X60475595Y4230654D01*
X60189880Y3040178D02*
X60189880Y2944940D01*
X60237500Y2849702D01*
X60285119Y2802083D01*
X60380357Y2754464D01*
X60570833Y2706845D01*
X60808928Y2706845D01*
X60999404Y2754464D01*
X61094642Y2802083D01*
X61142261Y2849702D01*
X61189880Y2944940D01*
X61189880Y3040178D01*
X61142261Y3135416D01*
X61094642Y3183035D01*
X60999404Y3230654D01*
X60808928Y3278273D01*
X60570833Y3278273D01*
X60380357Y3230654D01*
X60285119Y3183035D01*
X60237500Y3135416D01*
X60189880Y3040178D01*
X32604523Y85970869D02*
X32604523Y86970869D01*
X32271190Y86256583D01*
X31937857Y86970869D01*
X31937857Y85970869D01*
X30937857Y85970869D02*
X31509285Y85970869D01*
X31223571Y85970869D02*
X31223571Y86970869D01*
X31318809Y86828011D01*
X31414047Y86732773D01*
X31509285Y86685154D01*
X233402380Y41695535D02*
X232402380Y41695535D01*
X232402380Y41457440D01*
X232450000Y41314583D01*
X232545238Y41219345D01*
X232640476Y41171726D01*
X232830952Y41124107D01*
X232973809Y41124107D01*
X233164285Y41171726D01*
X233259523Y41219345D01*
X233354761Y41314583D01*
X233402380Y41457440D01*
X233402380Y41695535D01*
X232402380Y40219345D02*
X232402380Y40695535D01*
X232878571Y40743154D01*
X232830952Y40695535D01*
X232783333Y40600297D01*
X232783333Y40362202D01*
X232830952Y40266964D01*
X232878571Y40219345D01*
X232973809Y40171726D01*
X233211904Y40171726D01*
X233307142Y40219345D01*
X233354761Y40266964D01*
X233402380Y40362202D01*
X233402380Y40600297D01*
X233354761Y40695535D01*
X233307142Y40743154D01*
X232402380Y39838392D02*
X232402380Y39219345D01*
X232783333Y39552678D01*
X232783333Y39409821D01*
X232830952Y39314583D01*
X232878571Y39266964D01*
X232973809Y39219345D01*
X233211904Y39219345D01*
X233307142Y39266964D01*
X233354761Y39314583D01*
X233402380Y39409821D01*
X233402380Y39695535D01*
X233354761Y39790773D01*
X233307142Y39838392D01*
X51664880Y79319345D02*
X50664880Y79319345D01*
X50664880Y79081250D01*
X50712500Y78938392D01*
X50807738Y78843154D01*
X50902976Y78795535D01*
X51093452Y78747916D01*
X51236309Y78747916D01*
X51426785Y78795535D01*
X51522023Y78843154D01*
X51617261Y78938392D01*
X51664880Y79081250D01*
X51664880Y79319345D01*
X50664880Y77890773D02*
X50664880Y78081250D01*
X50712500Y78176488D01*
X50760119Y78224107D01*
X50902976Y78319345D01*
X51093452Y78366964D01*
X51474404Y78366964D01*
X51569642Y78319345D01*
X51617261Y78271726D01*
X51664880Y78176488D01*
X51664880Y77986011D01*
X51617261Y77890773D01*
X51569642Y77843154D01*
X51474404Y77795535D01*
X51236309Y77795535D01*
X51141071Y77843154D01*
X51093452Y77890773D01*
X51045833Y77986011D01*
X51045833Y78176488D01*
X51093452Y78271726D01*
X51141071Y78319345D01*
X51236309Y78366964D01*
X180252380Y41695535D02*
X179252380Y41695535D01*
X179252380Y41457440D01*
X179300000Y41314583D01*
X179395238Y41219345D01*
X179490476Y41171726D01*
X179680952Y41124107D01*
X179823809Y41124107D01*
X180014285Y41171726D01*
X180109523Y41219345D01*
X180204761Y41314583D01*
X180252380Y41457440D01*
X180252380Y41695535D01*
X179252380Y40790773D02*
X179252380Y40171726D01*
X179633333Y40505059D01*
X179633333Y40362202D01*
X179680952Y40266964D01*
X179728571Y40219345D01*
X179823809Y40171726D01*
X180061904Y40171726D01*
X180157142Y40219345D01*
X180204761Y40266964D01*
X180252380Y40362202D01*
X180252380Y40647916D01*
X180204761Y40743154D01*
X180157142Y40790773D01*
X179680952Y39600297D02*
X179633333Y39695535D01*
X179585714Y39743154D01*
X179490476Y39790773D01*
X179442857Y39790773D01*
X179347619Y39743154D01*
X179300000Y39695535D01*
X179252380Y39600297D01*
X179252380Y39409821D01*
X179300000Y39314583D01*
X179347619Y39266964D01*
X179442857Y39219345D01*
X179490476Y39219345D01*
X179585714Y39266964D01*
X179633333Y39314583D01*
X179680952Y39409821D01*
X179680952Y39600297D01*
X179728571Y39695535D01*
X179776190Y39743154D01*
X179871428Y39790773D01*
X180061904Y39790773D01*
X180157142Y39743154D01*
X180204761Y39695535D01*
X180252380Y39600297D01*
X180252380Y39409821D01*
X180204761Y39314583D01*
X180157142Y39266964D01*
X180061904Y39219345D01*
X179871428Y39219345D01*
X179776190Y39266964D01*
X179728571Y39314583D01*
X179680952Y39409821D01*
X99289880Y60745535D02*
X98289880Y60745535D01*
X98289880Y60507440D01*
X98337500Y60364583D01*
X98432738Y60269345D01*
X98527976Y60221726D01*
X98718452Y60174107D01*
X98861309Y60174107D01*
X99051785Y60221726D01*
X99147023Y60269345D01*
X99242261Y60364583D01*
X99289880Y60507440D01*
X99289880Y60745535D01*
X99289880Y59221726D02*
X99289880Y59793154D01*
X99289880Y59507440D02*
X98289880Y59507440D01*
X98432738Y59602678D01*
X98527976Y59697916D01*
X98575595Y59793154D01*
X98289880Y58888392D02*
X98289880Y58221726D01*
X99289880Y58650297D01*
X76239880Y60745535D02*
X75239880Y60745535D01*
X75239880Y60507440D01*
X75287500Y60364583D01*
X75382738Y60269345D01*
X75477976Y60221726D01*
X75668452Y60174107D01*
X75811309Y60174107D01*
X76001785Y60221726D01*
X76097023Y60269345D01*
X76192261Y60364583D01*
X76239880Y60507440D01*
X76239880Y60745535D01*
X76239880Y59221726D02*
X76239880Y59793154D01*
X76239880Y59507440D02*
X75239880Y59507440D01*
X75382738Y59602678D01*
X75477976Y59697916D01*
X75525595Y59793154D01*
X75335119Y58840773D02*
X75287500Y58793154D01*
X75239880Y58697916D01*
X75239880Y58459821D01*
X75287500Y58364583D01*
X75335119Y58316964D01*
X75430357Y58269345D01*
X75525595Y58269345D01*
X75668452Y58316964D01*
X76239880Y58888392D01*
X76239880Y58269345D01*
X204827380Y22645535D02*
X203827380Y22645535D01*
X203827380Y22407440D01*
X203875000Y22264583D01*
X203970238Y22169345D01*
X204065476Y22121726D01*
X204255952Y22074107D01*
X204398809Y22074107D01*
X204589285Y22121726D01*
X204684523Y22169345D01*
X204779761Y22264583D01*
X204827380Y22407440D01*
X204827380Y22645535D01*
X204160714Y21216964D02*
X204827380Y21216964D01*
X203779761Y21455059D02*
X204494047Y21693154D01*
X204494047Y21074107D01*
X204160714Y20264583D02*
X204827380Y20264583D01*
X203779761Y20502678D02*
X204494047Y20740773D01*
X204494047Y20121726D01*
X293727380Y79795535D02*
X292727380Y79795535D01*
X292727380Y79557440D01*
X292775000Y79414583D01*
X292870238Y79319345D01*
X292965476Y79271726D01*
X293155952Y79224107D01*
X293298809Y79224107D01*
X293489285Y79271726D01*
X293584523Y79319345D01*
X293679761Y79414583D01*
X293727380Y79557440D01*
X293727380Y79795535D01*
X293060714Y78366964D02*
X293727380Y78366964D01*
X292679761Y78605059D02*
X293394047Y78843154D01*
X293394047Y78224107D01*
X292727380Y77366964D02*
X292727380Y77843154D01*
X293203571Y77890773D01*
X293155952Y77843154D01*
X293108333Y77747916D01*
X293108333Y77509821D01*
X293155952Y77414583D01*
X293203571Y77366964D01*
X293298809Y77319345D01*
X293536904Y77319345D01*
X293632142Y77366964D01*
X293679761Y77414583D01*
X293727380Y77509821D01*
X293727380Y77747916D01*
X293679761Y77843154D01*
X293632142Y77890773D01*
X75477380Y22169345D02*
X74477380Y22169345D01*
X74477380Y21931250D01*
X74525000Y21788392D01*
X74620238Y21693154D01*
X74715476Y21645535D01*
X74905952Y21597916D01*
X75048809Y21597916D01*
X75239285Y21645535D01*
X75334523Y21693154D01*
X75429761Y21788392D01*
X75477380Y21931250D01*
X75477380Y22169345D01*
X75477380Y21121726D02*
X75477380Y20931250D01*
X75429761Y20836011D01*
X75382142Y20788392D01*
X75239285Y20693154D01*
X75048809Y20645535D01*
X74667857Y20645535D01*
X74572619Y20693154D01*
X74525000Y20740773D01*
X74477380Y20836011D01*
X74477380Y21026488D01*
X74525000Y21121726D01*
X74572619Y21169345D01*
X74667857Y21216964D01*
X74905952Y21216964D01*
X75001190Y21169345D01*
X75048809Y21121726D01*
X75096428Y21026488D01*
X75096428Y20836011D01*
X75048809Y20740773D01*
X75001190Y20693154D01*
X74905952Y20645535D01*
X213589880Y60745535D02*
X212589880Y60745535D01*
X212589880Y60507440D01*
X212637500Y60364583D01*
X212732738Y60269345D01*
X212827976Y60221726D01*
X213018452Y60174107D01*
X213161309Y60174107D01*
X213351785Y60221726D01*
X213447023Y60269345D01*
X213542261Y60364583D01*
X213589880Y60507440D01*
X213589880Y60745535D01*
X212923214Y59316964D02*
X213589880Y59316964D01*
X212542261Y59555059D02*
X213256547Y59793154D01*
X213256547Y59174107D01*
X212589880Y58888392D02*
X212589880Y58221726D01*
X213589880Y58650297D01*
X42902380Y41219345D02*
X41902380Y41219345D01*
X41902380Y40981250D01*
X41950000Y40838392D01*
X42045238Y40743154D01*
X42140476Y40695535D01*
X42330952Y40647916D01*
X42473809Y40647916D01*
X42664285Y40695535D01*
X42759523Y40743154D01*
X42854761Y40838392D01*
X42902380Y40981250D01*
X42902380Y41219345D01*
X41902380Y40314583D02*
X41902380Y39695535D01*
X42283333Y40028869D01*
X42283333Y39886011D01*
X42330952Y39790773D01*
X42378571Y39743154D01*
X42473809Y39695535D01*
X42711904Y39695535D01*
X42807142Y39743154D01*
X42854761Y39790773D01*
X42902380Y39886011D01*
X42902380Y40171726D01*
X42854761Y40266964D01*
X42807142Y40314583D01*
X128627380Y22645535D02*
X127627380Y22645535D01*
X127627380Y22407440D01*
X127675000Y22264583D01*
X127770238Y22169345D01*
X127865476Y22121726D01*
X128055952Y22074107D01*
X128198809Y22074107D01*
X128389285Y22121726D01*
X128484523Y22169345D01*
X128579761Y22264583D01*
X128627380Y22407440D01*
X128627380Y22645535D01*
X127722619Y21693154D02*
X127675000Y21645535D01*
X127627380Y21550297D01*
X127627380Y21312202D01*
X127675000Y21216964D01*
X127722619Y21169345D01*
X127817857Y21121726D01*
X127913095Y21121726D01*
X128055952Y21169345D01*
X128627380Y21740773D01*
X128627380Y21121726D01*
X127960714Y20264583D02*
X128627380Y20264583D01*
X127579761Y20502678D02*
X128294047Y20740773D01*
X128294047Y20121726D01*
X81002380Y41695535D02*
X80002380Y41695535D01*
X80002380Y41457440D01*
X80050000Y41314583D01*
X80145238Y41219345D01*
X80240476Y41171726D01*
X80430952Y41124107D01*
X80573809Y41124107D01*
X80764285Y41171726D01*
X80859523Y41219345D01*
X80954761Y41314583D01*
X81002380Y41457440D01*
X81002380Y41695535D01*
X81002380Y40171726D02*
X81002380Y40743154D01*
X81002380Y40457440D02*
X80002380Y40457440D01*
X80145238Y40552678D01*
X80240476Y40647916D01*
X80288095Y40743154D01*
X80002380Y39838392D02*
X80002380Y39219345D01*
X80383333Y39552678D01*
X80383333Y39409821D01*
X80430952Y39314583D01*
X80478571Y39266964D01*
X80573809Y39219345D01*
X80811904Y39219345D01*
X80907142Y39266964D01*
X80954761Y39314583D01*
X81002380Y39409821D01*
X81002380Y39695535D01*
X80954761Y39790773D01*
X80907142Y39838392D01*
X227877380Y22645535D02*
X226877380Y22645535D01*
X226877380Y22407440D01*
X226925000Y22264583D01*
X227020238Y22169345D01*
X227115476Y22121726D01*
X227305952Y22074107D01*
X227448809Y22074107D01*
X227639285Y22121726D01*
X227734523Y22169345D01*
X227829761Y22264583D01*
X227877380Y22407440D01*
X227877380Y22645535D01*
X227210714Y21216964D02*
X227877380Y21216964D01*
X226829761Y21455059D02*
X227544047Y21693154D01*
X227544047Y21074107D01*
X227877380Y20645535D02*
X227877380Y20455059D01*
X227829761Y20359821D01*
X227782142Y20312202D01*
X227639285Y20216964D01*
X227448809Y20169345D01*
X227067857Y20169345D01*
X226972619Y20216964D01*
X226925000Y20264583D01*
X226877380Y20359821D01*
X226877380Y20550297D01*
X226925000Y20645535D01*
X226972619Y20693154D01*
X227067857Y20740773D01*
X227305952Y20740773D01*
X227401190Y20693154D01*
X227448809Y20645535D01*
X227496428Y20550297D01*
X227496428Y20359821D01*
X227448809Y20264583D01*
X227401190Y20216964D01*
X227305952Y20169345D01*
X165964880Y79795535D02*
X164964880Y79795535D01*
X164964880Y79557440D01*
X165012500Y79414583D01*
X165107738Y79319345D01*
X165202976Y79271726D01*
X165393452Y79224107D01*
X165536309Y79224107D01*
X165726785Y79271726D01*
X165822023Y79319345D01*
X165917261Y79414583D01*
X165964880Y79557440D01*
X165964880Y79795535D01*
X164964880Y78890773D02*
X164964880Y78271726D01*
X165345833Y78605059D01*
X165345833Y78462202D01*
X165393452Y78366964D01*
X165441071Y78319345D01*
X165536309Y78271726D01*
X165774404Y78271726D01*
X165869642Y78319345D01*
X165917261Y78366964D01*
X165964880Y78462202D01*
X165964880Y78747916D01*
X165917261Y78843154D01*
X165869642Y78890773D01*
X164964880Y77414583D02*
X164964880Y77605059D01*
X165012500Y77700297D01*
X165060119Y77747916D01*
X165202976Y77843154D01*
X165393452Y77890773D01*
X165774404Y77890773D01*
X165869642Y77843154D01*
X165917261Y77795535D01*
X165964880Y77700297D01*
X165964880Y77509821D01*
X165917261Y77414583D01*
X165869642Y77366964D01*
X165774404Y77319345D01*
X165536309Y77319345D01*
X165441071Y77366964D01*
X165393452Y77414583D01*
X165345833Y77509821D01*
X165345833Y77700297D01*
X165393452Y77795535D01*
X165441071Y77843154D01*
X165536309Y77890773D01*
X276645535Y40441369D02*
X276645535Y41441369D01*
X276407440Y41441369D01*
X276264583Y41393750D01*
X276169345Y41298511D01*
X276121726Y41203273D01*
X276074107Y41012797D01*
X276074107Y40869940D01*
X276121726Y40679464D01*
X276169345Y40584226D01*
X276264583Y40488988D01*
X276407440Y40441369D01*
X276645535Y40441369D01*
X275169345Y41441369D02*
X275645535Y41441369D01*
X275693154Y40965178D01*
X275645535Y41012797D01*
X275550297Y41060416D01*
X275312202Y41060416D01*
X275216964Y41012797D01*
X275169345Y40965178D01*
X275121726Y40869940D01*
X275121726Y40631845D01*
X275169345Y40536607D01*
X275216964Y40488988D01*
X275312202Y40441369D01*
X275550297Y40441369D01*
X275645535Y40488988D01*
X275693154Y40536607D01*
X274645535Y40441369D02*
X274455059Y40441369D01*
X274359821Y40488988D01*
X274312202Y40536607D01*
X274216964Y40679464D01*
X274169345Y40869940D01*
X274169345Y41250892D01*
X274216964Y41346130D01*
X274264583Y41393750D01*
X274359821Y41441369D01*
X274550297Y41441369D01*
X274645535Y41393750D01*
X274693154Y41346130D01*
X274740773Y41250892D01*
X274740773Y41012797D01*
X274693154Y40917559D01*
X274645535Y40869940D01*
X274550297Y40822321D01*
X274359821Y40822321D01*
X274264583Y40869940D01*
X274216964Y40917559D01*
X274169345Y41012797D01*
X90527380Y22645535D02*
X89527380Y22645535D01*
X89527380Y22407440D01*
X89575000Y22264583D01*
X89670238Y22169345D01*
X89765476Y22121726D01*
X89955952Y22074107D01*
X90098809Y22074107D01*
X90289285Y22121726D01*
X90384523Y22169345D01*
X90479761Y22264583D01*
X90527380Y22407440D01*
X90527380Y22645535D01*
X90527380Y21121726D02*
X90527380Y21693154D01*
X90527380Y21407440D02*
X89527380Y21407440D01*
X89670238Y21502678D01*
X89765476Y21597916D01*
X89813095Y21693154D01*
X89860714Y20264583D02*
X90527380Y20264583D01*
X89479761Y20502678D02*
X90194047Y20740773D01*
X90194047Y20121726D01*
X204064880Y79795535D02*
X203064880Y79795535D01*
X203064880Y79557440D01*
X203112500Y79414583D01*
X203207738Y79319345D01*
X203302976Y79271726D01*
X203493452Y79224107D01*
X203636309Y79224107D01*
X203826785Y79271726D01*
X203922023Y79319345D01*
X204017261Y79414583D01*
X204064880Y79557440D01*
X204064880Y79795535D01*
X203398214Y78366964D02*
X204064880Y78366964D01*
X203017261Y78605059D02*
X203731547Y78843154D01*
X203731547Y78224107D01*
X203064880Y77414583D02*
X203064880Y77605059D01*
X203112500Y77700297D01*
X203160119Y77747916D01*
X203302976Y77843154D01*
X203493452Y77890773D01*
X203874404Y77890773D01*
X203969642Y77843154D01*
X204017261Y77795535D01*
X204064880Y77700297D01*
X204064880Y77509821D01*
X204017261Y77414583D01*
X203969642Y77366964D01*
X203874404Y77319345D01*
X203636309Y77319345D01*
X203541071Y77366964D01*
X203493452Y77414583D01*
X203445833Y77509821D01*
X203445833Y77700297D01*
X203493452Y77795535D01*
X203541071Y77843154D01*
X203636309Y77890773D01*
X251689880Y60745535D02*
X250689880Y60745535D01*
X250689880Y60507440D01*
X250737500Y60364583D01*
X250832738Y60269345D01*
X250927976Y60221726D01*
X251118452Y60174107D01*
X251261309Y60174107D01*
X251451785Y60221726D01*
X251547023Y60269345D01*
X251642261Y60364583D01*
X251689880Y60507440D01*
X251689880Y60745535D01*
X250689880Y59269345D02*
X250689880Y59745535D01*
X251166071Y59793154D01*
X251118452Y59745535D01*
X251070833Y59650297D01*
X251070833Y59412202D01*
X251118452Y59316964D01*
X251166071Y59269345D01*
X251261309Y59221726D01*
X251499404Y59221726D01*
X251594642Y59269345D01*
X251642261Y59316964D01*
X251689880Y59412202D01*
X251689880Y59650297D01*
X251642261Y59745535D01*
X251594642Y59793154D01*
X250689880Y58364583D02*
X250689880Y58555059D01*
X250737500Y58650297D01*
X250785119Y58697916D01*
X250927976Y58793154D01*
X251118452Y58840773D01*
X251499404Y58840773D01*
X251594642Y58793154D01*
X251642261Y58745535D01*
X251689880Y58650297D01*
X251689880Y58459821D01*
X251642261Y58364583D01*
X251594642Y58316964D01*
X251499404Y58269345D01*
X251261309Y58269345D01*
X251166071Y58316964D01*
X251118452Y58364583D01*
X251070833Y58459821D01*
X251070833Y58650297D01*
X251118452Y58745535D01*
X251166071Y58793154D01*
X251261309Y58840773D01*
X104052380Y41695535D02*
X103052380Y41695535D01*
X103052380Y41457440D01*
X103100000Y41314583D01*
X103195238Y41219345D01*
X103290476Y41171726D01*
X103480952Y41124107D01*
X103623809Y41124107D01*
X103814285Y41171726D01*
X103909523Y41219345D01*
X104004761Y41314583D01*
X104052380Y41457440D01*
X104052380Y41695535D01*
X104052380Y40171726D02*
X104052380Y40743154D01*
X104052380Y40457440D02*
X103052380Y40457440D01*
X103195238Y40552678D01*
X103290476Y40647916D01*
X103338095Y40743154D01*
X103480952Y39600297D02*
X103433333Y39695535D01*
X103385714Y39743154D01*
X103290476Y39790773D01*
X103242857Y39790773D01*
X103147619Y39743154D01*
X103100000Y39695535D01*
X103052380Y39600297D01*
X103052380Y39409821D01*
X103100000Y39314583D01*
X103147619Y39266964D01*
X103242857Y39219345D01*
X103290476Y39219345D01*
X103385714Y39266964D01*
X103433333Y39314583D01*
X103480952Y39409821D01*
X103480952Y39600297D01*
X103528571Y39695535D01*
X103576190Y39743154D01*
X103671428Y39790773D01*
X103861904Y39790773D01*
X103957142Y39743154D01*
X104004761Y39695535D01*
X104052380Y39600297D01*
X104052380Y39409821D01*
X104004761Y39314583D01*
X103957142Y39266964D01*
X103861904Y39219345D01*
X103671428Y39219345D01*
X103576190Y39266964D01*
X103528571Y39314583D01*
X103480952Y39409821D01*
X166727380Y22645535D02*
X165727380Y22645535D01*
X165727380Y22407440D01*
X165775000Y22264583D01*
X165870238Y22169345D01*
X165965476Y22121726D01*
X166155952Y22074107D01*
X166298809Y22074107D01*
X166489285Y22121726D01*
X166584523Y22169345D01*
X166679761Y22264583D01*
X166727380Y22407440D01*
X166727380Y22645535D01*
X165727380Y21740773D02*
X165727380Y21121726D01*
X166108333Y21455059D01*
X166108333Y21312202D01*
X166155952Y21216964D01*
X166203571Y21169345D01*
X166298809Y21121726D01*
X166536904Y21121726D01*
X166632142Y21169345D01*
X166679761Y21216964D01*
X166727380Y21312202D01*
X166727380Y21597916D01*
X166679761Y21693154D01*
X166632142Y21740773D01*
X166060714Y20264583D02*
X166727380Y20264583D01*
X165679761Y20502678D02*
X166394047Y20740773D01*
X166394047Y20121726D01*
X261214880Y79795535D02*
X260214880Y79795535D01*
X260214880Y79557440D01*
X260262500Y79414583D01*
X260357738Y79319345D01*
X260452976Y79271726D01*
X260643452Y79224107D01*
X260786309Y79224107D01*
X260976785Y79271726D01*
X261072023Y79319345D01*
X261167261Y79414583D01*
X261214880Y79557440D01*
X261214880Y79795535D01*
X260548214Y78366964D02*
X261214880Y78366964D01*
X260167261Y78605059D02*
X260881547Y78843154D01*
X260881547Y78224107D01*
X260214880Y77652678D02*
X260214880Y77557440D01*
X260262500Y77462202D01*
X260310119Y77414583D01*
X260405357Y77366964D01*
X260595833Y77319345D01*
X260833928Y77319345D01*
X261024404Y77366964D01*
X261119642Y77414583D01*
X261167261Y77462202D01*
X261214880Y77557440D01*
X261214880Y77652678D01*
X261167261Y77747916D01*
X261119642Y77795535D01*
X261024404Y77843154D01*
X260833928Y77890773D01*
X260595833Y77890773D01*
X260405357Y77843154D01*
X260310119Y77795535D01*
X260262500Y77747916D01*
X260214880Y77652678D01*
X61189880Y60269345D02*
X60189880Y60269345D01*
X60189880Y60031250D01*
X60237500Y59888392D01*
X60332738Y59793154D01*
X60427976Y59745535D01*
X60618452Y59697916D01*
X60761309Y59697916D01*
X60951785Y59745535D01*
X61047023Y59793154D01*
X61142261Y59888392D01*
X61189880Y60031250D01*
X61189880Y60269345D01*
X60189880Y59364583D02*
X60189880Y58697916D01*
X61189880Y59126488D01*
X44489880Y22169345D02*
X43489880Y22169345D01*
X43489880Y21931250D01*
X43537500Y21788392D01*
X43632738Y21693154D01*
X43727976Y21645535D01*
X43918452Y21597916D01*
X44061309Y21597916D01*
X44251785Y21645535D01*
X44347023Y21693154D01*
X44442261Y21788392D01*
X44489880Y21931250D01*
X44489880Y22169345D01*
X43823214Y20740773D02*
X44489880Y20740773D01*
X43442261Y20978869D02*
X44156547Y21216964D01*
X44156547Y20597916D01*
X85764880Y5183035D02*
X84764880Y5183035D01*
X84764880Y4944940D01*
X84812500Y4802083D01*
X84907738Y4706845D01*
X85002976Y4659226D01*
X85193452Y4611607D01*
X85336309Y4611607D01*
X85526785Y4659226D01*
X85622023Y4706845D01*
X85717261Y4802083D01*
X85764880Y4944940D01*
X85764880Y5183035D01*
X85764880Y3659226D02*
X85764880Y4230654D01*
X85764880Y3944940D02*
X84764880Y3944940D01*
X84907738Y4040178D01*
X85002976Y4135416D01*
X85050595Y4230654D01*
X84764880Y2754464D02*
X84764880Y3230654D01*
X85241071Y3278273D01*
X85193452Y3230654D01*
X85145833Y3135416D01*
X85145833Y2897321D01*
X85193452Y2802083D01*
X85241071Y2754464D01*
X85336309Y2706845D01*
X85574404Y2706845D01*
X85669642Y2754464D01*
X85717261Y2802083D01*
X85764880Y2897321D01*
X85764880Y3135416D01*
X85717261Y3230654D01*
X85669642Y3278273D01*
X152439880Y60745535D02*
X151439880Y60745535D01*
X151439880Y60507440D01*
X151487500Y60364583D01*
X151582738Y60269345D01*
X151677976Y60221726D01*
X151868452Y60174107D01*
X152011309Y60174107D01*
X152201785Y60221726D01*
X152297023Y60269345D01*
X152392261Y60364583D01*
X152439880Y60507440D01*
X152439880Y60745535D01*
X151439880Y59840773D02*
X151439880Y59221726D01*
X151820833Y59555059D01*
X151820833Y59412202D01*
X151868452Y59316964D01*
X151916071Y59269345D01*
X152011309Y59221726D01*
X152249404Y59221726D01*
X152344642Y59269345D01*
X152392261Y59316964D01*
X152439880Y59412202D01*
X152439880Y59697916D01*
X152392261Y59793154D01*
X152344642Y59840773D01*
X151535119Y58840773D02*
X151487500Y58793154D01*
X151439880Y58697916D01*
X151439880Y58459821D01*
X151487500Y58364583D01*
X151535119Y58316964D01*
X151630357Y58269345D01*
X151725595Y58269345D01*
X151868452Y58316964D01*
X152439880Y58888392D01*
X152439880Y58269345D01*
X218352380Y41695535D02*
X217352380Y41695535D01*
X217352380Y41457440D01*
X217400000Y41314583D01*
X217495238Y41219345D01*
X217590476Y41171726D01*
X217780952Y41124107D01*
X217923809Y41124107D01*
X218114285Y41171726D01*
X218209523Y41219345D01*
X218304761Y41314583D01*
X218352380Y41457440D01*
X218352380Y41695535D01*
X217685714Y40266964D02*
X218352380Y40266964D01*
X217304761Y40505059D02*
X218019047Y40743154D01*
X218019047Y40124107D01*
X217780952Y39600297D02*
X217733333Y39695535D01*
X217685714Y39743154D01*
X217590476Y39790773D01*
X217542857Y39790773D01*
X217447619Y39743154D01*
X217400000Y39695535D01*
X217352380Y39600297D01*
X217352380Y39409821D01*
X217400000Y39314583D01*
X217447619Y39266964D01*
X217542857Y39219345D01*
X217590476Y39219345D01*
X217685714Y39266964D01*
X217733333Y39314583D01*
X217780952Y39409821D01*
X217780952Y39600297D01*
X217828571Y39695535D01*
X217876190Y39743154D01*
X217971428Y39790773D01*
X218161904Y39790773D01*
X218257142Y39743154D01*
X218304761Y39695535D01*
X218352380Y39600297D01*
X218352380Y39409821D01*
X218304761Y39314583D01*
X218257142Y39266964D01*
X218161904Y39219345D01*
X217971428Y39219345D01*
X217876190Y39266964D01*
X217828571Y39314583D01*
X217780952Y39409821D01*
X251245535Y17391369D02*
X251245535Y18391369D01*
X251007440Y18391369D01*
X250864583Y18343750D01*
X250769345Y18248511D01*
X250721726Y18153273D01*
X250674107Y17962797D01*
X250674107Y17819940D01*
X250721726Y17629464D01*
X250769345Y17534226D01*
X250864583Y17438988D01*
X251007440Y17391369D01*
X251245535Y17391369D01*
X249769345Y18391369D02*
X250245535Y18391369D01*
X250293154Y17915178D01*
X250245535Y17962797D01*
X250150297Y18010416D01*
X249912202Y18010416D01*
X249816964Y17962797D01*
X249769345Y17915178D01*
X249721726Y17819940D01*
X249721726Y17581845D01*
X249769345Y17486607D01*
X249816964Y17438988D01*
X249912202Y17391369D01*
X250150297Y17391369D01*
X250245535Y17438988D01*
X250293154Y17486607D01*
X249150297Y17962797D02*
X249245535Y18010416D01*
X249293154Y18058035D01*
X249340773Y18153273D01*
X249340773Y18200892D01*
X249293154Y18296130D01*
X249245535Y18343750D01*
X249150297Y18391369D01*
X248959821Y18391369D01*
X248864583Y18343750D01*
X248816964Y18296130D01*
X248769345Y18200892D01*
X248769345Y18153273D01*
X248816964Y18058035D01*
X248864583Y18010416D01*
X248959821Y17962797D01*
X249150297Y17962797D01*
X249245535Y17915178D01*
X249293154Y17867559D01*
X249340773Y17772321D01*
X249340773Y17581845D01*
X249293154Y17486607D01*
X249245535Y17438988D01*
X249150297Y17391369D01*
X248959821Y17391369D01*
X248864583Y17438988D01*
X248816964Y17486607D01*
X248769345Y17581845D01*
X248769345Y17772321D01*
X248816964Y17867559D01*
X248864583Y17915178D01*
X248959821Y17962797D01*
X66714880Y79795535D02*
X65714880Y79795535D01*
X65714880Y79557440D01*
X65762500Y79414583D01*
X65857738Y79319345D01*
X65952976Y79271726D01*
X66143452Y79224107D01*
X66286309Y79224107D01*
X66476785Y79271726D01*
X66572023Y79319345D01*
X66667261Y79414583D01*
X66714880Y79557440D01*
X66714880Y79795535D01*
X66714880Y78271726D02*
X66714880Y78843154D01*
X66714880Y78557440D02*
X65714880Y78557440D01*
X65857738Y78652678D01*
X65952976Y78747916D01*
X66000595Y78843154D01*
X66714880Y77319345D02*
X66714880Y77890773D01*
X66714880Y77605059D02*
X65714880Y77605059D01*
X65857738Y77700297D01*
X65952976Y77795535D01*
X66000595Y77890773D01*
D11*
X105362500Y80831250D02*
X107362500Y80831250D01*
X107362500Y80831250D02*
X107362500Y76931250D01*
X105362500Y80831250D02*
X105362500Y76931250D01*
X240712500Y76331250D02*
X240712500Y80231250D01*
X240712500Y76331250D02*
X238712500Y76331250D01*
X238712500Y76331250D02*
X238712500Y80231250D01*
X174831250Y1718750D02*
X174831250Y5618750D01*
X172831250Y1718750D02*
X172831250Y5618750D01*
X174831250Y1718750D02*
X172831250Y1718750D01*
X157750000Y42731250D02*
X159750000Y42731250D01*
X157750000Y42731250D02*
X157750000Y38831250D01*
X159750000Y42731250D02*
X159750000Y38831250D01*
X124412500Y76331250D02*
X124412500Y80231250D01*
X126412500Y76331250D02*
X126412500Y80231250D01*
X126412500Y76331250D02*
X124412500Y76331250D01*
X121650000Y42731250D02*
X121650000Y38831250D01*
X119650000Y42731250D02*
X119650000Y38831250D01*
X119650000Y42731250D02*
X121650000Y42731250D01*
X197850000Y42731250D02*
X197850000Y38831250D01*
X195850000Y42731250D02*
X197850000Y42731250D01*
X195850000Y42731250D02*
X195850000Y38831250D01*
X269287500Y61781250D02*
X269287500Y57881250D01*
X267287500Y61781250D02*
X267287500Y57881250D01*
X267287500Y61781250D02*
X269287500Y61781250D01*
X38687500Y6218750D02*
X38687500Y2318750D01*
X38687500Y6218750D02*
X40687500Y6218750D01*
X40687500Y6218750D02*
X40687500Y2318750D01*
X62500000Y38231250D02*
X62500000Y42131250D01*
X64500000Y38231250D02*
X64500000Y42131250D01*
X64500000Y38231250D02*
X62500000Y38231250D01*
X40687500Y61781250D02*
X40687500Y57881250D01*
X38687500Y61781250D02*
X40687500Y61781250D01*
X38687500Y61781250D02*
X38687500Y57881250D01*
X174037500Y57281250D02*
X174037500Y61181250D01*
X172037500Y57281250D02*
X172037500Y61181250D01*
X174037500Y57281250D02*
X172037500Y57281250D01*
X231187500Y61781250D02*
X231187500Y57881250D01*
X229187500Y61781250D02*
X229187500Y57881250D01*
X229187500Y61781250D02*
X231187500Y61781250D01*
X150225000Y19181250D02*
X150225000Y23081250D01*
X148225000Y19181250D02*
X148225000Y23081250D01*
X150225000Y19181250D02*
X148225000Y19181250D01*
X114887500Y61781250D02*
X114887500Y57881250D01*
X114887500Y61781250D02*
X116887500Y61781250D01*
X116887500Y61781250D02*
X116887500Y57881250D01*
X253000000Y38231250D02*
X253000000Y42131250D01*
X255000000Y38231250D02*
X255000000Y42131250D01*
X255000000Y38231250D02*
X253000000Y38231250D01*
X112125000Y19181250D02*
X110125000Y19181250D01*
X110125000Y19181250D02*
X110125000Y23081250D01*
X112125000Y19181250D02*
X112125000Y23081250D01*
X140700000Y38231250D02*
X138700000Y38231250D01*
X138700000Y38231250D02*
X138700000Y42131250D01*
X140700000Y38231250D02*
X140700000Y42131250D01*
X88312500Y76331250D02*
X86312500Y76331250D01*
X86312500Y76331250D02*
X86312500Y80231250D01*
X88312500Y76331250D02*
X88312500Y80231250D01*
X186325000Y19181250D02*
X186325000Y23081250D01*
X188325000Y19181250D02*
X188325000Y23081250D01*
X188325000Y19181250D02*
X186325000Y19181250D01*
X143462500Y80831250D02*
X143462500Y76931250D01*
X143462500Y80831250D02*
X145462500Y80831250D01*
X145462500Y80831250D02*
X145462500Y76931250D01*
X191087500Y61781250D02*
X191087500Y57881250D01*
X193087500Y61781250D02*
X193087500Y57881250D01*
X191087500Y61781250D02*
X193087500Y61781250D01*
X267287500Y1718750D02*
X267287500Y5618750D01*
X269287500Y1718750D02*
X269287500Y5618750D01*
X269287500Y1718750D02*
X267287500Y1718750D01*
X243475000Y23681250D02*
X243475000Y19781250D01*
X243475000Y23681250D02*
X245475000Y23681250D01*
X245475000Y23681250D02*
X245475000Y19781250D01*
X272462500Y6218750D02*
X272462500Y2318750D01*
X270462500Y6218750D02*
X270462500Y2318750D01*
X270462500Y6218750D02*
X272462500Y6218750D01*
X248237500Y6218750D02*
X248237500Y2318750D01*
X250237500Y6218750D02*
X250237500Y2318750D01*
X248237500Y6218750D02*
X250237500Y6218750D01*
X14081250Y80768750D02*
X14081250Y76868750D01*
X14081250Y80768750D02*
X16081250Y80768750D01*
X16081250Y80768750D02*
X16081250Y76868750D01*
X296275000Y57812500D02*
X296275000Y53912500D01*
X294275000Y57812500D02*
X296275000Y57812500D01*
X294275000Y57812500D02*
X294275000Y53912500D01*
X181562500Y80831250D02*
X183562500Y80831250D01*
X183562500Y80831250D02*
X183562500Y76931250D01*
X181562500Y80831250D02*
X181562500Y76931250D01*
X221662500Y80831250D02*
X221662500Y76931250D01*
X219662500Y80831250D02*
X219662500Y76931250D01*
X219662500Y80831250D02*
X221662500Y80831250D01*
X135937500Y57281250D02*
X135937500Y61181250D01*
X135937500Y57281250D02*
X133937500Y57281250D01*
X133937500Y57281250D02*
X133937500Y61181250D01*
X57737500Y1718750D02*
X57737500Y5618750D01*
X59737500Y1718750D02*
X57737500Y1718750D01*
X59737500Y1718750D02*
X59737500Y5618750D01*
X24175000Y73723250D02*
X39415000Y73723250D01*
X22905000Y93535250D02*
X22905000Y74993250D01*
X40685000Y74993250D02*
X40685000Y93535250D01*
X39415000Y94805250D02*
X24175000Y94805250D01*
X36295000Y94805250D02*
X27295000Y94805250D01*
X27295000Y94805250D02*
X27295000Y96329250D01*
X27295000Y96329250D02*
X36295000Y96329250D01*
X36295000Y96329250D02*
X36295000Y94805250D01*
X22905000Y74993250D02*
G75*
G03*
X24175000Y73723250I1270000J0D01*
G01*
X39415000Y73723250D02*
G75*
G03*
X40685000Y74993250I0J1270000D01*
G01*
X40685000Y93535250D02*
G75*
G03*
X39415000Y94805250I-1270000J0D01*
G01*
X24175000Y94805250D02*
G75*
G03*
X22905000Y93535250I0J-1270000D01*
G01*
X233950000Y42731250D02*
X235950000Y42731250D01*
X233950000Y42731250D02*
X233950000Y38831250D01*
X235950000Y42731250D02*
X235950000Y38831250D01*
X50212500Y76331250D02*
X48212500Y76331250D01*
X50212500Y76331250D02*
X50212500Y80231250D01*
X48212500Y76331250D02*
X48212500Y80231250D01*
X178800000Y38231250D02*
X178800000Y42131250D01*
X178800000Y38231250D02*
X176800000Y38231250D01*
X176800000Y38231250D02*
X176800000Y42131250D01*
X97837500Y57281250D02*
X97837500Y61181250D01*
X97837500Y57281250D02*
X95837500Y57281250D01*
X95837500Y57281250D02*
X95837500Y61181250D01*
X76787500Y61781250D02*
X78787500Y61781250D01*
X78787500Y61781250D02*
X78787500Y57881250D01*
X76787500Y61781250D02*
X76787500Y57881250D01*
X205375000Y23681250D02*
X207375000Y23681250D01*
X205375000Y23681250D02*
X205375000Y19781250D01*
X207375000Y23681250D02*
X207375000Y19781250D01*
X294275000Y80831250D02*
X294275000Y76931250D01*
X296275000Y80831250D02*
X296275000Y76931250D01*
X294275000Y80831250D02*
X296275000Y80831250D01*
X74025000Y19181250D02*
X74025000Y23081250D01*
X72025000Y19181250D02*
X72025000Y23081250D01*
X74025000Y19181250D02*
X72025000Y19181250D01*
X212137500Y57281250D02*
X210137500Y57281250D01*
X210137500Y57281250D02*
X210137500Y61181250D01*
X212137500Y57281250D02*
X212137500Y61181250D01*
X45450000Y42731250D02*
X45450000Y38831250D01*
X43450000Y42731250D02*
X43450000Y38831250D01*
X43450000Y42731250D02*
X45450000Y42731250D01*
X129175000Y23681250D02*
X129175000Y19781250D01*
X131175000Y23681250D02*
X131175000Y19781250D01*
X129175000Y23681250D02*
X131175000Y23681250D01*
X83550000Y42731250D02*
X83550000Y38831250D01*
X81550000Y42731250D02*
X81550000Y38831250D01*
X81550000Y42731250D02*
X83550000Y42731250D01*
X226425000Y19181250D02*
X226425000Y23081250D01*
X224425000Y19181250D02*
X224425000Y23081250D01*
X226425000Y19181250D02*
X224425000Y19181250D01*
X162512500Y76331250D02*
X162512500Y80231250D01*
X164512500Y76331250D02*
X164512500Y80231250D01*
X164512500Y76331250D02*
X162512500Y76331250D01*
X277681250Y37893750D02*
X273781250Y37893750D01*
X277681250Y39893750D02*
X273781250Y39893750D01*
X277681250Y39893750D02*
X277681250Y37893750D01*
X91075000Y23681250D02*
X91075000Y19781250D01*
X91075000Y23681250D02*
X93075000Y23681250D01*
X93075000Y23681250D02*
X93075000Y19781250D01*
X202612500Y76331250D02*
X202612500Y80231250D01*
X202612500Y76331250D02*
X200612500Y76331250D01*
X200612500Y76331250D02*
X200612500Y80231250D01*
X248237500Y57281250D02*
X248237500Y61181250D01*
X250237500Y57281250D02*
X250237500Y61181250D01*
X250237500Y57281250D02*
X248237500Y57281250D01*
X102600000Y38231250D02*
X102600000Y42131250D01*
X100600000Y38231250D02*
X100600000Y42131250D01*
X102600000Y38231250D02*
X100600000Y38231250D01*
X167275000Y23681250D02*
X167275000Y19781250D01*
X167275000Y23681250D02*
X169275000Y23681250D01*
X169275000Y23681250D02*
X169275000Y19781250D01*
X259762500Y76331250D02*
X257762500Y76331250D01*
X259762500Y76331250D02*
X259762500Y80231250D01*
X257762500Y76331250D02*
X257762500Y80231250D01*
X57737500Y57281250D02*
X57737500Y61181250D01*
X59737500Y57281250D02*
X59737500Y61181250D01*
X59737500Y57281250D02*
X57737500Y57281250D01*
X47037500Y23681250D02*
X47037500Y19781250D01*
X45037500Y23681250D02*
X47037500Y23681250D01*
X45037500Y23681250D02*
X45037500Y19781250D01*
X86312500Y6218750D02*
X88312500Y6218750D01*
X88312500Y6218750D02*
X88312500Y2318750D01*
X86312500Y6218750D02*
X86312500Y2318750D01*
X152987500Y61781250D02*
X154987500Y61781250D01*
X154987500Y61781250D02*
X154987500Y57881250D01*
X152987500Y61781250D02*
X152987500Y57881250D01*
X216900000Y38231250D02*
X216900000Y42131250D01*
X214900000Y38231250D02*
X214900000Y42131250D01*
X216900000Y38231250D02*
X214900000Y38231250D01*
X247781250Y18843750D02*
X247781250Y20843750D01*
X247781250Y20843750D02*
X251681250Y20843750D01*
X247781250Y18843750D02*
X251681250Y18843750D01*
X67262500Y80831250D02*
X69262500Y80831250D01*
X69262500Y80831250D02*
X69262500Y76931250D01*
X67262500Y80831250D02*
X67262500Y76931250D01*
%LPC*%
D12*
X294275000Y35774050D02*
X298125000Y35774050D01*
X13075000Y41075950D02*
X16875000Y41075950D01*
X294275000Y41075950D02*
X298075000Y41075950D01*
X13075000Y35774050D02*
X16875000Y35774050D01*
X291624050Y38425000D02*
G75*
G03*
X294275000Y35774050I2650950J0D01*
G01*
X294275000Y41075950D02*
G75*
G03*
X291624050Y38425000I0J-2650950D01*
G01*
X16875000Y35774050D02*
G75*
G03*
X19525950Y38425000I1J2650949D01*
G01*
X19525950Y38425000D02*
G75*
G03*
X16875000Y41075950I-2650949J1D01*
G01*
D13*
X247525000Y80645000D03*
X247525000Y86365000D03*
X254125000Y86365000D03*
X254125000Y80645000D03*
X142750000Y67315000D03*
X142750000Y61595000D03*
X149350000Y67315000D03*
X149350000Y61595000D03*
X26068750Y42545000D03*
X26068750Y48265000D03*
X32668750Y48265000D03*
X32668750Y42545000D03*
X23687500Y4445000D03*
X23687500Y10165000D03*
X30287500Y10165000D03*
X30287500Y4445000D03*
X152275000Y4445000D03*
X152275000Y10165000D03*
X158875000Y10165000D03*
X158875000Y4445000D03*
X30831250Y29215000D03*
X30831250Y23495000D03*
X37431250Y29215000D03*
X37431250Y23495000D03*
X284480000Y60450000D03*
X291623750Y60450000D03*
X278760000Y60450000D03*
X285903750Y60450000D03*
X285903750Y53850000D03*
X278760000Y53850000D03*
X284480000Y53850000D03*
X291623750Y53850000D03*
X95125000Y86365000D03*
X95125000Y80645000D03*
X101725000Y86365000D03*
X101725000Y80645000D03*
X123700000Y67315000D03*
X123700000Y61595000D03*
X130300000Y67315000D03*
X130300000Y61595000D03*
X90362500Y48265000D03*
X90362500Y42545000D03*
X96962500Y42545000D03*
X96962500Y48265000D03*
X268956250Y23495000D03*
X268956250Y29215000D03*
X275556250Y29215000D03*
X275556250Y23495000D03*
X166562500Y48265000D03*
X166562500Y42545000D03*
X173162500Y42545000D03*
X173162500Y48265000D03*
X233237500Y4445000D03*
X233237500Y10165000D03*
X239837500Y10165000D03*
X239837500Y4445000D03*
X218950000Y61595000D03*
X218950000Y67315000D03*
X225550000Y67315000D03*
X225550000Y61595000D03*
X280862500Y4445000D03*
X280862500Y10165000D03*
X287462500Y4445000D03*
X287462500Y10165000D03*
X147512500Y42545000D03*
X147512500Y48265000D03*
X154112500Y42545000D03*
X154112500Y48265000D03*
X52262500Y42545000D03*
X52262500Y48265000D03*
X58862500Y42545000D03*
X58862500Y48265000D03*
X99887500Y29215000D03*
X99887500Y23495000D03*
X106487500Y23495000D03*
X106487500Y29215000D03*
X114175000Y80645000D03*
X114175000Y86365000D03*
X120775000Y86365000D03*
X120775000Y80645000D03*
X104650000Y61595000D03*
X104650000Y67315000D03*
X111250000Y61595000D03*
X111250000Y67315000D03*
X137987500Y23495000D03*
X137987500Y29215000D03*
X144587500Y23495000D03*
X144587500Y29215000D03*
X161800000Y61595000D03*
X161800000Y67315000D03*
X168400000Y67315000D03*
X168400000Y61595000D03*
X257050000Y10165000D03*
X257050000Y4445000D03*
X263650000Y4445000D03*
X263650000Y10165000D03*
X228475000Y86365000D03*
X228475000Y80645000D03*
X235075000Y86365000D03*
X235075000Y80645000D03*
X133225000Y86365000D03*
X133225000Y80645000D03*
X139825000Y86365000D03*
X139825000Y80645000D03*
D14*
X273125000Y67025000D03*
X203575000Y9725000D03*
X141275000Y47925000D03*
D15*
X38275000Y67025000D03*
D13*
X171325000Y86365000D03*
X171325000Y80645000D03*
X177925000Y80645000D03*
X177925000Y86365000D03*
X276100000Y80645000D03*
X276100000Y86365000D03*
X282700000Y80645000D03*
X282700000Y86365000D03*
X118937500Y29215000D03*
X118937500Y23495000D03*
X125537500Y29215000D03*
X125537500Y23495000D03*
X233237500Y23495000D03*
X233237500Y29215000D03*
X239837500Y23495000D03*
X239837500Y29215000D03*
X71312500Y4445000D03*
X71312500Y10165000D03*
X77912500Y10165000D03*
X77912500Y4445000D03*
X199900000Y61595000D03*
X199900000Y67315000D03*
X206500000Y61595000D03*
X206500000Y67315000D03*
X18925000Y86365000D03*
X18925000Y80645000D03*
X25525000Y86365000D03*
X25525000Y80645000D03*
X80837500Y23495000D03*
X80837500Y29215000D03*
X87437500Y29215000D03*
X87437500Y23495000D03*
X47500000Y67315000D03*
X47500000Y61595000D03*
X54100000Y67315000D03*
X54100000Y61595000D03*
X214187500Y29215000D03*
X214187500Y23495000D03*
X220787500Y23495000D03*
X220787500Y29215000D03*
X223712500Y42545000D03*
X223712500Y48265000D03*
X230312500Y48265000D03*
X230312500Y42545000D03*
X204662500Y48265000D03*
X204662500Y42545000D03*
X211262500Y48265000D03*
X211262500Y42545000D03*
X85600000Y67315000D03*
X85600000Y61595000D03*
X92200000Y67315000D03*
X92200000Y61595000D03*
X23687500Y67315000D03*
X23687500Y61595000D03*
X30287500Y67315000D03*
X30287500Y61595000D03*
X157037500Y29215000D03*
X157037500Y23495000D03*
X163637500Y29215000D03*
X163637500Y23495000D03*
X190375000Y80645000D03*
X190375000Y86365000D03*
X196975000Y80645000D03*
X196975000Y86365000D03*
X261812500Y48265000D03*
X261812500Y42545000D03*
X268412500Y42545000D03*
X268412500Y48265000D03*
X47500000Y10165000D03*
X47500000Y4445000D03*
X54100000Y10165000D03*
X54100000Y4445000D03*
X66550000Y61595000D03*
X66550000Y67315000D03*
X73150000Y67315000D03*
X73150000Y61595000D03*
X109412500Y48265000D03*
X109412500Y42545000D03*
X116012500Y48265000D03*
X116012500Y42545000D03*
X71312500Y42545000D03*
X71312500Y48265000D03*
X77912500Y42545000D03*
X77912500Y48265000D03*
X37975000Y80645000D03*
X37975000Y86365000D03*
X44575000Y80645000D03*
X44575000Y86365000D03*
X238000000Y67315000D03*
X238000000Y61595000D03*
X244600000Y61595000D03*
X244600000Y67315000D03*
X128462500Y48265000D03*
X128462500Y42545000D03*
X135062500Y42545000D03*
X135062500Y48265000D03*
X176087500Y29215000D03*
X176087500Y23495000D03*
X182687500Y29215000D03*
X182687500Y23495000D03*
X76075000Y86365000D03*
X76075000Y80645000D03*
X82675000Y86365000D03*
X82675000Y80645000D03*
X152275000Y80645000D03*
X152275000Y86365000D03*
X158875000Y80645000D03*
X158875000Y86365000D03*
X257050000Y67315000D03*
X257050000Y61595000D03*
X263650000Y67315000D03*
X263650000Y61595000D03*
X57025000Y86365000D03*
X57025000Y80645000D03*
X63625000Y86365000D03*
X63625000Y80645000D03*
X242762500Y48265000D03*
X242762500Y42545000D03*
X249362500Y42545000D03*
X249362500Y48265000D03*
X180850000Y67315000D03*
X180850000Y61595000D03*
X187450000Y61595000D03*
X187450000Y67315000D03*
X195137500Y23495000D03*
X195137500Y29215000D03*
X201737500Y23495000D03*
X201737500Y29215000D03*
X61787500Y29215000D03*
X61787500Y23495000D03*
X68387500Y29215000D03*
X68387500Y23495000D03*
X209425000Y86365000D03*
X209425000Y80645000D03*
X216025000Y86365000D03*
X216025000Y80645000D03*
X185612500Y48265000D03*
X185612500Y42545000D03*
X192212500Y48265000D03*
X192212500Y42545000D03*
D16*
X106362500Y80231250D03*
X106362500Y76931250D03*
X239712500Y76931250D03*
X239712500Y80231250D03*
X173831250Y2318750D03*
X173831250Y5618750D03*
X158750000Y42131250D03*
X158750000Y38831250D03*
X125412500Y76931250D03*
X125412500Y80231250D03*
X120650000Y42131250D03*
X120650000Y38831250D03*
X196850000Y42131250D03*
X196850000Y38831250D03*
X268287500Y61181250D03*
X268287500Y57881250D03*
X39687500Y5618750D03*
X39687500Y2318750D03*
X63500000Y38831250D03*
X63500000Y42131250D03*
X39687500Y61181250D03*
X39687500Y57881250D03*
X173037500Y57881250D03*
X173037500Y61181250D03*
X230187500Y61181250D03*
X230187500Y57881250D03*
X149225000Y19781250D03*
X149225000Y23081250D03*
X115887500Y61181250D03*
X115887500Y57881250D03*
X254000000Y38831250D03*
X254000000Y42131250D03*
X111125000Y19781250D03*
X111125000Y23081250D03*
X139700000Y38831250D03*
X139700000Y42131250D03*
X87312500Y76931250D03*
X87312500Y80231250D03*
X187325000Y19781250D03*
X187325000Y23081250D03*
X144462500Y80231250D03*
X144462500Y76931250D03*
X192087500Y61181250D03*
X192087500Y57881250D03*
X268287500Y2318750D03*
X268287500Y5618750D03*
X244475000Y23081250D03*
X244475000Y19781250D03*
X271462500Y5618750D03*
X271462500Y2318750D03*
X249237500Y5618750D03*
X249237500Y2318750D03*
X15081250Y80168750D03*
X15081250Y76868750D03*
X295275000Y57212500D03*
X295275000Y53912500D03*
X182562500Y80231250D03*
X182562500Y76931250D03*
X220662500Y80231250D03*
X220662500Y76931250D03*
X134937500Y57881250D03*
X134937500Y61181250D03*
X58737500Y2318750D03*
X58737500Y5618750D03*
D17*
X40685000Y91894250D03*
D18*
X40685000Y89354250D03*
X40685000Y86814250D03*
X40685000Y84274250D03*
X40685000Y81734250D03*
X40685000Y79194250D03*
X40685000Y76654250D03*
D19*
X22905000Y76654250D03*
X22905000Y79194250D03*
X22905000Y81734250D03*
X22905000Y84274250D03*
X22905000Y86814250D03*
X22905000Y89354250D03*
X22905000Y91894250D03*
D16*
X234950000Y42131250D03*
X234950000Y38831250D03*
X49212500Y76931250D03*
X49212500Y80231250D03*
X177800000Y38831250D03*
X177800000Y42131250D03*
X96837500Y57881250D03*
X96837500Y61181250D03*
X77787500Y61181250D03*
X77787500Y57881250D03*
X206375000Y23081250D03*
X206375000Y19781250D03*
X295275000Y80231250D03*
X295275000Y76931250D03*
X73025000Y19781250D03*
X73025000Y23081250D03*
X211137500Y57881250D03*
X211137500Y61181250D03*
X44450000Y42131250D03*
X44450000Y38831250D03*
X130175000Y23081250D03*
X130175000Y19781250D03*
X82550000Y42131250D03*
X82550000Y38831250D03*
X225425000Y19781250D03*
X225425000Y23081250D03*
X163512500Y76931250D03*
X163512500Y80231250D03*
D20*
X277081250Y38893750D03*
X273781250Y38893750D03*
D16*
X92075000Y23081250D03*
X92075000Y19781250D03*
X201612500Y76931250D03*
X201612500Y80231250D03*
X249237500Y57881250D03*
X249237500Y61181250D03*
X101600000Y38831250D03*
X101600000Y42131250D03*
X168275000Y23081250D03*
X168275000Y19781250D03*
X258762500Y76931250D03*
X258762500Y80231250D03*
X58737500Y57881250D03*
X58737500Y61181250D03*
X46037500Y23081250D03*
X46037500Y19781250D03*
X87312500Y5618750D03*
X87312500Y2318750D03*
X153987500Y61181250D03*
X153987500Y57881250D03*
X215900000Y38831250D03*
X215900000Y42131250D03*
D20*
X248381250Y19843750D03*
X251681250Y19843750D03*
D16*
X68262500Y80231250D03*
X68262500Y76931250D03*
M02*
