G04 #@! TF.GenerationSoftware,KiCad,Pcbnew,(6.0.4)*
G04 #@! TF.CreationDate,2022-06-06T22:41:23+02:00*
G04 #@! TF.ProjectId,XIAO2040,5849414f-3230-4343-902e-6b696361645f,rev?*
G04 #@! TF.SameCoordinates,Original*
G04 #@! TF.FileFunction,Legend,Top*
G04 #@! TF.FilePolarity,Positive*
%FSLAX46Y46*%
G04 Gerber Fmt 4.6, Leading zero omitted, Abs format (unit mm)*
G04 Created by KiCad (PCBNEW (6.0.4)) date 2022-06-06 22:41:23*
%MOMM*%
%LPD*%
G01*
G04 APERTURE LIST*
%ADD10C,0.150000*%
G04 APERTURE END LIST*
D10*
X98760595Y5115119D02*
X98760595Y6115119D01*
X99141547Y6115119D01*
X99236785Y6067500D01*
X99284404Y6019880D01*
X99332023Y5924642D01*
X99332023Y5781785D01*
X99284404Y5686547D01*
X99236785Y5638928D01*
X99141547Y5591309D01*
X98760595Y5591309D01*
X100236785Y5115119D02*
X99760595Y5115119D01*
X99760595Y6115119D01*
X100570119Y6115119D02*
X100570119Y5305595D01*
X100617738Y5210357D01*
X100665357Y5162738D01*
X100760595Y5115119D01*
X100951071Y5115119D01*
X101046309Y5162738D01*
X101093928Y5210357D01*
X101141547Y5305595D01*
X101141547Y6115119D01*
X101474880Y6115119D02*
X102046309Y6115119D01*
X101760595Y5115119D02*
X101760595Y6115119D01*
X102570119Y6115119D02*
X102760595Y6115119D01*
X102855833Y6067500D01*
X102951071Y5972261D01*
X102998690Y5781785D01*
X102998690Y5448452D01*
X102951071Y5257976D01*
X102855833Y5162738D01*
X102760595Y5115119D01*
X102570119Y5115119D01*
X102474880Y5162738D01*
X102379642Y5257976D01*
X102332023Y5448452D01*
X102332023Y5781785D01*
X102379642Y5972261D01*
X102474880Y6067500D01*
X102570119Y6115119D01*
X103855833Y6115119D02*
X103665357Y6115119D01*
X103570119Y6067500D01*
X103522500Y6019880D01*
X103427261Y5877023D01*
X103379642Y5686547D01*
X103379642Y5305595D01*
X103427261Y5210357D01*
X103474880Y5162738D01*
X103570119Y5115119D01*
X103760595Y5115119D01*
X103855833Y5162738D01*
X103903452Y5210357D01*
X103951071Y5305595D01*
X103951071Y5543690D01*
X103903452Y5638928D01*
X103855833Y5686547D01*
X103760595Y5734166D01*
X103570119Y5734166D01*
X103474880Y5686547D01*
X103427261Y5638928D01*
X103379642Y5543690D01*
X104570119Y6115119D02*
X104665357Y6115119D01*
X104760595Y6067500D01*
X104808214Y6019880D01*
X104855833Y5924642D01*
X104903452Y5734166D01*
X104903452Y5496071D01*
X104855833Y5305595D01*
X104808214Y5210357D01*
X104760595Y5162738D01*
X104665357Y5115119D01*
X104570119Y5115119D01*
X104474880Y5162738D01*
X104427261Y5210357D01*
X104379642Y5305595D01*
X104332023Y5496071D01*
X104332023Y5734166D01*
X104379642Y5924642D01*
X104427261Y6019880D01*
X104474880Y6067500D01*
X104570119Y6115119D01*
X105951071Y6115119D02*
X106284404Y5115119D01*
X106617738Y6115119D01*
X107474880Y5115119D02*
X106903452Y5115119D01*
X107189166Y5115119D02*
X107189166Y6115119D01*
X107093928Y5972261D01*
X106998690Y5877023D01*
X106903452Y5829404D01*
X107903452Y5210357D02*
X107951071Y5162738D01*
X107903452Y5115119D01*
X107855833Y5162738D01*
X107903452Y5210357D01*
X107903452Y5115119D01*
X108332023Y6019880D02*
X108379642Y6067500D01*
X108474880Y6115119D01*
X108712976Y6115119D01*
X108808214Y6067500D01*
X108855833Y6019880D01*
X108903452Y5924642D01*
X108903452Y5829404D01*
X108855833Y5686547D01*
X108284404Y5115119D01*
X108903452Y5115119D01*
X98760595Y3505119D02*
X98760595Y4505119D01*
X98998690Y4505119D01*
X99141547Y4457500D01*
X99236785Y4362261D01*
X99284404Y4267023D01*
X99332023Y4076547D01*
X99332023Y3933690D01*
X99284404Y3743214D01*
X99236785Y3647976D01*
X99141547Y3552738D01*
X98998690Y3505119D01*
X98760595Y3505119D01*
X100141547Y3552738D02*
X100046309Y3505119D01*
X99855833Y3505119D01*
X99760595Y3552738D01*
X99712976Y3647976D01*
X99712976Y4028928D01*
X99760595Y4124166D01*
X99855833Y4171785D01*
X100046309Y4171785D01*
X100141547Y4124166D01*
X100189166Y4028928D01*
X100189166Y3933690D01*
X99712976Y3838452D01*
X100570119Y3552738D02*
X100665357Y3505119D01*
X100855833Y3505119D01*
X100951071Y3552738D01*
X100998690Y3647976D01*
X100998690Y3695595D01*
X100951071Y3790833D01*
X100855833Y3838452D01*
X100712976Y3838452D01*
X100617738Y3886071D01*
X100570119Y3981309D01*
X100570119Y4028928D01*
X100617738Y4124166D01*
X100712976Y4171785D01*
X100855833Y4171785D01*
X100951071Y4124166D01*
X101427261Y3505119D02*
X101427261Y4171785D01*
X101427261Y4505119D02*
X101379642Y4457500D01*
X101427261Y4409880D01*
X101474880Y4457500D01*
X101427261Y4505119D01*
X101427261Y4409880D01*
X102332023Y4171785D02*
X102332023Y3362261D01*
X102284404Y3267023D01*
X102236785Y3219404D01*
X102141547Y3171785D01*
X101998690Y3171785D01*
X101903452Y3219404D01*
X102332023Y3552738D02*
X102236785Y3505119D01*
X102046309Y3505119D01*
X101951071Y3552738D01*
X101903452Y3600357D01*
X101855833Y3695595D01*
X101855833Y3981309D01*
X101903452Y4076547D01*
X101951071Y4124166D01*
X102046309Y4171785D01*
X102236785Y4171785D01*
X102332023Y4124166D01*
X102808214Y4171785D02*
X102808214Y3505119D01*
X102808214Y4076547D02*
X102855833Y4124166D01*
X102951071Y4171785D01*
X103093928Y4171785D01*
X103189166Y4124166D01*
X103236785Y4028928D01*
X103236785Y3505119D01*
X104093928Y3552738D02*
X103998690Y3505119D01*
X103808214Y3505119D01*
X103712976Y3552738D01*
X103665357Y3647976D01*
X103665357Y4028928D01*
X103712976Y4124166D01*
X103808214Y4171785D01*
X103998690Y4171785D01*
X104093928Y4124166D01*
X104141547Y4028928D01*
X104141547Y3933690D01*
X103665357Y3838452D01*
X104998690Y3505119D02*
X104998690Y4505119D01*
X104998690Y3552738D02*
X104903452Y3505119D01*
X104712976Y3505119D01*
X104617738Y3552738D01*
X104570119Y3600357D01*
X104522500Y3695595D01*
X104522500Y3981309D01*
X104570119Y4076547D01*
X104617738Y4124166D01*
X104712976Y4171785D01*
X104903452Y4171785D01*
X104998690Y4124166D01*
X106236785Y3505119D02*
X106236785Y4505119D01*
X106236785Y4124166D02*
X106332023Y4171785D01*
X106522500Y4171785D01*
X106617738Y4124166D01*
X106665357Y4076547D01*
X106712976Y3981309D01*
X106712976Y3695595D01*
X106665357Y3600357D01*
X106617738Y3552738D01*
X106522500Y3505119D01*
X106332023Y3505119D01*
X106236785Y3552738D01*
X107046309Y4171785D02*
X107284404Y3505119D01*
X107522500Y4171785D02*
X107284404Y3505119D01*
X107189166Y3267023D01*
X107141547Y3219404D01*
X107046309Y3171785D01*
X108665357Y3505119D02*
X108665357Y4505119D01*
X108998690Y3790833D01*
X109332023Y4505119D01*
X109332023Y3505119D01*
X109951071Y3505119D02*
X109855833Y3552738D01*
X109808214Y3600357D01*
X109760595Y3695595D01*
X109760595Y3981309D01*
X109808214Y4076547D01*
X109855833Y4124166D01*
X109951071Y4171785D01*
X110093928Y4171785D01*
X110189166Y4124166D01*
X110236785Y4076547D01*
X110284404Y3981309D01*
X110284404Y3695595D01*
X110236785Y3600357D01*
X110189166Y3552738D01*
X110093928Y3505119D01*
X109951071Y3505119D01*
X110712976Y3505119D02*
X110712976Y4171785D01*
X110712976Y3981309D02*
X110760595Y4076547D01*
X110808214Y4124166D01*
X110903452Y4171785D01*
X110998690Y4171785D01*
X111332023Y3505119D02*
X111332023Y4171785D01*
X111332023Y3981309D02*
X111379642Y4076547D01*
X111427261Y4124166D01*
X111522500Y4171785D01*
X111617738Y4171785D01*
X112093928Y3505119D02*
X111998690Y3552738D01*
X111951071Y3600357D01*
X111903452Y3695595D01*
X111903452Y3981309D01*
X111951071Y4076547D01*
X111998690Y4124166D01*
X112093928Y4171785D01*
X112236785Y4171785D01*
X112332023Y4124166D01*
X112379642Y4076547D01*
X112427261Y3981309D01*
X112427261Y3695595D01*
X112379642Y3600357D01*
X112332023Y3552738D01*
X112236785Y3505119D01*
X112093928Y3505119D01*
X112855833Y4171785D02*
X112855833Y3505119D01*
X112855833Y4076547D02*
X112903452Y4124166D01*
X112998690Y4171785D01*
X113141547Y4171785D01*
X113236785Y4124166D01*
X113284404Y4028928D01*
X113284404Y3505119D01*
X113760595Y3505119D02*
X113760595Y4171785D01*
X113760595Y3981309D02*
X113808214Y4076547D01*
X113855833Y4124166D01*
X113951071Y4171785D01*
X114046309Y4171785D01*
X114522500Y3505119D02*
X114427261Y3552738D01*
X114379642Y3600357D01*
X114332023Y3695595D01*
X114332023Y3981309D01*
X114379642Y4076547D01*
X114427261Y4124166D01*
X114522500Y4171785D01*
X114665357Y4171785D01*
X114760595Y4124166D01*
X114808214Y4076547D01*
X114855833Y3981309D01*
X114855833Y3695595D01*
X114808214Y3600357D01*
X114760595Y3552738D01*
X114665357Y3505119D01*
X114522500Y3505119D01*
X115236785Y3552738D02*
X115332023Y3505119D01*
X115522500Y3505119D01*
X115617738Y3552738D01*
X115665357Y3647976D01*
X115665357Y3695595D01*
X115617738Y3790833D01*
X115522500Y3838452D01*
X115379642Y3838452D01*
X115284404Y3886071D01*
X115236785Y3981309D01*
X115236785Y4028928D01*
X115284404Y4124166D01*
X115379642Y4171785D01*
X115522500Y4171785D01*
X115617738Y4124166D01*
X115951071Y4171785D02*
X116332023Y4171785D01*
X116093928Y4505119D02*
X116093928Y3647976D01*
X116141547Y3552738D01*
X116236785Y3505119D01*
X116332023Y3505119D01*
M02*
