G04 #@! TF.GenerationSoftware,KiCad,Pcbnew,(6.0.4)*
G04 #@! TF.CreationDate,2022-08-29T03:28:43+02:00*
G04 #@! TF.ProjectId,PLUTO60,504c5554-4f36-4302-9e6b-696361645f70,rev?*
G04 #@! TF.SameCoordinates,Original*
G04 #@! TF.FileFunction,Soldermask,Top*
G04 #@! TF.FilePolarity,Negative*
%FSLAX46Y46*%
G04 Gerber Fmt 4.6, Leading zero omitted, Abs format (unit mm)*
G04 Created by KiCad (PCBNEW (6.0.4)) date 2022-08-29 03:28:43*
%MOMM*%
%LPD*%
G01*
G04 APERTURE LIST*
%ADD10C,2.501900*%
%ADD11C,2.250000*%
%ADD12C,7.000240*%
%ADD13C,7.001300*%
G04 APERTURE END LIST*
D10*
X294275000Y41075950D02*
X298075000Y41075950D01*
X13075000Y35774050D02*
X16875000Y35774050D01*
X294275000Y35774050D02*
X298125000Y35774050D01*
X13075000Y41075950D02*
X16875000Y41075950D01*
X291624050Y38425000D02*
G75*
G03*
X294275000Y35774050I2650950J0D01*
G01*
X294275000Y41075950D02*
G75*
G03*
X291624050Y38425000I0J-2650950D01*
G01*
X16875000Y35774050D02*
G75*
G03*
X19525950Y38425000I1J2650949D01*
G01*
X19525950Y38425000D02*
G75*
G03*
X16875000Y41075950I-2650949J1D01*
G01*
D11*
X247525000Y80645000D03*
X247525000Y86365000D03*
X254125000Y86365000D03*
X254125000Y80645000D03*
X142750000Y67315000D03*
X142750000Y61595000D03*
X149350000Y67315000D03*
X149350000Y61595000D03*
X26068750Y42545000D03*
X26068750Y48265000D03*
X32668750Y48265000D03*
X32668750Y42545000D03*
X23687500Y4445000D03*
X23687500Y10165000D03*
X30287500Y10165000D03*
X30287500Y4445000D03*
X152275000Y4445000D03*
X152275000Y10165000D03*
X158875000Y10165000D03*
X158875000Y4445000D03*
X30831250Y29215000D03*
X30831250Y23495000D03*
X37431250Y29215000D03*
X37431250Y23495000D03*
X284480000Y60450000D03*
X291623750Y60450000D03*
X278760000Y60450000D03*
X285903750Y60450000D03*
X285903750Y53850000D03*
X278760000Y53850000D03*
X284480000Y53850000D03*
X291623750Y53850000D03*
X95125000Y86365000D03*
X95125000Y80645000D03*
X101725000Y86365000D03*
X101725000Y80645000D03*
X123700000Y67315000D03*
X123700000Y61595000D03*
X130300000Y67315000D03*
X130300000Y61595000D03*
X90362500Y48265000D03*
X90362500Y42545000D03*
X96962500Y42545000D03*
X96962500Y48265000D03*
X268956250Y23495000D03*
X268956250Y29215000D03*
X275556250Y29215000D03*
X275556250Y23495000D03*
X166562500Y48265000D03*
X166562500Y42545000D03*
X173162500Y42545000D03*
X173162500Y48265000D03*
X233237500Y4445000D03*
X233237500Y10165000D03*
X239837500Y10165000D03*
X239837500Y4445000D03*
X218950000Y61595000D03*
X218950000Y67315000D03*
X225550000Y67315000D03*
X225550000Y61595000D03*
X280862500Y4445000D03*
X280862500Y10165000D03*
X287462500Y4445000D03*
X287462500Y10165000D03*
X147512500Y42545000D03*
X147512500Y48265000D03*
X154112500Y42545000D03*
X154112500Y48265000D03*
X52262500Y42545000D03*
X52262500Y48265000D03*
X58862500Y42545000D03*
X58862500Y48265000D03*
X99887500Y29215000D03*
X99887500Y23495000D03*
X106487500Y23495000D03*
X106487500Y29215000D03*
X114175000Y80645000D03*
X114175000Y86365000D03*
X120775000Y86365000D03*
X120775000Y80645000D03*
X104650000Y61595000D03*
X104650000Y67315000D03*
X111250000Y61595000D03*
X111250000Y67315000D03*
X137987500Y23495000D03*
X137987500Y29215000D03*
X144587500Y23495000D03*
X144587500Y29215000D03*
X161800000Y61595000D03*
X161800000Y67315000D03*
X168400000Y67315000D03*
X168400000Y61595000D03*
X257050000Y10165000D03*
X257050000Y4445000D03*
X263650000Y4445000D03*
X263650000Y10165000D03*
X228475000Y86365000D03*
X228475000Y80645000D03*
X235075000Y86365000D03*
X235075000Y80645000D03*
X133225000Y86365000D03*
X133225000Y80645000D03*
X139825000Y86365000D03*
X139825000Y80645000D03*
D12*
X273125000Y67025000D03*
X203575000Y9725000D03*
X141275000Y47925000D03*
D13*
X38275000Y67025000D03*
D11*
X171325000Y86365000D03*
X171325000Y80645000D03*
X177925000Y80645000D03*
X177925000Y86365000D03*
X276100000Y80645000D03*
X276100000Y86365000D03*
X282700000Y80645000D03*
X282700000Y86365000D03*
X118937500Y29215000D03*
X118937500Y23495000D03*
X125537500Y29215000D03*
X125537500Y23495000D03*
X233237500Y23495000D03*
X233237500Y29215000D03*
X239837500Y23495000D03*
X239837500Y29215000D03*
X71312500Y4445000D03*
X71312500Y10165000D03*
X77912500Y10165000D03*
X77912500Y4445000D03*
X199900000Y61595000D03*
X199900000Y67315000D03*
X206500000Y61595000D03*
X206500000Y67315000D03*
X18925000Y86365000D03*
X18925000Y80645000D03*
X25525000Y86365000D03*
X25525000Y80645000D03*
X80837500Y23495000D03*
X80837500Y29215000D03*
X87437500Y29215000D03*
X87437500Y23495000D03*
X47500000Y67315000D03*
X47500000Y61595000D03*
X54100000Y67315000D03*
X54100000Y61595000D03*
X214187500Y29215000D03*
X214187500Y23495000D03*
X220787500Y23495000D03*
X220787500Y29215000D03*
X223712500Y42545000D03*
X223712500Y48265000D03*
X230312500Y48265000D03*
X230312500Y42545000D03*
X204662500Y48265000D03*
X204662500Y42545000D03*
X211262500Y48265000D03*
X211262500Y42545000D03*
X85600000Y67315000D03*
X85600000Y61595000D03*
X92200000Y67315000D03*
X92200000Y61595000D03*
X23687500Y67315000D03*
X23687500Y61595000D03*
X30287500Y67315000D03*
X30287500Y61595000D03*
X157037500Y29215000D03*
X157037500Y23495000D03*
X163637500Y29215000D03*
X163637500Y23495000D03*
X190375000Y80645000D03*
X190375000Y86365000D03*
X196975000Y80645000D03*
X196975000Y86365000D03*
X261812500Y48265000D03*
X261812500Y42545000D03*
X268412500Y42545000D03*
X268412500Y48265000D03*
X47500000Y10165000D03*
X47500000Y4445000D03*
X54100000Y10165000D03*
X54100000Y4445000D03*
X66550000Y61595000D03*
X66550000Y67315000D03*
X73150000Y67315000D03*
X73150000Y61595000D03*
X109412500Y48265000D03*
X109412500Y42545000D03*
X116012500Y48265000D03*
X116012500Y42545000D03*
X71312500Y42545000D03*
X71312500Y48265000D03*
X77912500Y42545000D03*
X77912500Y48265000D03*
X37975000Y80645000D03*
X37975000Y86365000D03*
X44575000Y80645000D03*
X44575000Y86365000D03*
X238000000Y67315000D03*
X238000000Y61595000D03*
X244600000Y61595000D03*
X244600000Y67315000D03*
X128462500Y48265000D03*
X128462500Y42545000D03*
X135062500Y42545000D03*
X135062500Y48265000D03*
X176087500Y29215000D03*
X176087500Y23495000D03*
X182687500Y29215000D03*
X182687500Y23495000D03*
X76075000Y86365000D03*
X76075000Y80645000D03*
X82675000Y86365000D03*
X82675000Y80645000D03*
X152275000Y80645000D03*
X152275000Y86365000D03*
X158875000Y80645000D03*
X158875000Y86365000D03*
X257050000Y67315000D03*
X257050000Y61595000D03*
X263650000Y67315000D03*
X263650000Y61595000D03*
X57025000Y86365000D03*
X57025000Y80645000D03*
X63625000Y86365000D03*
X63625000Y80645000D03*
X242762500Y48265000D03*
X242762500Y42545000D03*
X249362500Y42545000D03*
X249362500Y48265000D03*
X180850000Y67315000D03*
X180850000Y61595000D03*
X187450000Y61595000D03*
X187450000Y67315000D03*
X195137500Y23495000D03*
X195137500Y29215000D03*
X201737500Y23495000D03*
X201737500Y29215000D03*
X61787500Y29215000D03*
X61787500Y23495000D03*
X68387500Y29215000D03*
X68387500Y23495000D03*
X209425000Y86365000D03*
X209425000Y80645000D03*
X216025000Y86365000D03*
X216025000Y80645000D03*
X185612500Y48265000D03*
X185612500Y42545000D03*
X192212500Y48265000D03*
X192212500Y42545000D03*
M02*
